<?xml version="1.0" encoding="UTF-8"?>
<svg version="1.1" xmlns="http://www.w3.org/2000/svg" width="256" height="256">
<path d="M0 0 C1.745421 -0.00486297 3.49083641 -0.01230854 5.23623657 -0.02212524 C9.9510739 -0.0408483 14.665074 -0.02217717 19.37984562 0.00453901 C24.32311609 0.02725752 29.26634805 0.01894648 34.20965576 0.01504517 C42.50481772 0.01328268 50.7996517 0.03537381 59.09472656 0.07226562 C68.68001091 0.11465187 78.26481602 0.1216069 87.85017514 0.10914171 C97.08412825 0.09774934 106.31791292 0.109048 115.55184174 0.1314888 C119.47676463 0.14076844 123.40158432 0.14253395 127.3265152 0.13831711 C131.94619223 0.13454713 136.56538203 0.15079014 141.18494797 0.1824379 C142.87882598 0.19091406 144.57275347 0.19263104 146.26664352 0.1870575 C148.58106593 0.18059789 150.89403956 0.1988111 153.20831299 0.22323608 C154.50242725 0.22734182 155.79654152 0.23144756 157.12987137 0.23567772 C161.25018695 0.83650632 163.40285375 2.14507744 166.62011719 4.74462891 C169.49949969 9.11311218 169.98178258 12.49916965 169.91308594 17.67431641 C169.90341797 18.96337891 169.89375 20.25244141 169.88378906 21.58056641 C169.85872907 22.92692677 169.83333431 24.27328094 169.80761719 25.61962891 C169.79255223 26.98940596 169.77886701 28.35919892 169.76660156 29.72900391 C169.73133098 33.06795249 169.68203615 36.40608565 169.62011719 39.74462891 C171.44349609 39.72722656 171.44349609 39.72722656 173.30371094 39.70947266 C174.88834483 39.70009612 176.47298037 39.69099578 178.05761719 39.68212891 C178.86005859 39.67375 179.6625 39.66537109 180.48925781 39.65673828 C182.5330694 39.6481146 184.5769562 39.69234741 186.62011719 39.74462891 C188.44343989 41.56795161 187.74279366 44.10032369 187.7491985 46.52710301 C187.74628565 47.364635 187.74337281 48.20216699 187.7403717 49.06507874 C187.74165334 50.38943134 187.74165334 50.38943134 187.74296087 51.74053854 C187.74461839 54.72247225 187.73908988 57.70435069 187.73364258 60.6862793 C187.73336074 62.81447854 187.73351838 64.94267789 187.73408508 67.07087708 C187.73437319 72.86816208 187.72847442 78.66542659 187.72151113 84.4627068 C187.71527968 90.51390941 187.71467396 96.56511243 187.71348572 102.61631775 C187.71037178 114.08397921 187.70215756 125.5516312 187.69213623 137.01928848 C187.68097702 150.07105725 187.67546513 163.12282646 187.67044079 176.17459881 C187.65997499 203.03128078 187.64237435 229.88795431 187.62011719 256.74462891 C159.82165933 256.86138292 132.02323816 256.94957835 104.22458458 257.00368977 C91.31744571 257.02948142 78.41045911 257.06465062 65.50341797 257.12182617 C54.25484448 257.17163134 43.00638125 257.20391291 31.75770056 257.21507138 C25.80046989 257.22159495 19.84355468 257.23694771 13.88642502 257.27327919 C8.28038978 257.30719271 2.67480025 257.31769108 -2.93132782 257.31016731 C-4.98968044 257.31154392 -7.04804782 257.32150379 -9.1063118 257.34065628 C-11.91611913 257.36552157 -14.72424212 257.35955782 -17.53408813 257.34590149 C-18.34927402 257.3604657 -19.16445991 257.3750299 -20.0043484 257.39003545 C-24.0820086 257.33643831 -26.6175754 256.95936714 -29.84805298 254.36160851 C-33.82626499 250.24960242 -34.61835646 246.92455265 -34.69873047 241.31176758 C-34.71860016 240.25104538 -34.73846985 239.19032318 -34.75894165 238.09745789 C-34.77049286 236.96395401 -34.78204407 235.83045013 -34.79394531 234.66259766 C-34.81331146 233.49328201 -34.83267761 232.32396637 -34.85263062 231.11921692 C-34.91233476 227.39026142 -34.95877578 223.6612749 -35.00488281 219.93212891 C-35.04307096 217.4015166 -35.08212318 214.87091718 -35.12207031 212.34033203 C-35.2180289 206.1418788 -35.30310339 199.94334777 -35.37988281 193.74462891 C-35.91468262 194.07785156 -36.44948242 194.41107422 -37.00048828 194.75439453 C-39.41578697 196.25575385 -41.83525348 197.75025996 -44.25488281 199.24462891 C-45.09664062 199.76927734 -45.93839844 200.29392578 -46.80566406 200.83447266 C-47.61132812 201.33076172 -48.41699219 201.82705078 -49.24707031 202.33837891 C-50.36251221 203.02963867 -50.36251221 203.02963867 -51.50048828 203.73486328 C-53.37988281 204.74462891 -53.37988281 204.74462891 -55.37988281 204.74462891 C-56.03569222 181.4407089 -56.52852748 158.13832077 -56.83062363 134.82702732 C-56.97466668 124.00108452 -57.17075956 113.18089162 -57.4921875 102.35864258 C-57.77242328 92.91875487 -57.95215993 83.48302965 -58.01436067 74.0390982 C-58.05070654 69.0416518 -58.13515285 64.05610378 -58.3403244 59.06250191 C-59.51026634 29.45739202 -59.51026634 29.45739202 -54.13082314 22.0170455 C-47.79741119 15.23029277 -39.219764 11.48828065 -30.7181282 8.16585159 C-27.61987923 6.84680484 -25.27456465 5.36049344 -22.56274414 3.39762878 C-15.69803497 -0.86550148 -7.79727744 -0.07634633 0 0 Z " fill="#186BFE" transform="translate(62.3798828125,-0.74462890625)"/>
<path d="M0 0 C2.42204038 3.63306058 2.23302891 5.31819023 2.1953125 9.63671875 C2.18564453 11.58481445 2.18564453 11.58481445 2.17578125 13.57226562 C2.1590706 14.94401307 2.14214071 16.31575786 2.125 17.6875 C2.11496674 19.07095718 2.10584149 20.45442127 2.09765625 21.83789062 C2.07404967 25.22543452 2.04112037 28.61263072 2 32 C3.82337891 31.98259766 3.82337891 31.98259766 5.68359375 31.96484375 C7.26822764 31.95546722 8.85286318 31.94636687 10.4375 31.9375 C11.23994141 31.92912109 12.04238281 31.92074219 12.86914062 31.91210938 C14.91295221 31.9034857 16.95683902 31.9477185 19 32 C20.8233227 33.8233227 20.12267648 36.35569479 20.12908131 38.7824741 C20.12616847 39.62000609 20.12325563 40.45753808 20.12025452 41.32044983 C20.12153615 42.64480243 20.12153615 42.64480243 20.12284368 43.99590963 C20.1245012 46.97784335 20.11897269 49.95972179 20.11352539 52.94165039 C20.11324355 55.06984964 20.11340119 57.19804898 20.1139679 59.32624817 C20.114256 65.12353317 20.10835723 70.92079768 20.10139394 76.7180779 C20.0951625 82.7692805 20.09455677 88.82048352 20.09336853 94.87168884 C20.09025459 106.33935031 20.08204037 117.80700229 20.07201904 129.27465957 C20.06085983 142.32642834 20.05534794 155.37819756 20.05032361 168.42996991 C20.0398578 195.28665187 20.02225716 222.1433254 20 249 C-7.79845786 249.11675402 -35.59687902 249.20494944 -63.39553261 249.25906086 C-76.30267147 249.28485252 -89.20965808 249.32002171 -102.11669922 249.37719727 C-113.36527271 249.42700243 -124.61373594 249.45928401 -135.86241663 249.47044247 C-141.8196473 249.47696604 -147.77656251 249.4923188 -153.73369217 249.52865028 C-159.3397274 249.5625638 -164.94531694 249.57306217 -170.55144501 249.56553841 C-172.60979763 249.56691501 -174.66816501 249.57687488 -176.72642899 249.59602737 C-179.53623631 249.62089267 -182.34435931 249.61492892 -185.15420532 249.60127258 C-186.37698415 249.62311889 -186.37698415 249.62311889 -187.62446558 249.64540654 C-191.70228504 249.59180731 -194.23809115 249.21449625 -197.46892738 246.61694431 C-201.4135105 242.53853333 -202.21585772 239.11244657 -202.51269531 233.55810547 C-202.59961639 231.96021683 -202.59961639 231.96021683 -202.68829346 230.33004761 C-202.88480104 225.46363293 -203.03130634 220.59768329 -203.13964844 215.72851562 C-203.2129454 213.16895965 -203.32208216 210.61016811 -203.46777344 208.05371094 C-203.67578969 204.34296947 -203.76359271 200.64537384 -203.828125 196.9296875 C-203.91475403 195.79908905 -204.00138306 194.6684906 -204.09063721 193.50363159 C-204.07257018 189.65974756 -203.64130442 187.49794847 -202 184 C-193.13324977 175.36570974 -182.12737672 171.60463708 -170.02009583 171.63137817 C-168.33807971 171.67027881 -166.65608833 171.71026125 -164.97412109 171.7512207 C-163.14883108 171.75433348 -161.32352735 171.75256245 -159.49824524 171.74635315 C-154.60359171 171.74323219 -149.71198099 171.80731068 -144.81802702 171.88466668 C-139.6813068 171.95403368 -134.5444955 171.9599395 -129.40737915 171.97294617 C-119.70688156 172.00696118 -110.00776857 172.09698642 -100.30787718 172.20779055 C-87.18132594 172.3544419 -74.05438862 172.41324973 -60.92722321 172.47731495 C-40.28378095 172.58034989 -19.64325871 172.79959967 1 173 C0.67 115.91 0.34 58.82 0 0 Z " fill="#0F3F92" transform="translate(230,7)"/>
<path d="M0 0 C0.37408701 23.2957452 0.6560631 46.59099399 0.82899475 69.88913536 C0.91143274 80.7075489 1.02377358 91.52409438 1.20703125 102.34130859 C1.36672208 111.77194621 1.46977873 121.20123105 1.50541592 130.63318312 C1.52624473 135.62630395 1.57501821 140.61555572 1.69168091 145.60743332 C1.80073147 150.31194174 1.83371108 155.01101108 1.8097229 159.71666336 C1.81410659 161.4382009 1.84570738 163.1599297 1.9072876 164.88037109 C2.26813842 175.48679838 2.26813842 175.48679838 0 180 C-3.93759413 184.15242076 -8.99538163 186.62115556 -14.10501289 189.04915738 C-16.68124952 190.34182875 -18.94670969 191.96308879 -21.25 193.6875 C-35.6875 204 -35.6875 204 -40 204 C-40.65580941 180.69608 -41.14864467 157.39369187 -41.45074081 134.08239841 C-41.59478387 123.25645561 -41.79087675 112.43626272 -42.11230469 101.61401367 C-42.39254047 92.17412596 -42.57227712 82.73840074 -42.63447785 73.2944693 C-42.67082373 68.29702289 -42.75527004 63.31147488 -42.96044159 58.317873 C-44.13038353 28.71276312 -44.13038353 28.71276312 -38.75094032 21.27241659 C-32.42456286 14.49320187 -23.87187627 10.78390632 -15.39832306 7.42413139 C-11.2747282 5.69606117 -7.62279538 3.51113807 -3.87466049 1.09113407 C-2 0 -2 0 0 0 Z " fill="#6599E6" transform="translate(47,0)"/>
<path d="M0 0 C11.22 0 22.44 0 34 0 C40.74916278 22.13725391 40.74916278 22.13725391 43.9375 32.8125 C46.26944793 40.61759702 48.65908574 48.40413535 51.0625 56.1875 C53.76254402 64.93368221 56.4166067 73.68999951 58.96875 82.48046875 C60.10067075 86.34357708 61.29143487 90.18597072 62.51953125 94.01953125 C63 96 63 96 63 100 C54.75 100 46.5 100 38 100 C36.02 93.07 34.04 86.14 32 79 C17.15 78.505 17.15 78.505 2 78 C0.72804234 83.74352061 0.72804234 83.74352061 -0.54272461 89.48730469 C-0.70264893 90.20821289 -0.86257324 90.92912109 -1.02734375 91.671875 C-1.18968506 92.4050293 -1.35202637 93.13818359 -1.51928711 93.89355469 C-1.98528616 95.93552511 -2.49201677 97.96806708 -3 100 C-11.25 100 -19.5 100 -28 100 C-26.6996882 93.49844102 -25.33755491 87.25858053 -23.49389648 80.92602539 C-23.25137146 80.08082336 -23.00884644 79.23562134 -22.75897217 78.36480713 C-21.96686929 75.60796328 -21.16906529 72.85280654 -20.37109375 70.09765625 C-19.81550625 68.16867059 -19.26025969 66.23958671 -18.70533752 64.31040955 C-17.25114739 59.25866558 -15.79200941 54.20836361 -14.33190918 49.1583252 C-13.13796687 45.02572374 -11.94753959 40.89211375 -10.75729275 36.75844669 C-9.33801447 31.82952651 -7.91731777 26.90101571 -6.49609375 21.97265625 C-6.22496702 21.03246202 -5.95384029 20.0922678 -5.6744976 19.12358284 C-4.90932097 16.47157467 -4.14320219 13.8198408 -3.37670898 11.16821289 C-3.14967789 10.38119492 -2.92264679 9.59417694 -2.68873596 8.78330994 C-1.83647625 5.83806774 -0.96969718 2.90909155 0 0 Z " fill="#FBFCFF" transform="translate(121,40)"/>
<path d="M0 0 C19 0 19 0 25 3 C29.61653661 8.11562165 30.22754466 11.51021007 30.3125 18.25 C30.34150391 19.00152344 30.37050781 19.75304687 30.40039062 20.52734375 C30.46061646 25.83648288 29.51611954 28.79456926 26 33 C16.88068971 39.88600981 13.5906817 38 0 38 C0 25.46 0 12.92 0 0 Z " fill="#F3F5F9" transform="translate(125,198)"/>
<path d="M0 0 C4.62 0 9.24 0 14 0 C14.43699219 1.51013672 14.43699219 1.51013672 14.8828125 3.05078125 C17.50245695 12.05236003 20.23022109 21.00989677 23.11962891 29.92895508 C25 35.78798399 25 35.78798399 25 38 C21.7 38 18.4 38 15 38 C13.50178941 34.62902617 13 32.79557881 13 29 C9.04 29 5.08 29 1 29 C0.67 31.97 0.34 34.94 0 38 C-3.3 38 -6.6 38 -10 38 C-8.47856668 29.62410921 -6.25589505 21.54407805 -3.875 13.375 C-3.49832456 12.07172243 -3.12201995 10.76833763 -2.74609375 9.46484375 C-1.83436063 6.30884448 -0.91768455 3.15427388 0 0 Z " fill="#F3F5F9" transform="translate(96,198)"/>
<path d="M0 0 C2.23394082 1.48192114 4.06181259 3.28056259 5.953125 5.171875 C6.35076763 7.16008813 6.69087849 9.16131839 6.953125 11.171875 C3.983125 11.171875 1.013125 11.171875 -2.046875 11.171875 C-2.706875 9.851875 -3.366875 8.531875 -4.046875 7.171875 C-6.686875 7.171875 -9.326875 7.171875 -12.046875 7.171875 C-12.12915029 9.59428829 -12.12915029 9.59428829 -11.046875 12.171875 C-8.53231271 13.44716017 -6.32240482 14.3697505 -3.671875 15.234375 C4.91784796 18.1164531 4.91784796 18.1164531 6.953125 22.171875 C7.8357221 26.6166658 7.52284632 30.18013789 5.265625 34.109375 C0.11499948 38.70317614 -5.3090364 38.59716317 -11.9375 38.4921875 C-16.22875488 38.05012356 -17.97493883 37.16078587 -21.046875 34.171875 C-23.12694922 31.1463125 -23.046875 30.02712391 -23.046875 26.171875 C-20.076875 26.171875 -17.106875 26.171875 -14.046875 26.171875 C-13.386875 27.491875 -12.726875 28.811875 -12.046875 30.171875 C-9.406875 30.171875 -6.766875 30.171875 -4.046875 30.171875 C-3.716875 28.521875 -3.386875 26.871875 -3.046875 25.171875 C-3.69914062 24.91792969 -4.35140625 24.66398437 -5.0234375 24.40234375 C-19.0305444 18.88627068 -19.0305444 18.88627068 -22.046875 15.171875 C-22.97089751 10.72657752 -22.61550005 7.12635276 -20.296875 3.234375 C-14.88268854 -1.72862926 -6.88208337 -2.78435434 0 0 Z " fill="#F5F7FA" transform="translate(183.046875,197.828125)"/>
<path d="M0 0 C0.66 0 1.32 0 2 0 C4.49562473 10.36146414 6.97310655 20.72697774 9.3125 31.125 C9.56918457 32.25107666 9.56918457 32.25107666 9.83105469 33.39990234 C10.48471673 36.33322777 11 38.98419643 11 42 C4.4 42 -2.2 42 -9 42 C-7.875 34.125 -7.875 34.125 -7.15209961 30.99243164 C-6.91196388 29.94213524 -6.91196388 29.94213524 -6.66697693 28.87062073 C-6.49714798 28.14116745 -6.32731903 27.41171417 -6.15234375 26.66015625 C-5.88811363 25.50972084 -5.88811363 25.50972084 -5.61854553 24.33604431 C-5.06089519 21.91089866 -4.49926552 19.48669533 -3.9375 17.0625 C-3.55637621 15.40826402 -3.17551424 13.7539677 -2.79492188 12.09960938 C-1.86630664 8.0657023 -0.93412391 4.03263484 0 0 Z " fill="#1F70FF" transform="translate(137,58)"/>
<path d="M0 0 C0.66 0.33 1.32 0.66 2 1 C1.67 60.07 1.34 119.14 1 180 C1.66 180.33 2.32 180.66 3 181 C1.68 181.33 0.36 181.66 -1 182 C-1.02332634 158.41780371 -1.04097787 134.83560915 -1.05181217 111.25340366 C-1.05697569 100.30459267 -1.06401946 89.35578883 -1.07543945 78.40698242 C-1.08538458 68.86767269 -1.09185302 59.32836815 -1.09408849 49.78905338 C-1.09539589 44.73475977 -1.09848358 39.68048097 -1.10573006 34.62619209 C-1.11248757 29.87471216 -1.11461751 25.12325323 -1.11310768 20.37176895 C-1.11338413 18.62256316 -1.11539084 16.8733567 -1.11920547 15.12415504 C-1.12413854 12.74664852 -1.12299974 10.36922264 -1.12025452 7.99171448 C-1.12316736 7.29036568 -1.1260802 6.58901688 -1.12908131 5.86641508 C-1.11412121 1.11412121 -1.11412121 1.11412121 0 0 Z " fill="#90B4EB" transform="translate(8,22)"/>
<path d="M0 0 C7 0 7 0 8.91015625 0.97265625 C10.6972722 4.29707624 10.4714767 7.7587498 10.4375 11.4375 C10.45748047 12.20126953 10.47746094 12.96503906 10.49804688 13.75195312 C10.49487773 17.39330255 10.3697378 19.43271907 8.34765625 22.53515625 C6 24 6 24 0 24 C0 16.08 0 8.16 0 0 Z " fill="#0D3D91" transform="translate(135,205)"/>
<path d="M0 0 C0.66 0 1.32 0 2 0 C3.26305335 5.07476794 4.27036084 9.72796354 4 15 C1.69 15 -0.62 15 -3 15 C-2.01 10.05 -1.02 5.1 0 0 Z " fill="#1E4B99" transform="translate(102,205)"/>
</svg>
