<?xml version="1.0" encoding="UTF-8"?>
<svg version="1.1" xmlns="http://www.w3.org/2000/svg" width="512" height="512">
<path d="M0 0 C3.2709505 1.63547525 5.47248901 3.0448468 8.25 5.3125 C9.12914062 6.02664062 10.00828125 6.74078125 10.9140625 7.4765625 C11.93242187 8.30929688 12.95078125 9.14203125 14 10 C15.21573215 10.98748868 16.43190242 11.97443815 17.6484375 12.9609375 C21.06921196 15.73572697 24.48667483 18.51456246 27.90332031 21.29443359 C31.26762714 24.03116479 34.63388328 26.7654955 38 29.5 C39.3333433 30.58332107 40.66667662 31.66665442 42 32.75 C42.66 33.28625 43.32 33.8225 44 34.375 C46 36 48 37.625 50 39.25 C50.66040283 39.78657227 51.32080566 40.32314453 52.0012207 40.87597656 C53.33050495 41.95603016 54.65976937 43.03610817 55.98901367 44.11621094 C59.38413329 46.87492773 62.77962852 49.63318009 66.17578125 52.390625 C72.83152992 57.79529309 79.48063627 63.20760639 86.11328125 68.640625 C91.70456154 73.21049414 97.313385 77.7588169 102.91943359 82.31054688 C106.28025428 85.03958691 109.6400889 87.76984025 113 90.5 C114.33332835 91.58333946 115.66666169 92.66667279 117 93.75 C189 152.25 189 152.25 191.00317383 153.87768555 C192.32578813 154.95223892 193.64854023 156.0266227 194.97143555 157.10083008 C198.46996605 159.94206353 201.96549008 162.78689903 205.45703125 165.63671875 C206.18599609 166.23097656 206.91496094 166.82523438 207.66601562 167.4375 C209.06533495 168.57834633 210.46381418 169.72022409 211.86132812 170.86328125 C212.49103516 171.37632812 213.12074219 171.889375 213.76953125 172.41796875 C214.32229736 172.86938232 214.87506348 173.3207959 215.44458008 173.78588867 C216.90951739 174.92937215 218.45372999 175.96915333 220 177 C219.43585465 180.32051245 218.60503243 181.71043592 215.96484375 183.77734375 C215.32869141 184.28394531 214.69253906 184.79054688 214.03710938 185.3125 C212.99780273 186.116875 212.99780273 186.116875 211.9375 186.9375 C210.4672446 188.10260806 208.99719821 189.26797991 207.52734375 190.43359375 C206.77308105 191.02640137 206.01881836 191.61920898 205.24169922 192.22998047 C201.79745387 194.94951638 198.39994408 197.7254397 195 200.5 C193.66692103 201.58364632 192.33358679 202.66697868 191 203.75 C190.34 204.28625 189.68 204.8225 189 205.375 C139 246 89 286.625 39 327.25 C38.3395166 327.78665283 37.6790332 328.32330566 36.99853516 328.8762207 C35.67012449 329.95553408 34.34167421 331.0347987 33.01318359 332.11401367 C29.60420077 334.88344623 26.19598824 337.65381835 22.7890625 340.42578125 C19.45529115 343.1378902 16.11959776 345.84761145 12.78173828 348.5546875 C11.63639148 349.48377123 10.4914966 350.41341251 9.34716797 351.34375 C7.92094774 352.50246907 6.49184516 353.65763791 5.0625 354.8125 C4.29035156 355.43769531 3.51820313 356.06289063 2.72265625 356.70703125 C1 358 1 358 0 358 C0 330.94 0 303.88 0 276 C-53.79 276 -107.58 276 -163 276 C-163 211.65 -163 147.3 -163 81 C-109.21 81 -55.42 81 0 81 C0 54.27 0 27.54 0 0 Z " fill="#41A4F4" transform="translate(292,77)"/>
<path d="M0 0 C126.06 0 252.12 0 382 0 C380.68948556 3.93154331 378.19434204 5.41565991 375 7.8125 C373.71470405 8.79890543 372.43091539 9.78727718 371.1484375 10.77734375 C370.47006836 11.30054199 369.79169922 11.82374023 369.09277344 12.36279297 C365.54957001 15.13469243 362.08864661 18.00474614 358.625 20.875 C351.11174107 27.08924149 343.55777452 33.25098092 335.98388672 39.39111328 C332.65393553 42.09162747 329.3271353 44.79601795 326 47.5 C324.6666816 48.58335171 323.33334827 49.66668505 322 50.75 C321.34 51.28625 320.68 51.8225 320 52.375 C280.66666667 84.33333333 241.33333333 116.29166667 202 148.25 C201.3395166 148.78665283 200.6790332 149.32330566 199.99853516 149.8762207 C198.67012449 150.95553408 197.34167421 152.0347987 196.01318359 153.11401367 C192.60420077 155.88344623 189.19598824 158.65381835 185.7890625 161.42578125 C182.45529115 164.1378902 179.11959776 166.84761145 175.78173828 169.5546875 C174.63639148 170.48377123 173.4914966 171.41341251 172.34716797 172.34375 C170.92094774 173.50246907 169.49184516 174.65763791 168.0625 175.8125 C167.29035156 176.43769531 166.51820313 177.06289063 165.72265625 177.70703125 C164 179 164 179 163 179 C163 151.94 163 124.88 163 97 C109.21 97 55.42 97 0 97 C0 64.99 0 32.98 0 0 Z " fill="#1E88E5" transform="translate(129,256)"/>
<path d="M0 0 C4.45146251 2.18526342 7.18885145 4.9394521 10 9 C11.15477483 12.46432448 11.13174403 15.15590202 11.14044189 18.81221008 C11.14341302 19.50882742 11.14638414 20.20544475 11.1494453 20.9231717 C11.15813342 23.26300222 11.15964064 25.60278157 11.16113281 27.94262695 C11.16576091 29.61804311 11.17078555 31.2934582 11.17617798 32.96887207 C11.1893048 37.52473671 11.19574748 42.08058662 11.20018864 46.63646722 C11.2031189 49.48235476 11.20722362 52.32823826 11.21169281 55.17412376 C11.22536847 64.07697414 11.2350348 72.97981531 11.2388947 81.88267547 C11.24337581 92.16208545 11.26092588 102.44136248 11.2898953 112.72073203 C11.31150666 120.66477237 11.32159869 128.60877528 11.32293582 136.5528447 C11.32398424 141.29821931 11.32989984 146.04346896 11.34775543 150.78881264 C11.36422668 155.25313732 11.36639624 159.71724299 11.35761642 164.18158722 C11.35684554 165.81904626 11.36119552 167.45651703 11.37107468 169.09394646 C11.38378349 171.33183802 11.37792376 173.56895261 11.36749268 175.80683899 C11.36895924 177.05842458 11.3704258 178.31001017 11.3719368 179.59952259 C10.89040411 184.00199376 9.50322881 187.38967092 6.46484375 190.64453125 C0.23123388 195.41140939 -4.20194201 195.72468864 -12 195 C-16.92502359 192.7133819 -19.39629043 189.72525071 -22 185 C-23.04472135 181.0366307 -23.12801909 177.26921106 -23.13371277 173.18179321 C-23.13597833 172.50867391 -23.13824388 171.83555461 -23.14057809 171.14203775 C-23.14689217 168.89366511 -23.1460904 166.64535316 -23.14526367 164.39697266 C-23.14825677 162.78199689 -23.15165965 161.16702184 -23.15544128 159.55204773 C-23.16426989 155.16977833 -23.16661891 150.78752846 -23.16725707 146.40525103 C-23.16796819 143.66621606 -23.17010368 140.92718605 -23.17275429 138.18815231 C-23.18200375 128.62933792 -23.18608965 119.07053747 -23.18530273 109.51171875 C-23.18470196 100.60660872 -23.19525476 91.70155926 -23.2110464 82.79646456 C-23.22412856 75.14620861 -23.22948635 67.49597244 -23.22884732 59.84570539 C-23.22859255 55.27865238 -23.23143262 50.71165321 -23.24202538 46.14461136 C-23.25171778 41.84854876 -23.2517777 37.55259138 -23.24450874 33.25652504 C-23.24346434 31.68237847 -23.24581721 30.10822532 -23.2518692 28.53409004 C-23.25961269 26.37999514 -23.25492902 24.22626147 -23.24723816 22.07217407 C-23.24778293 20.86835398 -23.24832769 19.66453388 -23.24888897 18.42423439 C-22.8000817 12.24950796 -21.42384696 7.42384696 -17 3 C-11.76515552 -0.70269487 -6.19051909 -0.83032298 0 0 Z " fill="#1E87E5" transform="translate(87,158)"/>
<path d="M0 0 C3.48832821 3.1480035 6.06419243 5.8175773 7.5625 10.3125 C7.6611517 12.5815757 7.69753899 14.8534973 7.70294189 17.12471008 C7.70591302 17.82132742 7.70888414 18.51794475 7.7119453 19.2356717 C7.72063342 21.57550222 7.72214064 23.91528157 7.72363281 26.25512695 C7.72826091 27.93054311 7.73328555 29.6059582 7.73867798 31.28137207 C7.7518048 35.83723671 7.75824748 40.39308662 7.76268864 44.94896722 C7.7656189 47.79485476 7.76972362 50.64073826 7.77419281 53.48662376 C7.78786847 62.38947414 7.7975348 71.29231531 7.8013947 80.19517547 C7.80587581 90.47458545 7.82342588 100.75386248 7.8523953 111.03323203 C7.87400666 118.97727237 7.88409869 126.92127528 7.88543582 134.8653447 C7.88648424 139.61071931 7.89239984 144.35596896 7.91025543 149.10131264 C7.92672668 153.56563732 7.92889624 158.02974299 7.92011642 162.49408722 C7.91934554 164.13154626 7.92369552 165.76901703 7.93357468 167.40644646 C7.94628349 169.64433802 7.94042376 171.88145261 7.92999268 174.11933899 C7.93145924 175.37092458 7.9329258 176.62251017 7.9344368 177.91202259 C7.45290411 182.31449376 6.06572881 185.70217092 3.02734375 188.95703125 C-3.20626612 193.72390939 -7.63944201 194.03718864 -15.4375 193.3125 C-20.41221624 191.00281032 -22.76019261 188.03502343 -25.4375 183.3125 C-25.94365788 179.86072636 -25.94365788 179.86072636 -25.9521637 175.99440002 C-25.95910922 175.27959077 -25.96605475 174.56478152 -25.97321075 173.82831138 C-25.9914373 171.44454524 -25.98122928 169.06177924 -25.97094727 166.67797852 C-25.97800799 164.96432757 -25.98675365 163.25068287 -25.99705505 161.53704834 C-26.01954196 156.89028526 -26.01661093 152.24386291 -26.00773358 147.59706616 C-26.00262055 143.71531871 -26.00991884 139.8336351 -26.01720566 135.95189422 C-26.03420252 126.79331208 -26.03064104 117.63489656 -26.01391602 108.47631836 C-25.99699403 99.0331106 -26.01283076 89.59036507 -26.0451389 80.1472078 C-26.07184333 72.03405864 -26.07910851 63.92105329 -26.07062382 55.80786461 C-26.06569719 50.96464049 -26.06789593 46.12169448 -26.08841133 41.27850533 C-26.10678189 36.72368561 -26.10079311 32.16953022 -26.07621193 27.61474609 C-26.0712084 25.94546273 -26.07468195 24.27612863 -26.08736038 22.60688591 C-26.18650084 8.42992503 -26.18650084 8.42992503 -23.06211853 3.885849 C-16.61955636 -2.43086359 -8.22566092 -4.03805173 0 0 Z " fill="#1D88E5" transform="translate(25.4375,159.6875)"/>
</svg>
