<?xml version="1.0" encoding="UTF-8"?>
<svg version="1.1" xmlns="http://www.w3.org/2000/svg" width="512" height="512">
<path d="M0 0 C1.23826779 -0.01408715 1.23826779 -0.01408715 2.50155109 -0.02845889 C3.40318692 -0.03373149 4.30482274 -0.03900408 5.23378086 -0.04443645 C6.19582811 -0.05375767 7.15787537 -0.06307888 8.14907557 -0.07268256 C11.3815171 -0.10249157 14.61396584 -0.12504463 17.84646702 -0.1473875 C20.16091215 -0.16674591 22.47535508 -0.18637005 24.78979588 -0.20624065 C45.92632826 -0.37966892 67.06356244 -0.47340663 88.20066071 -0.54730988 C91.02969968 -0.55737743 93.85873792 -0.56762849 96.68777561 -0.57805157 C97.39087927 -0.58063379 98.09398293 -0.58321601 98.81839276 -0.58587649 C110.19408656 -0.62895186 121.56898038 -0.71734148 132.94424229 -0.82340149 C144.63664562 -0.93150935 156.32863446 -0.99376882 168.02152544 -1.0131647 C174.58142797 -1.02592187 181.13972655 -1.0592216 187.6991415 -1.14275837 C193.87622525 -1.2205999 200.05092766 -1.24126401 206.22843647 -1.21901798 C208.4887365 -1.22071561 210.74913274 -1.24279482 213.0089941 -1.28735638 C231.83700796 -1.63946341 231.83700796 -1.63946341 238.8026939 4.31695682 C241.33126282 6.79822226 243.5701553 9.43717518 245.84280491 12.15656757 C247.54571868 13.747639 249.270481 15.31617902 251.03030491 16.84406757 C251.83081272 17.56207539 252.63132053 18.2800832 253.45608616 19.01984882 C254.24370335 19.72496601 255.03132053 20.4300832 255.84280491 21.15656757 C261.7208343 26.4268524 267.56780876 31.72888942 273.38137913 37.07014179 C276.51911604 39.95050586 279.67284309 42.81173004 282.84280491 45.65656757 C286.53110981 48.96658479 290.19346256 52.30371258 293.84280491 55.65656757 C299.14402414 60.52599803 304.48385302 65.35079781 309.84280491 70.15656757 C318.75592195 78.14962092 318.75592195 78.14962092 322.96389866 82.02766132 C323.49450901 82.51637714 324.02511936 83.00509296 324.57180882 83.50861835 C326.07633076 84.89623018 327.57876692 86.28610251 329.08108616 87.67609882 C331.76524497 90.16729599 331.76524497 90.16729599 334.57327366 92.16828632 C337.54007272 94.76742698 338.63293157 97.08484293 339.03439808 101.04784298 C339.12895071 103.36241455 339.15557662 105.66940694 339.16165257 107.98591328 C339.17169819 108.86446476 339.18174381 109.74301624 339.19209385 110.6481905 C339.22290614 113.54290348 339.23995561 116.43752405 339.25686741 119.33234882 C339.27558062 121.34303297 339.29515415 123.35370927 339.31555271 125.36437702 C339.36686367 130.64969478 339.40649503 135.93503799 339.44369602 141.22047138 C339.48374209 146.61655183 339.53483171 152.01252647 339.58499241 157.4085207 C339.68173948 167.99112865 339.76614825 178.57379636 339.84280491 189.15656757 C340.83280491 189.15656757 341.82280491 189.15656757 342.84280491 189.15656757 C344.47494751 187.08464461 345.87731586 185.06583836 347.28030491 182.84406757 C347.71568577 182.17254658 348.15106663 181.50102558 348.59964085 180.80915546 C350.02654312 178.59937564 351.43618408 176.37930513 352.84280491 174.15656757 C353.30896214 173.42373554 353.77511936 172.69090351 354.25540257 171.93586445 C356.73084191 168.0426038 359.19337318 164.14142387 361.64749241 160.23469257 C365.56452463 154.00139672 369.51928608 147.79225794 373.47708225 141.58479023 C376.51670817 136.81637184 379.5476172 132.04283517 382.56155491 127.25813007 C385.95790237 121.87089796 389.39035724 116.5079751 392.84280491 111.15656757 C393.24724827 110.5202541 393.65169163 109.88394062 394.06839085 109.22834492 C399.16346784 101.27218622 404.76998639 96.18084041 413.84280491 93.15656757 C428.02130216 92.10821808 436.87837687 94.93512436 448.13186741 103.71516132 C454.06306329 109.05665618 458.33627905 115.709855 459.24905491 123.72297382 C459.47691041 133.43531451 458.21779516 139.80977632 452.84280491 148.15656757 C452.48363987 148.71634296 452.12447483 149.27611835 451.754426 149.85285664 C449.72525355 152.99441195 447.64775638 156.09980095 445.53811741 159.18781757 C442.80112543 163.1970444 440.15790229 167.26256151 437.53030491 171.34406757 C436.60724431 172.7751323 435.68406477 174.20612031 434.76077366 175.63703632 C434.05186985 176.73604267 434.05186985 176.73604267 433.32864475 177.85725117 C430.67559731 181.96280504 428.00838839 186.05914679 425.34280491 190.15656757 C424.2476898 191.84142244 423.15263731 193.52631802 422.05764866 195.21125507 C420.47031677 197.6536718 418.88244011 200.09572286 417.29251194 202.53645039 C412.00027658 210.66069127 406.72344295 218.77504993 401.84280491 227.15656757 C402.93419773 227.56975239 402.93419773 227.56975239 404.04763889 227.99128437 C408.58274508 229.88193524 412.69177796 232.45674833 416.90530491 234.96906757 C417.80313694 235.49049335 418.70096897 236.01191914 419.62600803 236.5491457 C424.2071897 239.2774182 427.86776516 241.59803893 430.84280491 246.15656757 C431.23467991 246.75469257 431.62655491 247.35281757 432.03030491 247.96906757 C434.39700948 254.3409645 434.08878038 259.80788676 431.84280491 266.15656757 C430.30401903 269.25920099 428.49955233 272.16498627 426.65530491 275.09406757 C425.55851566 276.87895654 424.46218207 278.66412557 423.36624241 280.44953632 C422.49950901 281.8501833 422.49950901 281.8501833 421.61526585 283.27912617 C418.62762353 288.12931245 415.70671527 293.01928187 412.78030491 297.90656757 C411.85725559 299.44353291 411.85725559 299.44353291 410.91555882 301.01154804 C406.84419468 307.79509713 402.80015143 314.594279 398.77085972 321.40287495 C395.53191678 326.87546915 392.28248534 332.34174066 389.02583408 337.80381489 C386.88620494 341.39452006 384.7660717 344.9957124 382.65921116 348.60578632 C381.80478256 350.04000025 380.9494382 351.47366938 380.09280491 352.90656757 C379.57496433 353.81644428 379.57496433 353.81644428 379.04666233 354.74470234 C376.05306549 359.66927504 372.18360747 362.25554552 366.61233616 363.75813007 C357.89004944 363.8625886 350.82122583 359.04157868 343.64968967 354.54401875 C342.57776119 353.87229885 342.57776119 353.87229885 341.48417759 353.18700886 C340.67169811 352.67694042 340.67169811 352.67694042 339.84280491 352.15656757 C339.83067463 353.77363354 339.83067463 353.77363354 339.81829929 355.4233675 C339.74057466 365.61833095 339.65277045 375.81316525 339.55527782 386.00795937 C339.50548358 391.24830547 339.4591529 396.48863305 339.42092991 401.72907734 C339.38386293 406.79311904 339.33744678 411.85699907 339.2847414 416.9209013 C339.26631061 418.84600372 339.25116163 420.77114065 339.23946095 422.69629574 C339.13839861 438.75982849 338.63397125 453.03320087 328.59280491 466.46906757 C317.9024925 476.91641833 306.65124981 480.77606565 291.8766489 480.67123127 C290.61460491 480.6781768 289.35256091 480.68512233 288.05227315 480.69227833 C284.57900005 480.71078135 281.10615691 480.70464391 277.63286686 480.69412529 C273.87541162 480.68709781 270.1180416 480.70315804 266.36061192 480.71612263 C259.01100218 480.73770933 251.6615476 480.73764938 244.3119166 480.72949708 C238.33496786 480.7231841 232.3580642 480.724346 226.38111591 480.73076916 C225.52877308 480.73167081 224.67643024 480.73257247 223.79825883 480.73350145 C222.0664372 480.73535275 220.33461558 480.73721531 218.60279398 480.739089 C202.38080515 480.75564914 186.15890343 480.74696375 169.93691985 480.73010343 C155.11534679 480.71541066 140.29397653 480.73003204 125.47242959 480.75887359 C110.23151923 480.78830894 94.99070233 480.79922765 79.7497648 480.78969139 C78.02388503 480.7886689 76.29800524 480.78767429 74.57212543 480.78670788 C73.29857151 480.78599329 73.29857151 480.78599329 71.99928922 480.78526427 C66.03502921 480.78310546 60.07085822 480.79287584 54.10661793 480.8074789 C46.83005991 480.82504746 39.55376023 480.82482044 32.27721216 480.80212725 C28.5691291 480.7910254 24.86150043 480.78772922 21.15343761 480.80642796 C17.12289816 480.82649026 13.09345426 480.80735777 9.0629282 480.78475666 C7.90599543 480.79659239 6.74906266 480.80842812 5.55707133 480.8206225 C-6.52038568 480.68367057 -16.35715814 476.98050992 -25.00485134 468.47297382 C-35.80146987 456.85338255 -37.75623165 445.62727339 -37.66512966 430.19074726 C-37.66974447 428.48142053 -37.67610126 426.77209777 -37.68403864 425.06278324 C-37.70067551 420.38851218 -37.69251135 415.71456946 -37.68009377 411.04029751 C-37.67102244 405.99044967 -37.68502333 400.94065724 -37.69601345 395.8908205 C-37.71378102 386.00720228 -37.70996652 376.12370569 -37.69836289 366.24008274 C-37.68932192 358.20600863 -37.68810744 350.17196856 -37.69245815 342.13789082 C-37.69307108 340.9935576 -37.69368402 339.84922439 -37.69431552 338.67021441 C-37.69559445 336.34537632 -37.6968913 334.02053824 -37.69820589 331.69570017 C-37.70960653 309.90605077 -37.69650606 288.11646874 -37.67500442 266.32683039 C-37.65713393 247.63853197 -37.66023818 228.95033295 -37.67867947 210.26203632 C-37.70009527 188.54927783 -37.70850794 166.83657835 -37.69623041 145.12381077 C-37.69495624 142.80762197 -37.69369876 140.49143315 -37.69245815 138.17524433 C-37.69184105 137.03569538 -37.69122395 135.89614643 -37.69058815 134.72206569 C-37.68713739 126.69952682 -37.6929577 118.67702544 -37.70237637 110.65449238 C-37.71360559 100.87499523 -37.7105368 91.09562647 -37.68925339 81.31614399 C-37.67875549 76.32842666 -37.67459973 71.34092324 -37.68785 66.35320759 C-37.69980573 61.78361042 -37.69315901 57.21442463 -37.67193979 52.64486456 C-37.66748719 50.99561832 -37.66970969 49.34633704 -37.67944294 47.69711351 C-37.75040407 34.66968888 -36.00435998 24.22476975 -27.15719509 14.15656757 C-26.65574978 13.5507082 -26.15430447 12.94484882 -25.63766384 12.32063007 C-19.27401747 5.22926745 -9.63691564 0.08297569 0 0 Z " fill="#FEFEFE" transform="translate(45.15719509124756,15.843432426452637)"/>
<path d="M0 0 C1.23826779 -0.01408715 1.23826779 -0.01408715 2.50155109 -0.02845889 C3.40318692 -0.03373149 4.30482274 -0.03900408 5.23378086 -0.04443645 C6.19582811 -0.05375767 7.15787537 -0.06307888 8.14907557 -0.07268256 C11.3815171 -0.10249157 14.61396584 -0.12504463 17.84646702 -0.1473875 C20.16091215 -0.16674591 22.47535508 -0.18637005 24.78979588 -0.20624065 C45.92632826 -0.37966892 67.06356244 -0.47340663 88.20066071 -0.54730988 C91.02969968 -0.55737743 93.85873792 -0.56762849 96.68777561 -0.57805157 C97.39087927 -0.58063379 98.09398293 -0.58321601 98.81839276 -0.58587649 C110.19408656 -0.62895186 121.56898038 -0.71734148 132.94424229 -0.82340149 C144.63664562 -0.93150935 156.32863446 -0.99376882 168.02152544 -1.0131647 C174.58142797 -1.02592187 181.13972655 -1.0592216 187.6991415 -1.14275837 C193.87622525 -1.2205999 200.05092766 -1.24126401 206.22843647 -1.21901798 C208.4887365 -1.22071561 210.74913274 -1.24279482 213.0089941 -1.28735638 C231.83700796 -1.63946341 231.83700796 -1.63946341 238.8026939 4.31695682 C241.33126282 6.79822226 243.5701553 9.43717518 245.84280491 12.15656757 C247.54571868 13.747639 249.270481 15.31617902 251.03030491 16.84406757 C251.83081272 17.56207539 252.63132053 18.2800832 253.45608616 19.01984882 C254.24370335 19.72496601 255.03132053 20.4300832 255.84280491 21.15656757 C261.7208343 26.4268524 267.56780876 31.72888942 273.38137913 37.07014179 C276.51911604 39.95050586 279.67284309 42.81173004 282.84280491 45.65656757 C286.53110981 48.96658479 290.19346256 52.30371258 293.84280491 55.65656757 C299.14402414 60.52599803 304.48385302 65.35079781 309.84280491 70.15656757 C318.75592195 78.14962092 318.75592195 78.14962092 322.96389866 82.02766132 C323.49450901 82.51637714 324.02511936 83.00509296 324.57180882 83.50861835 C326.07633076 84.89623018 327.57876692 86.28610251 329.08108616 87.67609882 C331.76524497 90.16729599 331.76524497 90.16729599 334.57327366 92.16828632 C337.54007272 94.76742698 338.63293157 97.08484293 339.03439808 101.04784298 C339.12895071 103.36241455 339.15557662 105.66940694 339.16165257 107.98591328 C339.17169819 108.86446476 339.18174381 109.74301624 339.19209385 110.6481905 C339.22290614 113.54290348 339.23995561 116.43752405 339.25686741 119.33234882 C339.27558062 121.34303297 339.29515415 123.35370927 339.31555271 125.36437702 C339.36686367 130.64969478 339.40649503 135.93503799 339.44369602 141.22047138 C339.48374209 146.61655183 339.53483171 152.01252647 339.58499241 157.4085207 C339.68173948 167.99112865 339.76614825 178.57379636 339.84280491 189.15656757 C340.83280491 189.15656757 341.82280491 189.15656757 342.84280491 189.15656757 C344.47494751 187.08464461 345.87731586 185.06583836 347.28030491 182.84406757 C347.71568577 182.17254658 348.15106663 181.50102558 348.59964085 180.80915546 C350.02654312 178.59937564 351.43618408 176.37930513 352.84280491 174.15656757 C353.30896214 173.42373554 353.77511936 172.69090351 354.25540257 171.93586445 C356.73084191 168.0426038 359.19337318 164.14142387 361.64749241 160.23469257 C365.56452463 154.00139672 369.51928608 147.79225794 373.47708225 141.58479023 C376.51670817 136.81637184 379.5476172 132.04283517 382.56155491 127.25813007 C385.95790237 121.87089796 389.39035724 116.5079751 392.84280491 111.15656757 C393.24724827 110.5202541 393.65169163 109.88394062 394.06839085 109.22834492 C399.16346784 101.27218622 404.76998639 96.18084041 413.84280491 93.15656757 C428.02130216 92.10821808 436.87837687 94.93512436 448.13186741 103.71516132 C454.06306329 109.05665618 458.33627905 115.709855 459.24905491 123.72297382 C459.47691041 133.43531451 458.21779516 139.80977632 452.84280491 148.15656757 C452.48363987 148.71634296 452.12447483 149.27611835 451.754426 149.85285664 C449.72525355 152.99441195 447.64775638 156.09980095 445.53811741 159.18781757 C442.80112543 163.1970444 440.15790229 167.26256151 437.53030491 171.34406757 C436.60724431 172.7751323 435.68406477 174.20612031 434.76077366 175.63703632 C434.05186985 176.73604267 434.05186985 176.73604267 433.32864475 177.85725117 C430.67559731 181.96280504 428.00838839 186.05914679 425.34280491 190.15656757 C424.2476898 191.84142244 423.15263731 193.52631802 422.05764866 195.21125507 C420.47031677 197.6536718 418.88244011 200.09572286 417.29251194 202.53645039 C412.00027658 210.66069127 406.72344295 218.77504993 401.84280491 227.15656757 C402.93419773 227.56975239 402.93419773 227.56975239 404.04763889 227.99128437 C408.58274508 229.88193524 412.69177796 232.45674833 416.90530491 234.96906757 C417.80313694 235.49049335 418.70096897 236.01191914 419.62600803 236.5491457 C424.2071897 239.2774182 427.86776516 241.59803893 430.84280491 246.15656757 C431.23467991 246.75469257 431.62655491 247.35281757 432.03030491 247.96906757 C434.39700948 254.3409645 434.08878038 259.80788676 431.84280491 266.15656757 C430.30401903 269.25920099 428.49955233 272.16498627 426.65530491 275.09406757 C425.55851566 276.87895654 424.46218207 278.66412557 423.36624241 280.44953632 C422.49950901 281.8501833 422.49950901 281.8501833 421.61526585 283.27912617 C418.62762353 288.12931245 415.70671527 293.01928187 412.78030491 297.90656757 C411.85725559 299.44353291 411.85725559 299.44353291 410.91555882 301.01154804 C406.84419468 307.79509713 402.80015143 314.594279 398.77085972 321.40287495 C395.53191678 326.87546915 392.28248534 332.34174066 389.02583408 337.80381489 C386.88620494 341.39452006 384.7660717 344.9957124 382.65921116 348.60578632 C381.80478256 350.04000025 380.9494382 351.47366938 380.09280491 352.90656757 C379.57496433 353.81644428 379.57496433 353.81644428 379.04666233 354.74470234 C376.05306549 359.66927504 372.18360747 362.25554552 366.61233616 363.75813007 C357.89004944 363.8625886 350.82122583 359.04157868 343.64968967 354.54401875 C342.57776119 353.87229885 342.57776119 353.87229885 341.48417759 353.18700886 C340.67169811 352.67694042 340.67169811 352.67694042 339.84280491 352.15656757 C339.83067463 353.77363354 339.83067463 353.77363354 339.81829929 355.4233675 C339.74057466 365.61833095 339.65277045 375.81316525 339.55527782 386.00795937 C339.50548358 391.24830547 339.4591529 396.48863305 339.42092991 401.72907734 C339.38386293 406.79311904 339.33744678 411.85699907 339.2847414 416.9209013 C339.26631061 418.84600372 339.25116163 420.77114065 339.23946095 422.69629574 C339.13839861 438.75982849 338.63397125 453.03320087 328.59280491 466.46906757 C317.9024925 476.91641833 306.65124981 480.77606565 291.8766489 480.67123127 C290.61460491 480.6781768 289.35256091 480.68512233 288.05227315 480.69227833 C284.57900005 480.71078135 281.10615691 480.70464391 277.63286686 480.69412529 C273.87541162 480.68709781 270.1180416 480.70315804 266.36061192 480.71612263 C259.01100218 480.73770933 251.6615476 480.73764938 244.3119166 480.72949708 C238.33496786 480.7231841 232.3580642 480.724346 226.38111591 480.73076916 C225.52877308 480.73167081 224.67643024 480.73257247 223.79825883 480.73350145 C222.0664372 480.73535275 220.33461558 480.73721531 218.60279398 480.739089 C202.38080515 480.75564914 186.15890343 480.74696375 169.93691985 480.73010343 C155.11534679 480.71541066 140.29397653 480.73003204 125.47242959 480.75887359 C110.23151923 480.78830894 94.99070233 480.79922765 79.7497648 480.78969139 C78.02388503 480.7886689 76.29800524 480.78767429 74.57212543 480.78670788 C73.29857151 480.78599329 73.29857151 480.78599329 71.99928922 480.78526427 C66.03502921 480.78310546 60.07085822 480.79287584 54.10661793 480.8074789 C46.83005991 480.82504746 39.55376023 480.82482044 32.27721216 480.80212725 C28.5691291 480.7910254 24.86150043 480.78772922 21.15343761 480.80642796 C17.12289816 480.82649026 13.09345426 480.80735777 9.0629282 480.78475666 C7.90599543 480.79659239 6.74906266 480.80842812 5.55707133 480.8206225 C-6.52038568 480.68367057 -16.35715814 476.98050992 -25.00485134 468.47297382 C-35.80146987 456.85338255 -37.75623165 445.62727339 -37.66512966 430.19074726 C-37.66974447 428.48142053 -37.67610126 426.77209777 -37.68403864 425.06278324 C-37.70067551 420.38851218 -37.69251135 415.71456946 -37.68009377 411.04029751 C-37.67102244 405.99044967 -37.68502333 400.94065724 -37.69601345 395.8908205 C-37.71378102 386.00720228 -37.70996652 376.12370569 -37.69836289 366.24008274 C-37.68932192 358.20600863 -37.68810744 350.17196856 -37.69245815 342.13789082 C-37.69307108 340.9935576 -37.69368402 339.84922439 -37.69431552 338.67021441 C-37.69559445 336.34537632 -37.6968913 334.02053824 -37.69820589 331.69570017 C-37.70960653 309.90605077 -37.69650606 288.11646874 -37.67500442 266.32683039 C-37.65713393 247.63853197 -37.66023818 228.95033295 -37.67867947 210.26203632 C-37.70009527 188.54927783 -37.70850794 166.83657835 -37.69623041 145.12381077 C-37.69495624 142.80762197 -37.69369876 140.49143315 -37.69245815 138.17524433 C-37.69184105 137.03569538 -37.69122395 135.89614643 -37.69058815 134.72206569 C-37.68713739 126.69952682 -37.6929577 118.67702544 -37.70237637 110.65449238 C-37.71360559 100.87499523 -37.7105368 91.09562647 -37.68925339 81.31614399 C-37.67875549 76.32842666 -37.67459973 71.34092324 -37.68785 66.35320759 C-37.69980573 61.78361042 -37.69315901 57.21442463 -37.67193979 52.64486456 C-37.66748719 50.99561832 -37.66970969 49.34633704 -37.67944294 47.69711351 C-37.75040407 34.66968888 -36.00435998 24.22476975 -27.15719509 14.15656757 C-26.65574978 13.5507082 -26.15430447 12.94484882 -25.63766384 12.32063007 C-19.27401747 5.22926745 -9.63691564 0.08297569 0 0 Z M-15.15719509 25.15656757 C-21.54383641 34.33988615 -22.01065785 43.15296599 -21.89890957 53.87646198 C-21.90368217 55.54683297 -21.91108122 57.21719813 -21.9208588 58.88754731 C-21.9399936 63.44958179 -21.92197918 68.0108104 -21.89756596 72.57279146 C-21.87775125 77.50329392 -21.89269838 82.43371035 -21.90321255 87.36422443 C-21.91830554 97.01115581 -21.90145619 106.65777764 -21.87366164 116.30467054 C-21.84245038 127.54284617 -21.84272176 138.78095556 -21.84417938 150.01916639 C-21.84567993 170.07113551 -21.81823087 190.12296087 -21.77462673 210.17487812 C-21.73235018 229.62640215 -21.71111526 249.0777997 -21.71310329 268.52937031 C-21.71322316 269.72787521 -21.71334303 270.92638011 -21.71346653 272.16120335 C-21.7135876 273.35765043 -21.71370866 274.55409751 -21.71383339 275.78680056 C-21.71590353 297.94381757 -21.69823149 320.10078091 -21.67137374 342.25778052 C-21.66233027 350.08939788 -21.65913574 357.92100537 -21.65777683 365.75262737 C-21.65572922 375.29573093 -21.642318 384.83874402 -21.61477841 394.3818092 C-21.60094037 399.24975462 -21.59178206 404.11758446 -21.59556103 408.98555088 C-21.59885376 413.44331468 -21.58824504 417.90082309 -21.56661545 422.35853366 C-21.56119032 423.96935166 -21.56077012 425.58019611 -21.56591732 427.19101503 C-21.59707458 438.15761391 -21.07669104 447.4794043 -13.96578884 456.36359882 C-8.05953695 462.21882478 -1.07070446 464.27666129 7.07126331 464.28799534 C8.62972347 464.29375706 8.62972347 464.29375706 10.21966767 464.29963517 C11.92203021 464.29833545 11.92203021 464.29833545 13.65878391 464.29700947 C14.869521 464.29998059 16.08025808 464.30295171 17.32768416 464.30601287 C20.68529502 464.31318573 24.0428547 464.31587161 27.40046954 464.31661034 C31.02295201 464.31846347 34.64542344 464.32601209 38.26789951 464.33274555 C46.18737512 464.34631855 54.10684565 464.35235191 62.02633095 464.35675621 C66.97248854 464.35952023 71.91864418 464.36375786 76.86480045 464.36826038 C90.56290788 464.38045142 104.26101374 464.39075124 117.95912647 464.39413548 C118.83556735 464.39435504 119.71200823 464.39457461 120.61500792 464.39480083 C121.49352784 464.3950191 122.37204776 464.39523738 123.27718949 464.39546227 C125.05736208 464.39590574 126.83753467 464.3963523 128.61770725 464.39680195 C129.50073154 464.39702338 130.38375582 464.39724481 131.29353842 464.39747295 C145.60082031 464.40142075 159.90805125 464.41887495 174.21531346 464.44216147 C188.90906849 464.46588376 203.60279796 464.47833772 218.29657245 464.47950339 C226.5447004 464.48041963 234.79276197 464.48615905 243.04087162 464.50432301 C250.06436765 464.5197358 257.08777677 464.52483749 264.11128649 464.5165849 C267.69317303 464.51268264 271.27488461 464.51358716 274.85674953 464.52764225 C278.74420528 464.54275667 282.63141586 464.53450214 286.51889133 464.52406025 C287.64487681 464.53211665 288.77086228 464.54017306 289.93096852 464.5484736 C299.95143908 464.48554901 308.60634656 462.45608874 315.84280491 455.15656757 C321.30068457 447.47761529 321.99363804 440.58926036 322.09915257 431.41267109 C322.11375523 430.43646809 322.12835789 429.46026508 322.14340305 428.45448017 C322.268991 419.48699946 322.33805778 410.51866457 322.39124584 401.55048943 C322.42708127 395.52847296 322.48060032 389.50778411 322.57669163 383.48640156 C322.66941261 377.65794769 322.71814787 371.83067065 322.73563862 366.00152111 C322.74974239 363.78182921 322.77940337 361.56217937 322.82494068 359.34290981 C322.88558493 356.23715194 322.8896789 353.13608621 322.88040257 350.02985859 C322.911189 349.11486088 322.94197544 348.19986317 322.9736948 347.25713825 C322.93062815 344.60511779 322.79090715 342.63744751 321.84280491 340.15656757 C319.12756975 337.5577386 316.16682344 335.87128084 312.84280491 334.15656757 C311.69018139 333.46359021 310.54113886 332.76459537 309.39700413 332.05769062 C308.32466526 331.4341872 307.25232639 330.81068378 306.14749241 330.16828632 C305.5571471 329.82382465 304.9668018 329.47936298 304.35856724 329.12446308 C303.11579417 328.39963389 301.87232276 327.67600078 300.62817478 326.95353413 C297.38256941 325.0686161 294.14241485 323.17436161 290.90139866 321.28156757 C290.27356983 320.91524723 289.645741 320.54892689 288.99888706 320.17150593 C284.5760312 317.58968661 280.16687199 314.98702808 275.78030491 312.34406757 C274.6910471 311.68793476 273.60178928 311.03180195 272.47952366 310.35578632 C270.43391616 309.11971461 268.3893972 307.88186367 266.34524632 306.64338398 C263.59591116 304.97865344 260.84439042 303.31757524 258.09280491 301.65656757 C257.22131809 301.12700459 256.34983128 300.5974416 255.45193577 300.05183125 C254.63732883 299.56045673 253.8227219 299.06908222 252.98342991 298.56281757 C252.25672092 298.12260273 251.53001194 297.68238789 250.78128147 297.2288332 C248.73187889 296.01821523 248.73187889 296.01821523 245.84280491 295.15656757 C243.55180679 290.32001599 241.86830958 285.5162919 242.84280491 280.15656757 C246.30915354 271.35839262 251.63477453 263.3202409 256.55374241 255.27277851 C258.87932679 251.45494415 261.17068284 247.61656763 263.46780491 243.78156757 C264.49117887 242.07710234 265.51461839 240.37267647 266.53811741 238.66828632 C268.87231644 234.77866065 271.19904055 230.88465307 273.52249241 226.98859882 C279.41039706 217.1247904 285.31860614 207.27435114 291.40530491 197.53156757 C292.10139866 196.40512836 292.10139866 196.40512836 292.81155491 195.25593281 C301.42984628 181.5806404 301.42984628 181.5806404 309.84280491 179.15656757 C314.10993263 178.77900869 317.76286462 178.79658748 321.84280491 180.15656757 C322.14537321 170.32512972 322.37566782 160.49481621 322.51636314 150.65965366 C322.58393013 146.0913482 322.67538478 141.52624965 322.8235178 136.95979023 C322.96585258 132.54391536 323.0427104 128.13110219 323.07620907 123.71310902 C323.10004418 122.03672049 323.14659608 120.36048093 323.21729565 118.68541431 C323.71165529 108.33871848 323.71165529 108.33871848 319.00280857 99.49433613 C315.84528802 96.38440041 312.41622005 93.77067537 308.84280491 91.15656757 C307.49640873 90.00500071 306.1585853 88.84299534 304.84280491 87.65656757 C303.92628147 86.86379414 303.92628147 86.86379414 302.99124241 86.05500507 C299.53008659 82.99660194 296.15536705 79.84507634 292.76736546 76.70612812 C287.83616233 72.14046373 282.84973962 67.63904431 277.84280491 63.15656757 C271.96477552 57.88628274 266.11780106 52.58424573 260.30423069 47.24299335 C256.36487945 43.62676737 252.39354225 40.04774352 248.41311741 36.47688007 C244.54920884 32.9887924 240.72365931 29.45940556 236.89749241 25.93000507 C236.40961359 25.49338216 235.92173476 25.05675925 235.41907173 24.60690534 C234.28878744 23.56692025 233.19424801 22.48756888 232.12515348 21.38477767 C227.88894964 17.23339855 224.95627906 15.35815675 218.9893356 15.23901212 C217.72613968 15.26652742 217.72613968 15.26652742 216.43742466 15.29459858 C215.06462311 15.28245207 215.06462311 15.28245207 213.66408819 15.27006018 C210.61345025 15.25158264 207.5654255 15.28291408 204.51492405 15.31428242 C202.32147224 15.31134403 200.12802271 15.30536593 197.93458652 15.29658222 C191.98801115 15.28177393 186.04236736 15.31056433 180.0959208 15.34801531 C173.86747649 15.38066518 167.6390528 15.3759233 161.41053867 15.37595844 C150.95038911 15.38152143 140.49057387 15.41362902 130.03054905 15.46369648 C119.28212718 15.51511248 108.53397846 15.54346244 97.78543186 15.54572773 C97.12353527 15.54587058 96.46163868 15.54601344 95.77968461 15.54616062 C95.11890208 15.54629924 94.45811954 15.54643786 93.77731329 15.54658067 C80.90117803 15.549508 68.02516762 15.57533556 55.14908004 15.60914755 C51.443965 15.61749718 47.73886249 15.62185049 44.03374004 15.62542057 C38.20515896 15.63234124 32.37683211 15.65481451 26.54835033 15.68919086 C24.41227909 15.69952611 22.2761767 15.70485427 20.14008045 15.70474339 C17.21818103 15.70551422 14.29695781 15.72478993 11.3751688 15.74870014 C10.11531897 15.74275461 10.11531897 15.74275461 8.83001763 15.73668897 C-0.36416835 15.85595346 -8.62948259 18.52633273 -15.15719509 25.15656757 Z " fill="#458AF8" transform="translate(45.15719509124756,15.843432426452637)"/>
<path d="M0 0 C1.23826779 -0.01408715 1.23826779 -0.01408715 2.50155109 -0.02845889 C3.40318692 -0.03373149 4.30482274 -0.03900408 5.23378086 -0.04443645 C6.19582811 -0.05375767 7.15787537 -0.06307888 8.14907557 -0.07268256 C11.3815171 -0.10249157 14.61396584 -0.12504463 17.84646702 -0.1473875 C20.16091215 -0.16674591 22.47535508 -0.18637005 24.78979588 -0.20624065 C45.92632826 -0.37966892 67.06356244 -0.47340663 88.20066071 -0.54730988 C91.02969968 -0.55737743 93.85873792 -0.56762849 96.68777561 -0.57805157 C97.39087927 -0.58063379 98.09398293 -0.58321601 98.81839276 -0.58587649 C110.19408656 -0.62895186 121.56898038 -0.71734148 132.94424229 -0.82340149 C144.63664562 -0.93150935 156.32863446 -0.99376882 168.02152544 -1.0131647 C174.58142797 -1.02592187 181.13972655 -1.0592216 187.6991415 -1.14275837 C193.87622525 -1.2205999 200.05092766 -1.24126401 206.22843647 -1.21901798 C208.4887365 -1.22071561 210.74913274 -1.24279482 213.0089941 -1.28735638 C231.83700796 -1.63946341 231.83700796 -1.63946341 238.8026939 4.31695682 C241.33126282 6.79822226 243.5701553 9.43717518 245.84280491 12.15656757 C247.54571868 13.747639 249.270481 15.31617902 251.03030491 16.84406757 C251.83081272 17.56207539 252.63132053 18.2800832 253.45608616 19.01984882 C254.24370335 19.72496601 255.03132053 20.4300832 255.84280491 21.15656757 C261.7208343 26.4268524 267.56780876 31.72888942 273.38137913 37.07014179 C276.51911604 39.95050586 279.67284309 42.81173004 282.84280491 45.65656757 C286.53110981 48.96658479 290.19346256 52.30371258 293.84280491 55.65656757 C299.14402414 60.52599803 304.48385302 65.35079781 309.84280491 70.15656757 C318.75592195 78.14962092 318.75592195 78.14962092 322.96389866 82.02766132 C323.49450901 82.51637714 324.02511936 83.00509296 324.57180882 83.50861835 C326.07633076 84.89623018 327.57876692 86.28610251 329.08108616 87.67609882 C331.76524497 90.16729599 331.76524497 90.16729599 334.57327366 92.16828632 C337.53950882 94.76693296 338.64977539 97.07777374 339.01842213 101.04784298 C339.08906668 103.36312672 339.09007859 105.66962702 339.06985569 107.98591328 C339.07014774 108.86446476 339.0704398 109.74301624 339.0707407 110.6481905 C339.06935086 113.5430115 339.05380586 116.43757295 339.03811741 119.33234882 C339.03438605 121.34302346 339.03153966 123.35369992 339.02954197 125.36437702 C339.02191518 130.64979311 339.00227483 135.93509882 338.98013401 141.22047138 C338.95965506 146.61647263 338.95053586 152.01249176 338.94046116 157.4085207 C338.91902809 167.99125141 338.88490361 178.57390031 338.84280491 189.15656757 C337.17523791 188.49215615 335.50881334 187.82487749 333.84280491 187.15656757 C332.82666111 186.78565998 331.81051731 186.41475239 330.76358128 186.03260517 C327.17538693 184.4156329 324.64494936 182.93882067 321.84280491 180.15656757 C320.42667851 175.20286498 320.50744548 170.60935797 320.75563145 165.492589 C320.8760087 162.97508203 320.91971847 160.46608823 320.94448948 157.94593525 C321.02147679 151.69381209 321.22766964 145.44719648 321.43087864 139.19813251 C321.59786747 133.91365922 321.71443947 128.63255673 321.76625156 123.34566212 C321.81061931 120.88042809 321.92705754 118.42568067 322.04702854 115.96314716 C322.32018192 107.20206051 322.32018192 107.20206051 318.24319553 99.73701191 C315.33402122 96.87623025 312.16150184 94.52186245 308.84280491 92.15656757 C307.51611997 91.02718839 306.19928807 89.88577142 304.90530491 88.71906757 C304.28526585 88.18152851 303.66522678 87.64398945 303.02639866 87.09016132 C299.55616952 84.01723928 296.16768449 80.85647037 292.7676096 77.70637226 C287.83634837 73.14060115 282.84982522 68.63912095 277.84280491 64.15656757 C271.96477552 58.88628274 266.11780106 53.58424573 260.30423069 48.24299335 C256.36487945 44.62676737 252.39354225 41.04774352 248.41311741 37.47688007 C244.54920884 33.9887924 240.72365931 30.45940556 236.89749241 26.93000507 C236.40961359 26.49338216 235.92173476 26.05675925 235.41907173 25.60690534 C234.28878744 24.56692025 233.19424801 23.48756888 232.12515348 22.38477767 C227.88894964 18.23339855 224.95627906 16.35815675 218.9893356 16.23901212 C217.72613968 16.26652742 217.72613968 16.26652742 216.43742466 16.29459858 C215.52222362 16.28650091 214.60702259 16.27840324 213.66408819 16.27006018 C210.61345025 16.25158264 207.5654255 16.28291408 204.51492405 16.31428242 C202.32147224 16.31134403 200.12802271 16.30536593 197.93458652 16.29658222 C191.98801115 16.28177393 186.04236736 16.31056433 180.0959208 16.34801531 C173.86747649 16.38066518 167.6390528 16.3759233 161.41053867 16.37595844 C150.95038911 16.38152143 140.49057387 16.41362902 130.03054905 16.46369648 C119.28212718 16.51511248 108.53397846 16.54346244 97.78543186 16.54572773 C97.12353527 16.54587058 96.46163868 16.54601344 95.77968461 16.54616062 C95.11890208 16.54629924 94.45811954 16.54643786 93.77731329 16.54658067 C80.90117803 16.549508 68.02516762 16.57533556 55.14908004 16.60914755 C51.443965 16.61749718 47.73886249 16.62185049 44.03374004 16.62542057 C38.20515896 16.63234124 32.37683211 16.65481451 26.54835033 16.68919086 C24.41227909 16.69952611 22.2761767 16.70485427 20.14008045 16.70474339 C17.21818103 16.70551422 14.29695781 16.72478993 11.3751688 16.74870014 C10.53526891 16.74473646 9.69536903 16.74077277 8.83001763 16.73668897 C1.23608489 16.83519541 -6.45899259 18.63911602 -12.53387171 23.42476052 C-20.71272999 32.15019663 -21.01566636 42.67234289 -20.89890957 53.87646198 C-20.90368217 55.54683297 -20.91108122 57.21719813 -20.9208588 58.88754731 C-20.9399936 63.44958179 -20.92197918 68.0108104 -20.89756596 72.57279146 C-20.87775125 77.50329392 -20.89269838 82.43371035 -20.90321255 87.36422443 C-20.91830554 97.01115581 -20.90145619 106.65777764 -20.87366164 116.30467054 C-20.84245038 127.54284617 -20.84272176 138.78095556 -20.84417938 150.01916639 C-20.84567993 170.07113551 -20.81823087 190.12296087 -20.77462673 210.17487812 C-20.73235018 229.62640215 -20.71111526 249.0777997 -20.71310329 268.52937031 C-20.71322316 269.72787521 -20.71334303 270.92638011 -20.71346653 272.16120335 C-20.7135876 273.35765043 -20.71370866 274.55409751 -20.71383339 275.78680056 C-20.71590353 297.94381757 -20.69823149 320.10078091 -20.67137374 342.25778052 C-20.66233027 350.08939788 -20.65913574 357.92100537 -20.65777683 365.75262737 C-20.65572922 375.29573093 -20.642318 384.83874402 -20.61477841 394.3818092 C-20.60094037 399.24975462 -20.59178206 404.11758446 -20.59556103 408.98555088 C-20.59885376 413.44331468 -20.58824504 417.90082309 -20.56661545 422.35853366 C-20.56119032 423.96935166 -20.56077012 425.58019611 -20.56591732 427.19101503 C-20.59540542 437.57011064 -20.29269264 447.05197986 -13.74313259 455.58625507 C-7.95486766 461.31749277 -0.87227158 463.27693752 7.07126331 463.28799534 C8.62972347 463.29375706 8.62972347 463.29375706 10.21966767 463.29963517 C11.92203021 463.29833545 11.92203021 463.29833545 13.65878391 463.29700947 C14.869521 463.29998059 16.08025808 463.30295171 17.32768416 463.30601287 C20.68529502 463.31318573 24.0428547 463.31587161 27.40046954 463.31661034 C31.02295201 463.31846347 34.64542344 463.32601209 38.26789951 463.33274555 C46.18737512 463.34631855 54.10684565 463.35235191 62.02633095 463.35675621 C66.97248854 463.35952023 71.91864418 463.36375786 76.86480045 463.36826038 C90.56290788 463.38045142 104.26101374 463.39075124 117.95912647 463.39413548 C118.83556735 463.39435504 119.71200823 463.39457461 120.61500792 463.39480083 C121.49352784 463.3950191 122.37204776 463.39523738 123.27718949 463.39546227 C125.05736208 463.39590574 126.83753467 463.3963523 128.61770725 463.39680195 C129.50073154 463.39702338 130.38375582 463.39724481 131.29353842 463.39747295 C145.60082031 463.40142075 159.90805125 463.41887495 174.21531346 463.44216147 C188.90906849 463.46588376 203.60279796 463.47833772 218.29657245 463.47950339 C226.5447004 463.48041963 234.79276197 463.48615905 243.04087162 463.50432301 C250.06436765 463.5197358 257.08777677 463.52483749 264.11128649 463.5165849 C267.69317303 463.51268264 271.27488461 463.51358716 274.85674953 463.52764225 C278.74420528 463.54275667 282.63141586 463.53450214 286.51889133 463.52406025 C287.64487681 463.53211665 288.77086228 463.54017306 289.93096852 463.5484736 C299.10513724 463.49086345 308.12966194 461.93650798 314.84280491 455.15656757 C320.29335031 447.3902464 320.99066304 440.5673725 321.04812717 431.31745625 C321.05802677 430.33161549 321.06792637 429.34577473 321.07812595 428.33006001 C321.10966108 425.07824304 321.13446684 421.82641147 321.15921116 418.57453632 C321.17978758 416.31723372 321.20078423 414.05993491 321.22218418 411.80263996 C321.27733376 405.86628514 321.32677443 399.92989595 321.37503147 393.99348164 C321.42529843 387.93388027 321.48095738 381.87432871 321.53616428 375.8147707 C321.64365886 363.92874555 321.74512315 352.04267713 321.84280491 340.15656757 C323.55311343 341.06954365 325.26095386 341.98714381 326.96780491 342.90656757 C327.91913303 343.41703632 328.87046116 343.92750507 329.85061741 344.45344257 C330.83803928 345.01547382 331.82546116 345.57750507 332.84280491 346.15656757 C333.93927341 346.70743534 335.03574192 347.25830311 336.16543674 347.82586384 C338.84280491 350.15656757 338.84280491 350.15656757 339.57779026 353.9803133 C339.60123898 355.55266039 339.5914694 357.12571238 339.55569553 358.69782734 C339.55978428 359.55856358 339.56387302 360.41929981 339.56808567 361.30611897 C339.57410538 364.15426671 339.53712343 367.00010077 339.49905491 369.84797382 C339.49293577 371.83372138 339.48918654 373.81947753 339.48770237 375.80523396 C339.47849157 379.97256447 339.44964068 384.13912305 339.40530491 388.30622578 C339.34899692 393.62317834 339.32690738 398.93952012 339.31794071 404.25674248 C339.30757042 409.34973012 339.27850639 414.44256755 339.24905491 419.53547382 C339.24529346 420.49666189 339.24153202 421.45784996 339.23765659 422.44816494 C339.15610804 438.59381389 338.68503313 452.96487607 328.59280491 466.46906757 C317.9024925 476.91641833 306.65124981 480.77606565 291.8766489 480.67123127 C290.61460491 480.6781768 289.35256091 480.68512233 288.05227315 480.69227833 C284.57900005 480.71078135 281.10615691 480.70464391 277.63286686 480.69412529 C273.87541162 480.68709781 270.1180416 480.70315804 266.36061192 480.71612263 C259.01100218 480.73770933 251.6615476 480.73764938 244.3119166 480.72949708 C238.33496786 480.7231841 232.3580642 480.724346 226.38111591 480.73076916 C225.52877308 480.73167081 224.67643024 480.73257247 223.79825883 480.73350145 C222.0664372 480.73535275 220.33461558 480.73721531 218.60279398 480.739089 C202.38080515 480.75564914 186.15890343 480.74696375 169.93691985 480.73010343 C155.11534679 480.71541066 140.29397653 480.73003204 125.47242959 480.75887359 C110.23151923 480.78830894 94.99070233 480.79922765 79.7497648 480.78969139 C78.02388503 480.7886689 76.29800524 480.78767429 74.57212543 480.78670788 C73.29857151 480.78599329 73.29857151 480.78599329 71.99928922 480.78526427 C66.03502921 480.78310546 60.07085822 480.79287584 54.10661793 480.8074789 C46.83005991 480.82504746 39.55376023 480.82482044 32.27721216 480.80212725 C28.5691291 480.7910254 24.86150043 480.78772922 21.15343761 480.80642796 C17.12289816 480.82649026 13.09345426 480.80735777 9.0629282 480.78475666 C7.90599543 480.79659239 6.74906266 480.80842812 5.55707133 480.8206225 C-6.52038568 480.68367057 -16.35715814 476.98050992 -25.00485134 468.47297382 C-35.80146987 456.85338255 -37.75623165 445.62727339 -37.66512966 430.19074726 C-37.66974447 428.48142053 -37.67610126 426.77209777 -37.68403864 425.06278324 C-37.70067551 420.38851218 -37.69251135 415.71456946 -37.68009377 411.04029751 C-37.67102244 405.99044967 -37.68502333 400.94065724 -37.69601345 395.8908205 C-37.71378102 386.00720228 -37.70996652 376.12370569 -37.69836289 366.24008274 C-37.68932192 358.20600863 -37.68810744 350.17196856 -37.69245815 342.13789082 C-37.69307108 340.9935576 -37.69368402 339.84922439 -37.69431552 338.67021441 C-37.69559445 336.34537632 -37.6968913 334.02053824 -37.69820589 331.69570017 C-37.70960653 309.90605077 -37.69650606 288.11646874 -37.67500442 266.32683039 C-37.65713393 247.63853197 -37.66023818 228.95033295 -37.67867947 210.26203632 C-37.70009527 188.54927783 -37.70850794 166.83657835 -37.69623041 145.12381077 C-37.69495624 142.80762197 -37.69369876 140.49143315 -37.69245815 138.17524433 C-37.69184105 137.03569538 -37.69122395 135.89614643 -37.69058815 134.72206569 C-37.68713739 126.69952682 -37.6929577 118.67702544 -37.70237637 110.65449238 C-37.71360559 100.87499523 -37.7105368 91.09562647 -37.68925339 81.31614399 C-37.67875549 76.32842666 -37.67459973 71.34092324 -37.68785 66.35320759 C-37.69980573 61.78361042 -37.69315901 57.21442463 -37.67193979 52.64486456 C-37.66748719 50.99561832 -37.66970969 49.34633704 -37.67944294 47.69711351 C-37.75040407 34.66968888 -36.00435998 24.22476975 -27.15719509 14.15656757 C-26.65574978 13.5507082 -26.15430447 12.94484882 -25.63766384 12.32063007 C-19.27401747 5.22926745 -9.63691564 0.08297569 0 0 Z " fill="#1B2A37" transform="translate(45.15719509124756,15.843432426452637)"/>
<path d="M0 0 C7.36400123 3.52379162 14.34619164 7.50076611 21.3125 11.75 C23.5135164 13.08206272 25.7153752 14.41273426 27.91796875 15.7421875 C28.48789551 16.08633698 29.05782227 16.43048645 29.64501953 16.7850647 C36.43496856 20.8775251 43.28009096 24.87541137 50.125 28.875 C67.12606324 38.81642743 67.12606324 38.81642743 75.0234375 43.61328125 C78.46266757 45.69462457 81.93799056 47.7113461 85.4140625 49.73046875 C87.15458119 50.74992946 88.89404208 51.7711641 90.63293457 52.793396 C92.34622373 53.79566595 94.06710751 54.78491715 95.78808594 55.77392578 C96.83512695 56.39122559 97.88216797 57.00852539 98.9609375 57.64453125 C100.38092041 58.46981323 100.38092041 58.46981323 101.82958984 59.31176758 C104 61 104 61 104.93115234 62.98217773 C105.01674963 65.49090661 104.47590656 66.52485413 103.140625 68.640625 C102.69332031 69.36612549 102.24601563 70.09162598 101.78515625 70.83911133 C101.27855469 71.63470459 100.77195312 72.43029785 100.25 73.25 C99.14948957 75.0289887 98.05065458 76.8090145 96.953125 78.58984375 C96.33373047 79.58870605 95.71433594 80.58756836 95.07617188 81.61669922 C91.40903084 87.59262119 87.84575398 93.63035416 84.27331543 99.66320801 C83.01764478 101.78271651 81.75965163 103.90082924 80.50097656 106.01855469 C79.70893768 107.35218581 78.91694358 108.68584353 78.125 110.01953125 C77.76807068 110.61995743 77.41114136 111.22038361 77.043396 111.83900452 C74.65318922 115.86937043 72.31619099 119.92686648 70 124 C65.64147121 122.69736306 62.06300791 121.01057565 58.203125 118.61328125 C57.09324219 117.93007813 55.98335938 117.246875 54.83984375 116.54296875 C54.2557373 116.17993652 53.67163086 115.8169043 53.06982422 115.44287109 C49.93542596 113.49596152 46.78816939 111.57009191 43.640625 109.64453125 C42.99847046 109.25133698 42.35631592 108.8581427 41.69470215 108.45303345 C35.52770401 104.68877575 29.27492482 101.08110729 23 97.5 C12.52118163 91.50866273 2.17849534 85.31926168 -8.11254883 79.01293945 C-13.20898504 75.89238986 -18.30977736 72.79320769 -23.5078125 69.84375 C-24.71328735 69.15696167 -24.71328735 69.15696167 -25.94311523 68.45629883 C-27.38681533 67.64014421 -28.83646867 66.8343858 -30.29321289 66.04174805 C-34.72124851 63.53508431 -34.72124851 63.53508431 -35.89550781 61.28100586 C-36.05555428 57.78728121 -34.28438006 55.39546099 -32.50390625 52.5234375 C-31.93359428 51.57104439 -31.93359428 51.57104439 -31.35176086 50.59941101 C-30.10060504 48.51713937 -28.83192811 46.44617374 -27.5625 44.375 C-26.69645552 42.94256365 -25.8313916 41.50953402 -24.96728516 40.07592773 C-22.75826758 36.41905823 -20.53361828 32.77200465 -18.30267334 29.128479 C-17.04646758 27.07592485 -15.79339995 25.02149355 -14.54150391 22.96630859 C-1.40046401 1.40046401 -1.40046401 1.40046401 0 0 Z " fill="#D1E1FD" transform="translate(340,238)"/>
<path d="M0 0 C4.77676392 -0.14279175 4.77676392 -0.14279175 6.78588867 1.14233398 C7.59376831 1.93619507 7.59376831 1.93619507 8.41796875 2.74609375 C9.33195435 3.62430786 9.33195435 3.62430786 10.2644043 4.52026367 C10.89902588 5.15295166 11.53364746 5.78563965 12.1875 6.4375 C13.53060779 7.73504009 14.87435797 9.03191556 16.21875 10.328125 C16.8684375 10.96169922 17.518125 11.59527344 18.1875 12.24804688 C20.46946592 14.45378333 22.816409 16.57815281 25.1875 18.6875 C28.8166855 21.93149832 32.41619402 25.20602322 36 28.5 C40.45056243 32.58926737 44.93078187 36.64369177 49.4296875 40.6796875 C52.34428447 43.31079783 55.23539224 45.96652475 58.125 48.625 C61.36213091 51.6022264 64.61137856 54.55952966 67.9375 57.4375 C71.48402214 60.51213562 74.93190937 63.6857778 78.375 66.875 C82.37819337 70.58234536 86.38884578 74.27966609 90.4375 77.9375 C91.22769531 78.65292969 92.01789063 79.36835937 92.83203125 80.10546875 C94.71096377 81.74741879 96.63333343 83.25044685 98.625 84.75 C101 87 101 87 101.1484375 89.640625 C101.07496094 90.80851562 101.07496094 90.80851562 101 92 C90.9071075 92.13963084 80.81444851 92.24593885 70.72078323 92.31087303 C66.03274425 92.34205418 61.34537087 92.3842817 56.65771484 92.45263672 C52.12537947 92.51830578 47.59368023 92.55380518 43.06090546 92.56926346 C41.3402481 92.58026527 39.61962165 92.60174763 37.89923859 92.63438034 C26.37525857 92.84407929 16.7402938 92.14302832 7.74591064 83.94564819 C2.01158465 77.97433539 -0.38461498 71.92300077 -0.34057617 63.68774414 C-0.34101425 62.99421844 -0.34145233 62.30069275 -0.34190369 61.58615112 C-0.33983196 59.31885533 -0.3165793 57.05232109 -0.29296875 54.78515625 C-0.287367 53.20332747 -0.28309964 51.62149346 -0.28010559 50.03965759 C-0.26870229 45.89510493 -0.2392746 41.75087233 -0.20599365 37.60644531 C-0.17519488 33.3698357 -0.16157938 29.1331739 -0.14648438 24.89648438 C-0.11440003 16.59751008 -0.06325906 8.29879496 0 0 Z " fill="#468BF8" transform="translate(266,32)"/>
<path d="M0 0 C10.23776752 6.01650793 18.69610617 12.87281877 22.47265625 24.453125 C23.71984988 35.402046 22.49115671 43.10703048 16.47265625 52.453125 C15.93390869 53.29278809 15.93390869 53.29278809 15.38427734 54.14941406 C13.35510489 57.29096938 11.27760772 60.39635838 9.16796875 63.484375 C6.43097678 67.49360182 3.78775363 71.55911894 1.16015625 75.640625 C0.23709565 77.07168972 -0.68608389 78.50267774 -1.609375 79.93359375 C-2.08197754 80.66626465 -2.55458008 81.39893555 -3.04150391 82.15380859 C-5.6945509 86.25936177 -8.36158094 90.35582161 -11.02734375 94.453125 C-15.18369518 100.84220684 -19.32936466 107.23801592 -23.46484375 113.640625 C-27.10589196 119.27621561 -30.77260444 124.89230855 -34.52734375 130.453125 C-38.09774678 129.79410201 -40.7046663 128.29083342 -43.77734375 126.390625 C-44.669375 125.84277344 -45.56140625 125.29492188 -46.48046875 124.73046875 C-47.1559375 124.30894531 -47.83140625 123.88742188 -48.52734375 123.453125 C-47.95887579 119.51451658 -46.80680969 116.936433 -44.60546875 113.63671875 C-43.99864258 112.71777832 -43.39181641 111.79883789 -42.76660156 110.85205078 C-42.11014648 109.87478027 -41.45369141 108.89750977 -40.77734375 107.890625 C-39.40210117 105.81396271 -38.02710556 103.73713685 -36.65234375 101.66015625 C-35.95882812 100.61811035 -35.2653125 99.57606445 -34.55078125 98.50244141 C-31.59490956 94.04794848 -28.68477664 89.56432046 -25.77734375 85.078125 C-24.70970703 83.4348493 -23.64199985 81.79161938 -22.57421875 80.1484375 C-19.28091887 75.07559286 -15.99493394 69.9980311 -12.71240234 64.91821289 C-10.14519095 60.94707245 -7.57012254 56.98117852 -4.98828125 53.01953125 C-4.39208984 52.10429687 -3.79589844 51.1890625 -3.18164062 50.24609375 C-2.01457459 48.4551406 -0.84663561 46.66475592 0.32226562 44.875 C1.11213867 43.66263672 1.11213867 43.66263672 1.91796875 42.42578125 C2.38734863 41.70656494 2.85672852 40.98734863 3.34033203 40.24633789 C5.77819527 36.38559932 6.03661769 32.93956449 5.47265625 28.453125 C2.693955 22.26419949 -2.88030324 18.87528812 -8.52734375 15.453125 C-12.14665073 14.24668934 -14.7196538 14.13043941 -18.52734375 14.453125 C-23.90699749 17.32659467 -26.45894881 20.77371012 -29.52734375 25.828125 C-30.22283325 26.93764526 -30.22283325 26.93764526 -30.93237305 28.06958008 C-31.94053004 29.67807969 -32.94385282 31.28961714 -33.94287109 32.90380859 C-36.12728779 36.41839706 -38.35627941 39.90385939 -40.58398438 43.39111328 C-42.36746784 46.18388175 -44.14544081 48.98008677 -45.921875 51.77734375 C-49.45373257 57.33803925 -52.99005868 62.89588095 -56.52734375 68.453125 C-60.16909486 74.17506581 -63.81010157 79.89747732 -67.44921875 85.62109375 C-68.08988281 86.62849609 -68.73054688 87.63589844 -69.390625 88.67382812 C-70.62266074 90.61115969 -71.85444292 92.54865252 -73.0859375 94.48632812 C-73.91544922 95.79053711 -73.91544922 95.79053711 -74.76171875 97.12109375 C-75.24866211 97.88703857 -75.73560547 98.6529834 -76.23730469 99.44213867 C-77.31621245 101.12400151 -78.41895552 102.79054265 -79.52734375 104.453125 C-83.1501069 103.1275669 -86.16239723 101.50965545 -89.33984375 99.328125 C-90.13003906 98.78929687 -90.92023438 98.25046875 -91.734375 97.6953125 C-92.32605469 97.28539062 -92.91773438 96.87546875 -93.52734375 96.453125 C-92.88913135 93.15312274 -91.6795655 90.83670296 -89.859375 88.0234375 C-89.30314453 87.1571875 -88.74691406 86.2909375 -88.17382812 85.3984375 C-87.56861328 84.46773438 -86.96339844 83.53703125 -86.33984375 82.578125 C-85.05454256 80.58082243 -83.76939039 78.58342396 -82.484375 76.5859375 C-81.82518066 75.56532227 -81.16598633 74.54470703 -80.48681641 73.49316406 C-77.47901015 68.82667969 -74.50385328 64.13960716 -71.52734375 59.453125 C-70.36474128 57.62620156 -69.20198019 55.79937905 -68.0390625 53.97265625 C-65.66489391 50.24200932 -63.29272374 46.51010128 -60.921875 42.77734375 C-58.01048985 38.19435179 -55.09476566 33.6141539 -52.17480469 29.03662109 C-51.09104903 27.33710978 -50.00833707 25.63693238 -48.92675781 23.93603516 C-47.4436712 21.60567099 -45.95509965 19.27890899 -44.46484375 16.953125 C-43.82156128 15.93931763 -43.82156128 15.93931763 -43.1652832 14.9050293 C-33.42341819 -0.23807524 -17.76391678 -8.42229109 0 0 Z " fill="#1C2B38" transform="translate(481.52734375,111.546875)"/>
<path d="M0 0 C1.05021725 -0.00623996 2.1004345 -0.01247993 3.18247652 -0.01890898 C6.70712409 -0.03488379 10.23108441 -0.02221662 13.7557373 -0.00964355 C16.28035384 -0.01506265 18.80496722 -0.02218411 21.32957458 -0.03088379 C27.47819863 -0.04724792 33.62656752 -0.04482778 39.775195 -0.03323323 C44.77218915 -0.02420035 49.76912857 -0.02297426 54.76612854 -0.02732849 C55.47727531 -0.02794142 56.18842209 -0.02855436 56.92111877 -0.02918586 C58.36579146 -0.03046476 59.81046413 -0.03176161 61.25513679 -0.03307623 C74.80245195 -0.04448293 88.34965886 -0.03136695 101.89695626 -0.00987476 C113.52164974 0.00799634 125.14618344 0.00489225 136.77087402 -0.0135498 C150.26964241 -0.03495497 163.76831591 -0.04338428 177.2670989 -0.03110075 C178.70646253 -0.02982655 180.14582617 -0.02856907 181.58518982 -0.02732849 C182.29338766 -0.02671139 183.0015855 -0.02609429 183.73124388 -0.02545848 C188.72234676 -0.02200451 193.71338947 -0.02783493 198.70448303 -0.0372467 C205.42191511 -0.04963539 212.13899857 -0.0408176 218.8564167 -0.01766968 C221.32475342 -0.01237139 223.79311549 -0.01391537 226.26144218 -0.02272034 C229.62508012 -0.03361462 232.98774294 -0.01998499 236.35131836 0 C237.33331727 -0.00892289 238.31531617 -0.01784577 239.32707262 -0.02703905 C243.57723918 0.02210542 246.03211241 0.12768183 249.75061798 2.32483673 C252.46771512 5.40616762 252.81880041 7.42840957 252.67565918 11.50793457 C250.6693788 14.40534561 249.0559753 16.21455769 245.51581669 16.96699452 C242.75761044 17.15574551 240.04000282 17.17400655 237.27539062 17.14285278 C236.21700627 17.15065274 235.15862191 17.15845269 234.0681653 17.16648901 C230.51575364 17.18645925 226.96440724 17.17062372 223.4119873 17.15490723 C220.86766432 17.16168105 218.32334624 17.17058285 215.77903748 17.18145752 C209.58224032 17.2019133 203.38583873 17.19888738 197.18903625 17.18439431 C192.15294082 17.17310342 187.11693026 17.1715705 182.08082581 17.1770134 C181.36412831 17.17777956 180.64743081 17.17854573 179.90901521 17.17933511 C178.45306851 17.18093373 176.99712184 17.1825548 175.54117519 17.18419807 C161.88796666 17.19845662 148.23492597 17.18206125 134.58174497 17.15519623 C122.8660581 17.13285729 111.15061893 17.13673739 99.43493652 17.15979004 C85.83067798 17.18654624 72.22656655 17.19708332 58.62228537 17.18172872 C57.17168778 17.18013597 55.72109018 17.17856412 54.27049255 17.1770134 C53.55676649 17.17624202 52.84304043 17.17547064 52.10768631 17.17467589 C47.07749735 17.17035833 42.04740169 17.17764661 37.01722717 17.18941116 C30.24719892 17.2048968 23.47771117 17.19387566 16.70770454 17.16493988 C14.22001996 17.15831684 11.73229606 17.16024735 9.244627 17.1712532 C5.85452432 17.1848711 2.46593348 17.16783604 -0.92407227 17.14285278 C-1.91385307 17.15400639 -2.90363387 17.16516 -3.92340803 17.1766516 C-8.53426408 17.11051845 -10.66346322 16.99525829 -14.4665451 14.19090843 C-16.32434082 11.50793457 -16.32434082 11.50793457 -16.44934082 7.94543457 C-13.73093322 -0.36081086 -7.5688223 -0.06877375 0 0 Z " fill="#202E3B" transform="translate(77.3243408203125,408.4920654296875)"/>
<path d="M0 0 C1.05752993 -0.00694553 2.11505986 -0.01389106 3.20463616 -0.02104706 C6.76001404 -0.0393918 10.3147303 -0.02903157 13.87013245 -0.01878357 C16.41430666 -0.02583823 18.95847667 -0.03458132 21.50263977 -0.04489136 C27.70286126 -0.06510156 33.90283688 -0.06640004 40.10307866 -0.05826581 C45.14205118 -0.0519692 50.18097015 -0.05309972 55.21994209 -0.05953789 C55.93677508 -0.06043954 56.65360807 -0.0613412 57.39216327 -0.06227018 C58.84835149 -0.06412136 60.3045397 -0.06598392 61.76072789 -0.06785773 C75.42057986 -0.08444241 89.08032859 -0.07571149 102.74017436 -0.05887216 C115.23966159 -0.04417593 127.73890842 -0.05880121 140.23836469 -0.08764232 C153.06983254 -0.11702923 165.90118941 -0.1280106 178.73268944 -0.11846012 C180.1838643 -0.11743756 181.63503917 -0.11644295 183.08621407 -0.11547661 C183.80023511 -0.11500022 184.51425616 -0.11452383 185.24991421 -0.114033 C190.28260312 -0.11186785 195.31518708 -0.1216783 200.34785271 -0.13624763 C207.12195532 -0.15558456 213.89553951 -0.14870314 220.66964722 -0.12404823 C223.15894915 -0.11902552 225.64828493 -0.12256765 228.13755989 -0.13519669 C231.52988946 -0.15104853 234.92072998 -0.13624867 238.31298828 -0.11352539 C239.3034512 -0.12536112 240.29391413 -0.13719685 241.31439108 -0.14939123 C245.9274033 -0.08639929 248.05736053 0.02620521 251.86261082 2.83126926 C253.71998596 5.5146637 253.71998596 5.5146637 253.84498596 9.0771637 C252.46289328 13.30022467 251.53172425 14.26242034 247.71998596 16.5146637 C244.27855795 17.10078955 240.87970911 17.05425605 237.39564514 17.02259827 C236.34542789 17.02883823 235.29521064 17.03507819 234.21316862 17.04150724 C230.68852105 17.05748205 227.16456073 17.04481489 223.63990784 17.03224182 C221.1152913 17.03766092 218.59067792 17.04478237 216.06607056 17.05348206 C209.91744651 17.06984619 203.76907762 17.06742605 197.62045014 17.05583149 C192.62345599 17.04679862 187.62651657 17.04557252 182.6295166 17.04992676 C181.56279644 17.05084616 181.56279644 17.05084616 180.47452638 17.05178413 C179.02985369 17.05306303 177.58518101 17.05435988 176.14050835 17.05567449 C162.59319319 17.06708119 149.04598629 17.05396522 135.49868888 17.03247303 C123.87399541 17.01460193 112.24946171 17.01770601 100.62477112 17.03614807 C87.12600273 17.05755324 73.62732923 17.06598255 60.12854624 17.05369902 C58.68918261 17.05242482 57.24981898 17.05116733 55.81045532 17.04992676 C55.10225748 17.04930966 54.39405964 17.04869255 53.66440126 17.04805675 C48.67329838 17.04460278 43.68225567 17.05043319 38.69116211 17.05984497 C31.97373003 17.07223366 25.25664657 17.06341587 18.53922844 17.04026794 C16.07089172 17.03496966 13.60252965 17.03651364 11.13420296 17.0453186 C7.77056502 17.05621289 4.40790221 17.04258326 1.04432678 17.02259827 C-0.42867158 17.0359826 -0.42867158 17.0359826 -1.93142748 17.04963732 C-6.25238748 16.99967427 -8.63603072 16.91000385 -12.3859787 14.60791779 C-14.43076817 12.34805292 -14.94207406 11.51317724 -14.84251404 8.5146637 C-14.8438031 7.8546637 -14.84509216 7.1946637 -14.84642029 6.5146637 C-12.75593509 -0.86691162 -6.3351128 -0.05259043 0 0 Z " fill="#1E2C39" transform="translate(76.28001403808594,353.48533630371094)"/>
<path d="M0 0 C5.88551217 2.67733103 11.50161722 6.76619928 15.28125 12.0625 C17.01905713 17.18815337 16.67137566 21.05378348 14.39453125 25.81640625 C13.61216185 27.02513914 12.8099512 28.22117633 11.9921875 29.40625 C11.55173096 30.07688477 11.11127441 30.74751953 10.6574707 31.43847656 C9.67556094 32.93085878 8.68578745 34.41808783 7.68945312 35.90087891 C5.93884124 38.51686195 4.22065247 41.15210949 2.5078125 43.79296875 C-0.0322618 47.70848646 -2.57999511 51.6187693 -5.13671875 55.5234375 C-8.66661343 60.91516633 -12.18401911 66.31489322 -15.6953125 71.71875 C-16.22439209 72.53230957 -16.75347168 73.34586914 -17.29858398 74.18408203 C-19.85854281 78.12254121 -22.41200082 82.064984 -24.953125 86.015625 C-29.81020383 93.5624773 -34.6998899 101.05744625 -39.9453125 108.34375 C-47.42042483 104.1166834 -54.8681346 99.84373344 -62.2578125 95.46875 C-62.90951416 95.0879126 -63.56121582 94.7070752 -64.23266602 94.31469727 C-68.82956645 91.57524209 -68.82956645 91.57524209 -69.9453125 89.34375 C-69.22363281 87.73413086 -69.22363281 87.73413086 -68.0234375 85.80859375 C-67.58088623 85.0909082 -67.13833496 84.37322266 -66.68237305 83.63378906 C-66.19164307 82.85745117 -65.70091309 82.08111328 -65.1953125 81.28125 C-64.69233643 80.47268555 -64.18936035 79.66412109 -63.67114258 78.83105469 C-59.48493645 72.12842494 -55.19609544 65.49239454 -50.8828125 58.87109375 C-47.59784409 53.82168557 -44.3640151 48.74017563 -41.1328125 43.65625 C-40.54975342 42.7398877 -39.96669434 41.82352539 -39.3659668 40.87939453 C-36.28577488 36.03590128 -33.21421029 31.1871307 -30.15234375 26.33203125 C-29.22095581 24.85899536 -29.22095581 24.85899536 -28.27075195 23.35620117 C-27.09071426 21.48963627 -25.91328495 19.62141867 -24.73901367 17.7512207 C-11.12801828 -3.75403026 -11.12801828 -3.75403026 0 0 Z " fill="#FDFDFD" transform="translate(471.9453125,125.65625)"/>
<path d="M0 0 C0.78478635 -0.00623996 1.5695727 -0.01247993 2.37814045 -0.01890898 C5.00459763 -0.0348482 7.63012793 -0.02223147 10.2565918 -0.00964355 C12.14082378 -0.01506427 14.02505153 -0.02218664 15.90927124 -0.03088379 C21.02495582 -0.04912604 26.14031789 -0.04204583 31.25600815 -0.02936745 C36.60818098 -0.0192445 41.96032609 -0.02863117 47.3125 -0.03491211 C56.30075033 -0.04219056 65.28886923 -0.03259559 74.27709961 -0.0135498 C84.67058884 0.00821927 95.06376421 0.00116804 105.45724583 -0.02085543 C114.37882201 -0.03900376 123.30030368 -0.04157051 132.22189236 -0.03110075 C137.55127037 -0.02486272 142.88050083 -0.02403875 148.20986938 -0.0372467 C153.22011644 -0.04879628 158.22995861 -0.04079568 163.2401619 -0.01766968 C165.07959953 -0.01237783 166.91907121 -0.01390449 168.75849533 -0.02272034 C171.26833152 -0.03364081 173.77686788 -0.01995545 176.28662109 0 C177.38025199 -0.01338433 177.38025199 -0.01338433 178.49597645 -0.02703905 C183.29931914 0.04711342 185.78446902 1.07531538 189.14331055 4.50793457 C189.7722168 6.50793457 189.7722168 6.50793457 189.70581055 8.50793457 C189.70709961 9.16793457 189.70838867 9.82793457 189.7097168 10.50793457 C188.86453423 13.49230337 187.5913115 14.60455566 185.14331055 16.50793457 C182.40517156 16.90301231 180.06794042 17.05308687 177.33094788 17.02259827 C176.53884885 17.02954379 175.74674982 17.03648932 174.93064779 17.04364532 C172.27346669 17.06195814 169.6171741 17.05163941 166.95996094 17.04138184 C165.05617096 17.04843817 163.1523866 17.05718198 161.24861145 17.06748962 C156.07503225 17.09002572 150.90175835 17.08703397 145.7281487 17.07816815 C141.4113829 17.07306442 137.0946748 17.08034585 132.77791494 17.08764023 C122.59538177 17.10465274 112.41299841 17.10105986 102.23046875 17.08435059 C91.72050637 17.06742718 81.21095925 17.08326388 70.70104223 17.11557347 C61.68181851 17.14225145 52.6627242 17.14955022 43.64346498 17.14105839 C38.25478587 17.13612403 32.86635667 17.13837233 27.47770882 17.1588459 C22.41078083 17.17717482 17.34445112 17.17127836 12.27755547 17.1466465 C10.41715164 17.14162976 8.55670246 17.14515067 6.69633484 17.15779495 C4.15775085 17.17368482 1.62114679 17.1588148 -0.91734314 17.13612366 C-2.02367006 17.15387725 -2.02367006 17.15387725 -3.15234703 17.1719895 C-7.02981475 17.10149577 -8.74368767 16.59553357 -11.8450861 14.191329 C-13.85668945 11.50793457 -13.85668945 11.50793457 -13.98168945 7.94543457 C-11.66197855 0.85742904 -6.84692108 -0.0837956 0 0 Z " fill="#202E3B" transform="translate(74.856689453125,297.4920654296875)"/>
<path d="M0 0 C1.19048853 -0.01064158 1.19048853 -0.01064158 2.40502733 -0.02149814 C5.06164502 -0.03908569 7.71680107 -0.0209704 10.37339783 -0.00291443 C12.27895779 -0.00805293 14.184513 -0.01533369 16.09005737 -0.02459717 C21.26359728 -0.04312687 26.43662249 -0.03016308 31.61014104 -0.01050687 C37.02150282 0.00586552 42.43283165 -0.00293119 47.84420776 -0.00802612 C56.93084446 -0.01254826 66.01727538 0.00333126 75.10386658 0.03126526 C85.61439908 0.06332726 96.12456062 0.06329805 106.6351195 0.04605049 C116.74096973 0.03019688 126.84668374 0.03691084 136.952528 0.0539875 C141.25590572 0.06086629 145.55917452 0.05981708 149.86255074 0.05244255 C154.92780222 0.0447916 159.99263055 0.05686696 165.05780983 0.08429146 C166.91862481 0.09118851 168.77947922 0.09125918 170.64029312 0.08407593 C173.17676748 0.07541138 175.71192684 0.09128526 178.24829102 0.11352539 C179.35796402 0.10116424 179.35796402 0.10116424 180.49005467 0.08855337 C183.94697362 0.14466214 185.74729528 0.38454548 188.51352596 2.53535557 C190.18169133 4.79191936 190.62857192 5.8540538 190.62315369 8.62818909 C190.64506775 9.28818909 190.66698181 9.94818909 190.68955994 10.62818909 C189.68517464 13.8222591 187.83571817 14.83556873 185.06065369 16.62818909 C182.30548346 17.01344718 179.95372289 17.1697764 177.20396423 17.13612366 C176.41917789 17.14236362 175.63439154 17.14860358 174.82582378 17.15503263 C172.1993666 17.17097186 169.5738363 17.15835513 166.94737244 17.14576721 C165.06314045 17.15118793 163.1789127 17.1583103 161.29469299 17.16700745 C156.17900841 17.1852497 151.06364634 17.17816949 145.94795609 17.1654911 C140.59578325 17.15536815 135.24363814 17.16475483 129.89146423 17.17103577 C120.9032139 17.17831422 111.91509501 17.16871925 102.92686462 17.14967346 C92.5333754 17.12790439 82.14020003 17.13495562 71.74671841 17.15697908 C62.82514222 17.17512741 53.90366055 17.17769417 44.98207188 17.16722441 C39.65269386 17.16098638 34.3234634 17.16016241 28.99409485 17.17337036 C23.98384779 17.18491994 18.97400562 17.17691933 13.96380234 17.15379333 C12.1243647 17.14850149 10.28489303 17.15002814 8.4454689 17.15884399 C5.93563271 17.16976447 3.42709635 17.15607911 0.91734314 17.13612366 C-0.17628776 17.14950799 -0.17628776 17.14950799 -1.29201221 17.16316271 C-4.82670026 17.10859532 -6.83301093 16.69433726 -9.8600769 14.81128693 C-11.93934631 12.62818909 -11.93934631 12.62818909 -13.06434631 9.19068909 C-12.93934631 5.62818909 -12.93934631 5.62818909 -10.92774296 2.94479465 C-7.23306882 0.08068266 -4.48878028 -0.07203294 0 0 Z " fill="#1E2D39" transform="translate(73.93934631347656,242.37181091308594)"/>
<path d="M0 0 C1.28765943 0.95484397 2.57383356 1.91169117 3.859375 2.86938477 C4.93396973 3.66832909 4.93396973 3.66832909 6.03027344 4.4834137 C8.20320605 6.15645802 10.11481266 7.94711247 12 9.9375 C15.10006664 13.12151429 18.30902734 16.06380938 21.67578125 18.9609375 C24.62410542 21.5475345 27.49911509 24.20839896 30.375 26.875 C35.87150027 31.96794975 41.41702496 37.00182103 47 42 C50.33899623 44.99376883 53.67197384 47.99404088 57 51 C57.51981445 51.46792969 58.03962891 51.93585938 58.57519531 52.41796875 C60.21990432 53.90024937 61.8603425 55.38713526 63.5 56.875 C64.27512939 57.57181885 64.27512939 57.57181885 65.06591797 58.28271484 C67.41694944 60.42379082 69.22362848 62.33544272 71 65 C62.90684826 65.13936547 54.81420242 65.24580323 46.72014523 65.31087303 C42.96119065 65.34211267 39.20306032 65.38444592 35.44458008 65.45263672 C31.81350742 65.51809944 28.1832246 65.55376141 24.55160713 65.56926346 C23.17009618 65.58030226 21.78862578 65.60185957 20.40745354 65.63438034 C8.23955245 65.90934223 8.23955245 65.90934223 3.65844727 62.08837891 C0.31766022 58.61054532 -0.12408835 56.33611217 -0.11352539 51.54052734 C-0.11344986 50.39949554 -0.11337433 49.25846375 -0.11329651 48.08285522 C-0.10813522 46.84637238 -0.10297394 45.60988953 -0.09765625 44.3359375 C-0.0962413 43.07359283 -0.09482635 41.81124817 -0.09336853 40.51065063 C-0.08871078 37.15361701 -0.07972408 33.796651 -0.06866455 30.43963623 C-0.0584377 27.01445094 -0.05386818 23.58925866 -0.04882812 20.1640625 C-0.03778238 13.44268957 -0.02103194 6.72134869 0 0 Z " fill="#D0E1FD" transform="translate(282,43)"/>
<path d="M0 0 C3.32006377 1.14968425 6.27719177 2.87042201 9.3125 4.61328125 C10.0139917 5.01216553 10.7154834 5.4110498 11.43823242 5.82202148 C18.60881399 9.9243196 25.68071531 14.18986525 32.75390625 18.45703125 C38.83794946 22.12430563 44.94923661 25.74499041 51.0625 29.36328125 C52.17359131 30.02175049 53.28468262 30.68021973 54.42944336 31.35864258 C60.20259403 34.7796646 65.97910661 38.19485511 71.76123047 41.60069275 C74.68917689 43.32621363 77.61528738 45.05483285 80.5411377 46.78390503 C81.96079461 47.62184818 83.38127426 48.45839915 84.8026123 49.29348755 C86.79499801 50.46425723 88.78448286 51.63981981 90.7734375 52.81640625 C91.65607773 53.33263802 91.65607773 53.33263802 92.55654907 53.85929871 C96.04287208 55.92944357 99.20447711 58.19854681 102.3125 60.80078125 C101.99633092 66.96607826 98.82034939 70.97346558 95.3125 75.80078125 C91.46867483 75.2226918 88.78382395 74.11932205 85.48046875 72.08984375 C84.53421631 71.51459961 83.58796387 70.93935547 82.61303711 70.34667969 C81.58573486 69.7127832 80.55843262 69.07888672 79.5 68.42578125 C77.82269757 67.40497591 76.1453712 66.38420899 74.46717834 65.36486816 C73.2769977 64.64167351 72.08734244 63.9176136 70.8981781 63.19274902 C64.54614204 59.32301298 58.15093183 55.52705497 51.75149536 51.73638916 C49.06141879 50.14289256 46.37241664 48.54758721 43.68336487 46.95236206 C42.31643085 46.1414899 40.9494364 45.33071959 39.5823822 44.52005005 C34.58061999 41.5538926 29.58092287 38.58427355 24.58203125 35.61328125 C22.43353428 34.33660948 20.28501999 33.05996686 18.13650513 31.7833252 C16.77873139 30.97642468 15.42104175 30.16938264 14.06344604 29.36218262 C5.83510395 24.4700388 -2.40986978 19.60925166 -10.6875 14.80078125 C-9.89560692 11.29833801 -8.61387165 8.69846734 -6.75 5.61328125 C-6.22535156 4.73285156 -5.70070313 3.85242188 -5.16015625 2.9453125 C-3.58291244 0.64847736 -2.84929456 -0.33637505 0 0 Z " fill="#CFE0FD" transform="translate(359.6875,210.19921875)"/>
<path d="M0 0 C1.47213707 -0.00639748 1.47213707 -0.00639748 2.97401428 -0.01292419 C4.05457596 -0.01247101 5.13513763 -0.01201782 6.2484436 -0.0115509 C7.95099556 -0.01658882 7.95099556 -0.01658882 9.6879425 -0.02172852 C13.45633017 -0.03126122 17.22467352 -0.03318282 20.99307251 -0.03425598 C23.60380065 -0.03746703 26.2145286 -0.04083098 28.82525635 -0.04434204 C34.30470062 -0.0507418 39.78413281 -0.05222406 45.26358032 -0.05158997 C51.59719319 -0.05098933 57.93072084 -0.06153755 64.26431215 -0.07733363 C70.35545226 -0.09198399 76.44655147 -0.09557805 82.53770828 -0.09498024 C85.13011651 -0.09616277 87.72252531 -0.10059977 90.31492233 -0.10831261 C93.93736645 -0.11808029 97.55958989 -0.11524705 101.18203735 -0.10920715 C102.25855057 -0.11482666 103.33506378 -0.12044617 104.44419861 -0.12623596 C105.92479515 -0.11994423 105.92479515 -0.11994423 107.43530273 -0.11352539 C108.29181616 -0.11407016 109.14832958 -0.11461493 110.03079796 -0.1151762 C112.60899456 0.16214873 114.16969773 0.7316796 116.34463501 2.13371277 C118.69013175 5.65195788 118.92454904 6.99146971 118.34463501 11.13371277 C116.29308166 14.13888112 114.64793687 15.87827972 110.99542046 16.59413338 C107.95883578 16.77986892 104.95885492 16.79749495 101.91665649 16.76481628 C100.18418671 16.77554924 100.18418671 16.77554924 98.41671753 16.78649902 C94.59931887 16.80340663 90.78309097 16.78397058 86.96572876 16.76261902 C84.31443205 16.76344746 81.66317609 16.76585041 79.0118866 16.76992798 C73.45608025 16.7744456 67.90061096 16.75859859 62.34487915 16.7306366 C55.92414156 16.69856996 49.50401123 16.69860731 43.08323044 16.71585137 C36.90177965 16.73172016 30.72055125 16.72498181 24.53911018 16.70791435 C21.91042644 16.70272451 19.28172521 16.70322401 16.65304375 16.7094593 C12.98271686 16.71489747 9.31342771 16.69457955 5.64321899 16.66716003 C4.55271744 16.67368591 3.46221588 16.68021179 2.33866882 16.68693542 C-4.9981839 16.5935366 -4.9981839 16.5935366 -8.29902649 14.28396606 C-10.10218348 11.42535499 -10.65536499 9.52552196 -10.65536499 6.13371277 C-7.55829907 1.32792083 -5.57155671 0.01091085 0 0 Z " fill="#1F2E3A" transform="translate(71.65536499023438,186.8662872314453)"/>
<path d="M0 0 C1.73006035 -0.0131424 1.73006035 -0.0131424 3.49507141 -0.02655029 C7.3076438 -0.04855708 11.11905644 -0.03398533 14.93164062 -0.01708984 C17.5805404 -0.02045758 20.22940494 -0.02530214 22.8782959 -0.03158569 C28.4298967 -0.04067507 33.98116462 -0.02871349 39.53271484 -0.00488281 C45.94556337 0.02232769 52.35761703 0.01351298 58.7704463 -0.01401484 C64.28232599 -0.03672566 69.79396679 -0.03989655 75.30587816 -0.02682149 C78.59532422 -0.01903753 81.88431603 -0.01992678 85.17375183 -0.03450394 C88.84164301 -0.04719074 92.50800415 -0.02786225 96.17578125 0 C97.80614067 -0.01518173 97.80614067 -0.01518173 99.46943665 -0.03067017 C104.30789503 0.03748433 106.7928896 0.07449068 110.80114746 2.96084595 C112.58789062 5.64697266 112.58789062 5.64697266 112.58789062 9.27197266 C111.64245303 12.46282452 111.22417615 13.74884708 108.58789062 15.64697266 C106.17208925 16.85487335 104.63870018 16.78064273 101.93925476 16.79414368 C100.95927521 16.80129898 99.97929565 16.80845428 98.96961975 16.81582642 C97.89062912 16.81851532 96.81163849 16.82120422 95.69995117 16.82397461 C94.56652283 16.83054581 93.43309448 16.837117 92.26531982 16.84388733 C88.50174907 16.86365336 84.73821825 16.87528971 80.97460938 16.88525391 C79.69187449 16.88932943 78.4091396 16.89340496 77.08753395 16.89760399 C71.00012735 16.91632377 64.91274085 16.93088699 58.82531136 16.93921596 C51.79908635 16.94898816 44.77317639 16.97530664 37.74706239 17.01571685 C31.66125852 17.04951734 25.57558712 17.0613611 19.4896946 17.06542015 C16.90088577 17.07030068 14.31208067 17.08195604 11.72333336 17.10045815 C8.10330298 17.12472459 4.48409995 17.12390703 0.86401367 17.11694336 C-0.20890427 17.12975342 -1.2818222 17.14256348 -2.38725281 17.15576172 C-6.85426795 17.12438079 -9.62695315 17.10149937 -13.54655457 14.83244324 C-16.19052561 11.73506925 -16.55410504 9.69384917 -16.41210938 5.64697266 C-12.15851159 -0.71063844 -6.96578958 -0.06486469 0 0 Z " fill="#1F2E3A" transform="translate(77.412109375,131.35302734375)"/>
<path d="M0 0 C4.00619886 5.04005663 3.29406411 10.87910993 3 17 C4.21236328 16.94779297 4.21236328 16.94779297 5.44921875 16.89453125 C6.51785156 16.86746094 7.58648437 16.84039062 8.6875 16.8125 C9.74324219 16.77769531 10.79898438 16.74289062 11.88671875 16.70703125 C15.39065615 17.03676187 17.19698511 17.91415288 20 20 C21.56471233 23.12942465 21.69701958 26.61082223 21 30 C19.43359375 32.2421875 19.43359375 32.2421875 17 34 C13.546875 34.390625 13.546875 34.390625 9.75 34.25 C8.48671875 34.21390625 7.2234375 34.1778125 5.921875 34.140625 C4.95765625 34.09421875 3.9934375 34.0478125 3 34 C3.02320313 34.72445312 3.04640625 35.44890625 3.0703125 36.1953125 C3.26007029 46.36090835 3.26007029 46.36090835 1 51 C-2.21436529 53.14291019 -4.17426609 53.30025791 -7.96484375 53.4609375 C-11.07122275 52.75738141 -12.15402052 51.57864096 -14 49 C-14.2911521 46.26317029 -14.38322418 43.96059961 -14.25 41.25 C-14.23195313 40.55261719 -14.21390625 39.85523438 -14.1953125 39.13671875 C-14.14838554 37.42388461 -14.07664605 35.71176176 -14 34 C-15.03640625 34.04640625 -16.0728125 34.0928125 -17.140625 34.140625 C-18.51038779 34.17815275 -19.88018182 34.21455184 -21.25 34.25 C-22.27287109 34.30027344 -22.27287109 34.30027344 -23.31640625 34.3515625 C-26.7368634 34.41797914 -28.64439031 34.25594838 -31.453125 32.234375 C-33.52920228 29.23559671 -33.57003517 27.44649571 -33.3984375 23.90234375 C-32.79104423 21.00233861 -31.33500208 19.71691329 -29 18 C-26.11584117 16.55792059 -23.58278472 16.90605113 -20.375 16.9375 C-19.18648438 16.94652344 -17.99796875 16.95554687 -16.7734375 16.96484375 C-15.85820312 16.97644531 -14.94296875 16.98804688 -14 17 C-14.04640625 16.03578125 -14.0928125 15.0715625 -14.140625 14.078125 C-14.19476563 12.18320312 -14.19476563 12.18320312 -14.25 10.25 C-14.29640625 8.99703125 -14.3428125 7.7440625 -14.390625 6.453125 C-14 3 -14 3 -12.171875 0.609375 C-7.74359632 -2.67201136 -4.93951821 -2.02873069 0 0 Z " fill="#4389F9" transform="translate(461,411)"/>
</svg>
