<?xml version="1.0" encoding="UTF-8"?>
<svg version="1.1" xmlns="http://www.w3.org/2000/svg" width="256" height="256">
<path d="M0 0 C0.67538388 -0.00453111 1.35076775 -0.00906223 2.04661781 -0.01373065 C4.2909815 -0.02630674 6.5351004 -0.02475871 8.77949524 -0.02310181 C10.39650786 -0.02909143 12.01351763 -0.03589797 13.63052368 -0.04345703 C18.01095586 -0.0610829 22.39130984 -0.06581105 26.77177405 -0.0670886 C29.51321007 -0.06851302 32.2546264 -0.07278817 34.99605751 -0.07808304 C44.57362244 -0.09657401 54.1511318 -0.10475507 63.72871399 -0.10317993 C72.63384237 -0.10197969 81.53872793 -0.12306131 90.44379491 -0.15466726 C98.10691671 -0.18088876 105.76995951 -0.19154473 113.43312579 -0.19026911 C118.00205042 -0.18976108 122.57075926 -0.19535545 127.1396389 -0.21662521 C131.44158983 -0.23610618 135.74312138 -0.23606533 140.04508781 -0.22159195 C141.61552804 -0.21951472 143.1859952 -0.22413933 144.75638962 -0.23631287 C160.40614347 -0.3496779 175.43646615 3.57317033 187.25337219 14.45492554 C196.89946243 24.83957952 204.16420741 37.91820634 204.20439148 52.33045959 C204.20892259 53.00584347 204.21345371 53.68122735 204.21812212 54.3770774 C204.23069822 56.62144109 204.22915019 58.86556 204.22749329 61.10995483 C204.2334829 62.72696746 204.24028945 64.34397723 204.24784851 65.96098328 C204.26547438 70.34141546 204.27020253 74.72176943 204.27148008 79.10223365 C204.27290449 81.84366967 204.27717965 84.58508599 204.28247452 87.32651711 C204.30096549 96.90408204 204.30914655 106.4815914 204.30757141 116.05917358 C204.30637117 124.96430197 204.32745279 133.86918752 204.35905874 142.7742545 C204.38528024 150.43737631 204.39593621 158.10041911 204.39466059 165.76358539 C204.39415256 170.33251001 204.39974693 174.90121885 204.42101669 179.4700985 C204.44049766 183.77204943 204.44045681 188.07358097 204.42598343 192.37554741 C204.42390619 193.94598764 204.42853081 195.5164548 204.44070435 197.08684921 C204.55406938 212.73660307 200.63122114 227.76692575 189.74946594 239.58383179 C179.36481196 249.22992202 166.28618514 256.494667 151.87393188 256.53485107 C151.19854801 256.53938219 150.52316413 256.5439133 149.82731408 256.54858172 C147.58295039 256.56115782 145.33883148 256.55960979 143.09443665 256.55795288 C141.47742402 256.5639425 139.86041425 256.57074904 138.2434082 256.57830811 C133.86297602 256.59593398 129.48262205 256.60066212 125.10215783 256.60193968 C122.36072181 256.60336409 119.61930549 256.60763924 116.87787437 256.61293411 C107.30030944 256.63142508 97.72280008 256.63960614 88.1452179 256.63803101 C79.24008951 256.63683077 70.33520396 256.65791239 61.43013698 256.68951833 C53.76701517 256.71573983 46.10397237 256.7263958 38.44080609 256.72512019 C33.87188147 256.72461216 29.30317263 256.73020652 24.73429298 256.75147629 C20.43234205 256.77095725 16.13081051 256.77091641 11.82884407 256.75644302 C10.25840384 256.75436579 8.68793668 256.7589904 7.11754227 256.77116394 C-8.53221159 256.88452897 -23.56253427 252.96168074 -35.37944031 242.07992554 C-45.02553054 231.69527155 -52.29027552 218.61664473 -52.33045959 204.20439148 C-52.33499071 203.5290076 -52.33952182 202.85362373 -52.34419024 202.15777367 C-52.35676634 199.91340998 -52.35521831 197.66929108 -52.3535614 195.42489624 C-52.35955102 193.80788362 -52.36635756 192.19087385 -52.37391663 190.5738678 C-52.3915425 186.19343562 -52.39627064 181.81308164 -52.3975482 177.43261743 C-52.39897261 174.69118141 -52.40324776 171.94976508 -52.40854263 169.20833397 C-52.4270336 159.63076904 -52.43521466 150.05325968 -52.43363953 140.47567749 C-52.43243929 131.57054911 -52.45352091 122.66566355 -52.48512685 113.76059657 C-52.51134835 106.09747477 -52.52200432 98.43443197 -52.52072871 90.77126569 C-52.52022068 86.20234106 -52.52581505 81.63363222 -52.54708481 77.06475258 C-52.56656577 72.76280165 -52.56652493 68.4612701 -52.55205154 64.15930367 C-52.54997431 62.58886344 -52.55459892 61.01839628 -52.56677246 59.44800186 C-52.68013749 43.79824801 -48.75728926 28.76792533 -37.87553406 16.95101929 C-27.49088007 7.30492905 -14.41225325 0.04018407 0 0 Z " fill="#DA1829" transform="translate(52.06303405761719,-0.267425537109375)"/>
<path d="M0 0 C26.3278125 -0.6496875 26.3278125 -0.6496875 53.1875 -1.3125 C61.43657349 -1.59927612 61.43657349 -1.59927612 69.85229492 -1.8918457 C111.51281881 -2.79137255 111.51281881 -2.79137255 122.875 7.71484375 C135.49527094 22.4092792 132.57789851 45.75335727 131.90826416 63.7545166 C131.77982289 67.93978639 131.76109192 72.1225236 131.7451067 76.30950737 C131.72348989 80.3595774 131.65795398 84.4079099 131.57672691 88.45718765 C131.5388814 90.38269082 131.50908501 92.3083706 131.48771095 94.23412704 C131.25992611 109.11900809 131.25992611 109.11900809 128.21195984 113.66943359 C126.21821877 115.42403369 124.30012184 116.6926262 122 118 C120.35931627 119.71581106 118.74839571 121.46129788 117.1875 123.25 C115.79546487 124.83667367 114.40008098 126.42042146 113 128 C112.58856247 128.5340596 112.17712494 129.0681192 111.7532196 129.61836243 C109.18167644 131.64488588 107.21116371 131.36031134 103.96801758 131.34057617 C102.10642754 131.34023628 102.10642754 131.34023628 100.20722961 131.33988953 C98.85299316 131.32456968 97.49876039 131.3089217 96.14453125 131.29296875 C94.7587683 131.28737251 93.37299941 131.28310254 91.98722839 131.28010559 C88.34237236 131.26865883 84.69787577 131.23919358 81.05316162 131.20599365 C77.33301748 131.17528886 73.61281345 131.16143501 69.89257812 131.14648438 C62.59473478 131.11591536 55.29787807 131.05719672 48 131 C48 145.52 48 160.04 48 175 C32.16 175 16.32 175 0 175 C0 117.25 0 59.5 0 0 Z " fill="#E91B2D" transform="translate(69,43)"/>
<path d="M0 0 C11.55 0 23.1 0 35 0 C35 13.53 35 27.06 35 41 C48.2 41 61.4 41 75 41 C75 52.88 75 64.76 75 77 C61.8 77 48.6 77 35 77 C35 105.05 35 133.1 35 162 C23.45 162 11.9 162 0 162 C0 108.54 0 55.08 0 0 Z " fill="#DF1C2D" transform="translate(76,50)"/>
<path d="M0 0 C26.3278125 -0.6496875 26.3278125 -0.6496875 53.1875 -1.3125 C61.43657349 -1.59927612 61.43657349 -1.59927612 69.85229492 -1.8918457 C111.51281881 -2.79137255 111.51281881 -2.79137255 122.875 7.71484375 C135.49527094 22.4092792 132.57789851 45.75335727 131.90826416 63.7545166 C131.77982289 67.93978639 131.76109192 72.1225236 131.7451067 76.30950737 C131.72348989 80.3595774 131.65795398 84.4079099 131.57672691 88.45718765 C131.5388814 90.38269082 131.50908501 92.3083706 131.48771095 94.23412704 C131.25992611 109.11900809 131.25992611 109.11900809 128.21195984 113.66943359 C126.21821877 115.42403369 124.30012184 116.6926262 122 118 C120.35931627 119.71581106 118.74839571 121.46129788 117.1875 123.25 C115.79546487 124.83667367 114.40008098 126.42042146 113 128 C112.58856247 128.5340596 112.17712494 129.0681192 111.7532196 129.61836243 C109.18167644 131.64488588 107.21116371 131.36031134 103.96801758 131.34057617 C102.10642754 131.34023628 102.10642754 131.34023628 100.20722961 131.33988953 C98.85299316 131.32456968 97.49876039 131.3089217 96.14453125 131.29296875 C94.7587683 131.28737251 93.37299941 131.28310254 91.98722839 131.28010559 C88.34237236 131.26865883 84.69787577 131.23919358 81.05316162 131.20599365 C77.33301748 131.17528886 73.61281345 131.16143501 69.89257812 131.14648438 C62.59473478 131.11591536 55.29787807 131.05719672 48 131 C48 145.52 48 160.04 48 175 C32.16 175 16.32 175 0 175 C0 117.25 0 59.5 0 0 Z M7 7 C7 60.46 7 113.92 7 169 C18.55 169 30.1 169 42 169 C42 140.95 42 112.9 42 84 C55.2 84 68.4 84 82 84 C82 72.12 82 60.24 82 48 C68.8 48 55.6 48 42 48 C42 34.47 42 20.94 42 7 C30.45 7 18.9 7 7 7 Z M48 7 C48 18.55 48 30.1 48 42 C61.2 42 74.4 42 88 42 C88 57.84 88 73.68 88 90 C74.8 90 61.6 90 48 90 C48 101.55 48 113.1 48 125 C55.41876537 125.33807032 62.80897818 125.65773565 70.22877502 125.82800293 C73.6844205 125.91177311 77.13356264 126.02309082 80.58544922 126.20703125 C99.84186537 127.45889034 99.84186537 127.45889034 116.78125 119.625 C127.90930737 107.81236972 125.36453619 86.92631615 125.0859375 71.92871094 C124.99470049 66.98867491 125.04895048 62.06238516 125.14070892 57.12281799 C126.35951331 33.20581185 126.35951331 33.20581185 116.78125 12.375 C106.37183652 3.49063391 91.33830214 5.21998226 78.5512085 5.90136719 C75.09957907 6.06733955 71.64593434 6.13947652 68.19140625 6.21875 C61.45073976 6.38010647 54.74180936 6.69277831 48 7 Z " fill="#FDF3F4" transform="translate(69,43)"/>
</svg>
