<?xml version="1.0" encoding="UTF-8"?>
<svg version="1.1" xmlns="http://www.w3.org/2000/svg" width="512" height="512">
<path d="M0 0 C1.95582718 -0.01362505 3.9116437 -0.02886163 5.8674469 -0.045578 C11.15245996 -0.08500082 16.43722764 -0.09865845 21.72237325 -0.10503602 C25.02867721 -0.11011585 28.33491877 -0.12063846 31.64120293 -0.13303185 C43.18759462 -0.17595306 54.73380445 -0.1972439 66.28027344 -0.19921875 C77.02627595 -0.20165546 87.77131526 -0.25272356 98.51704603 -0.32611066 C107.76154828 -0.38700627 117.00573326 -0.41313427 126.25043482 -0.41255397 C131.76409008 -0.41283677 137.2768197 -0.4271779 142.79026985 -0.47690773 C147.97419564 -0.52252875 153.15637974 -0.52476963 158.34039879 -0.49421883 C160.23744576 -0.49032139 162.13459772 -0.50166972 164.03144073 -0.52975845 C180.11844999 -0.75298558 180.11844999 -0.75298558 186.57518005 5.01094055 C187.93120965 6.51224961 189.26182401 8.03744838 190.55053711 9.59692383 C192.3061192 11.07358166 194.07341422 12.53671071 195.86303711 13.97192383 C199.97027064 17.29710302 204.0254199 20.6734994 208.05053711 24.09692383 C211.99692594 27.45152788 215.96696204 30.76914554 219.98803711 34.03442383 C224.85103135 37.99135801 229.60753914 42.06128324 234.35668945 46.15307617 C238.77085477 49.94855749 243.25386909 53.64970296 247.77319336 57.31958008 C250.89450078 59.87896436 253.97503741 62.48286174 257.05053711 65.09692383 C261.01957254 68.46975972 265.01070732 71.80869028 269.05053711 75.09692383 C275.85467497 80.63884481 282.53029589 86.33001306 289.21655273 92.01293945 C295.67460637 97.49962897 302.16551327 102.93469512 308.73803711 108.28442383 C312.43068075 111.32059749 316.07175499 114.41542353 319.71459961 117.51098633 C323.13113251 120.40937206 326.57558549 123.26847483 330.05053711 126.09692383 C335.71526944 130.70987106 341.36985309 135.35670674 346.84875774 140.19059753 C348.51411458 141.62723607 348.51411458 141.62723607 350.35715199 142.7389679 C353.41124607 144.83326809 355.25593616 146.45626359 356.20064354 150.11405945 C356.45978815 153.38663138 356.48417064 156.59532016 356.44189453 159.87817383 C356.45339098 161.16569046 356.46488743 162.45320709 356.47673225 163.77973938 C356.50820633 167.43300144 356.49534875 171.0850463 356.47629571 174.7383461 C356.46288439 178.7989695 356.49013494 182.859363 356.51200867 186.91992188 C356.54691936 194.45995077 356.55435911 201.99969465 356.54901123 209.53979492 C356.54124548 222.67654059 356.59591218 235.81281595 356.65297914 248.94941521 C356.76942746 275.92593532 356.82211708 302.90225988 356.83969307 329.87901306 C356.84165773 332.83088178 356.84366826 335.78275047 356.84570312 338.73461914 C356.84643654 339.83326253 356.84643654 339.83326253 356.84718476 340.95410073 C356.85559894 352.99538377 356.88122138 365.03657144 356.9132838 377.07781231 C356.94636299 389.60642907 356.96436142 402.13499656 356.96756142 414.66365719 C356.96971144 421.63428361 356.97825191 428.60476511 357.0040226 435.5753479 C357.02799967 442.07040552 357.03155249 448.56527195 357.02126122 455.06036758 C357.02076621 457.43272909 357.02707606 459.80510362 357.04081726 462.17742538 C357.05855957 465.42133159 357.05142065 468.66429546 357.0382843 471.90820312 C357.05473817 473.30087261 357.05473817 473.30087261 357.07152444 474.72167683 C356.96397743 485.76768618 352.84067331 495.04966128 345.42553711 503.15942383 C338.81470269 509.59891913 330.78209607 512.715573 321.66984463 512.73114491 C320.45992586 512.73560275 319.25000708 512.74006059 318.00342411 512.74465352 C316.65897523 512.74456423 315.31452636 512.74437438 313.97007751 512.74409485 C312.54315817 512.74739455 311.11623976 512.75112034 309.68932253 512.75523633 C305.76324915 512.76525249 301.83719105 512.76897251 297.91110671 512.77162564 C293.67847331 512.77552986 289.445852 512.78510815 285.21322632 512.7938385 C274.98857678 512.81360016 264.76392625 512.823669 254.53926238 512.83256629 C249.72357277 512.83694991 244.90788426 512.84231655 240.09219551 512.84755516 C224.08226595 512.86456756 208.07233708 512.87906137 192.06239986 512.8863039 C187.90781084 512.88821378 183.75322182 512.89013411 179.59863281 512.89208984 C178.56603691 512.89257358 177.533441 512.89305732 176.46955431 512.89355572 C159.74506836 512.90185465 143.02065397 512.9271892 126.29619925 512.95967052 C109.12321961 512.99275084 91.95027632 513.01075357 74.77726465 513.01394814 C65.13622861 513.0161124 55.49529689 513.02484863 45.85429192 513.05040932 C37.64285385 513.07212963 29.43154545 513.0801602 21.22008192 513.07044253 C17.03236395 513.06590162 12.84491347 513.06777179 8.65723228 513.08720398 C4.81827002 513.10486369 0.97976981 513.10381552 -2.85919755 513.08830669 C-4.89486798 513.08481716 -6.93054341 513.10093594 -8.96614605 513.11791116 C-20.85288498 513.03486192 -29.60507154 510.43304757 -38.21899414 502.09301758 C-47.50252765 491.7039144 -48.75803516 481.5951468 -48.64477539 468.12817383 C-48.6419455 466.8521228 -48.6391156 465.57607178 -48.63619995 464.26135254 C-48.62694286 460.89445324 -48.60902251 457.527833 -48.58679199 454.16101074 C-48.56620961 450.71519359 -48.55717193 447.26934744 -48.54711914 443.82348633 C-48.52512922 437.08122271 -48.49170439 430.33908935 -48.44946289 423.59692383 C-49.2610083 423.60739746 -50.07255371 423.61787109 -50.90869141 423.62866211 C-54.60975001 423.67041033 -58.3107589 423.69630996 -62.01196289 423.72192383 C-63.2887793 423.73868164 -64.5655957 423.75543945 -65.88110352 423.77270508 C-80.71909245 423.84978554 -80.71909245 423.84978554 -85.19165039 420.15942383 C-88.63337826 415.41221297 -89.57488155 413.28056433 -89.59663391 407.4364624 C-89.60378922 406.12136185 -89.61094452 404.80626129 -89.61831665 403.4513092 C-89.62115707 401.98519921 -89.62386878 400.51908896 -89.62646484 399.05297852 C-89.63272835 397.51563869 -89.63937505 395.97830038 -89.64637756 394.44096375 C-89.66379863 390.25693373 -89.67434251 386.07291515 -89.68258309 381.88885784 C-89.68773131 379.27531167 -89.69380715 376.66176906 -89.70009422 374.0482254 C-89.7191501 365.87259518 -89.73337993 357.696974 -89.74170619 349.52132583 C-89.75147861 340.08121546 -89.7777965 330.64133957 -89.81820709 321.20131183 C-89.84836171 313.90696855 -89.86317447 306.61269249 -89.86648721 299.31828809 C-89.8688386 294.96073084 -89.87781039 290.60342397 -89.90294838 286.24593353 C-89.92622256 282.14517014 -89.93046512 278.04482209 -89.920187 273.94400978 C-89.91969135 272.44038576 -89.92602042 270.93674134 -89.93974304 269.43317986 C-89.95745873 267.37673003 -89.95035968 265.32177131 -89.93721008 263.26531982 C-89.93959844 262.11567623 -89.94198679 260.96603264 -89.94444752 259.78155136 C-89.21599458 255.09483758 -86.93652918 251.98805036 -83.51196289 248.78442383 C-79.23533918 246.32212533 -74.66468867 246.4772196 -69.83618164 246.49926758 C-68.58901367 246.50249023 -67.3418457 246.50571289 -66.05688477 246.5090332 C-64.76331055 246.51741211 -63.46973633 246.52579102 -62.13696289 246.53442383 C-60.16759766 246.54119141 -60.16759766 246.54119141 -58.15844727 246.5480957 C-54.92207279 246.55986434 -51.68579112 246.57630623 -48.44946289 246.59692383 C-48.45222827 245.49808931 -48.45499365 244.3992548 -48.45784283 243.26712227 C-48.52447218 216.51726258 -48.57375477 189.76741366 -48.60489941 163.01748848 C-48.62036144 150.0813718 -48.64143836 137.14530998 -48.67578125 124.20922852 C-48.70570382 112.93278335 -48.72504272 101.65637791 -48.73172837 90.37989414 C-48.73563576 84.41032865 -48.74480504 78.44087683 -48.76665306 72.47134781 C-48.78706324 66.84896 -48.79328748 61.22673233 -48.78878593 55.60431099 C-48.7896091 53.54442918 -48.79554761 51.48454185 -48.80707932 49.42469215 C-48.88864184 34.09979707 -48.21471238 22.21648613 -37.44555664 10.39770508 C-26.56753273 -0.13004257 -14.26871534 -0.00521409 0 0 Z " fill="#E9E9E9" transform="translate(122.449462890625,-0.596923828125)"/>
<path d="M0 0 C1.95582718 -0.01362505 3.9116437 -0.02886163 5.8674469 -0.045578 C11.15245996 -0.08500082 16.43722764 -0.09865845 21.72237325 -0.10503602 C25.02867721 -0.11011585 28.33491877 -0.12063846 31.64120293 -0.13303185 C43.18759462 -0.17595306 54.73380445 -0.1972439 66.28027344 -0.19921875 C77.02627595 -0.20165546 87.77131526 -0.25272356 98.51704603 -0.32611066 C107.76154828 -0.38700627 117.00573326 -0.41313427 126.25043482 -0.41255397 C131.76409008 -0.41283677 137.2768197 -0.4271779 142.79026985 -0.47690773 C147.97419564 -0.52252875 153.15637974 -0.52476963 158.34039879 -0.49421883 C160.23744576 -0.49032139 162.13459772 -0.50166972 164.03144073 -0.52975845 C180.11844999 -0.75298558 180.11844999 -0.75298558 186.57518005 5.01094055 C187.93120965 6.51224961 189.26182401 8.03744838 190.55053711 9.59692383 C192.3061192 11.07358166 194.07341422 12.53671071 195.86303711 13.97192383 C199.97027064 17.29710302 204.0254199 20.6734994 208.05053711 24.09692383 C211.99692594 27.45152788 215.96696204 30.76914554 219.98803711 34.03442383 C224.85103135 37.99135801 229.60753914 42.06128324 234.35668945 46.15307617 C238.77085477 49.94855749 243.25386909 53.64970296 247.77319336 57.31958008 C250.89450078 59.87896436 253.97503741 62.48286174 257.05053711 65.09692383 C261.01957254 68.46975972 265.01070732 71.80869028 269.05053711 75.09692383 C275.85467497 80.63884481 282.53029589 86.33001306 289.21655273 92.01293945 C295.67460637 97.49962897 302.16551327 102.93469512 308.73803711 108.28442383 C312.43068075 111.32059749 316.07175499 114.41542353 319.71459961 117.51098633 C323.13113251 120.40937206 326.57558549 123.26847483 330.05053711 126.09692383 C335.71526944 130.70987106 341.36985309 135.35670674 346.84875774 140.19059753 C348.51411458 141.62723607 348.51411458 141.62723607 350.35715199 142.7389679 C353.41124607 144.83326809 355.25593616 146.45626359 356.20064354 150.11405945 C356.45978815 153.38663138 356.48417064 156.59532016 356.44189453 159.87817383 C356.45339098 161.16569046 356.46488743 162.45320709 356.47673225 163.77973938 C356.50820633 167.43300144 356.49534875 171.0850463 356.47629571 174.7383461 C356.46288439 178.7989695 356.49013494 182.859363 356.51200867 186.91992188 C356.54691936 194.45995077 356.55435911 201.99969465 356.54901123 209.53979492 C356.54124548 222.67654059 356.59591218 235.81281595 356.65297914 248.94941521 C356.76942746 275.92593532 356.82211708 302.90225988 356.83969307 329.87901306 C356.84165773 332.83088178 356.84366826 335.78275047 356.84570312 338.73461914 C356.84643654 339.83326253 356.84643654 339.83326253 356.84718476 340.95410073 C356.85559894 352.99538377 356.88122138 365.03657144 356.9132838 377.07781231 C356.94636299 389.60642907 356.96436142 402.13499656 356.96756142 414.66365719 C356.96971144 421.63428361 356.97825191 428.60476511 357.0040226 435.5753479 C357.02799967 442.07040552 357.03155249 448.56527195 357.02126122 455.06036758 C357.02076621 457.43272909 357.02707606 459.80510362 357.04081726 462.17742538 C357.05855957 465.42133159 357.05142065 468.66429546 357.0382843 471.90820312 C357.05473817 473.30087261 357.05473817 473.30087261 357.07152444 474.72167683 C356.96397743 485.76768618 352.84067331 495.04966128 345.42553711 503.15942383 C338.81470269 509.59891913 330.78209607 512.715573 321.66984463 512.73114491 C320.45992586 512.73560275 319.25000708 512.74006059 318.00342411 512.74465352 C316.65897523 512.74456423 315.31452636 512.74437438 313.97007751 512.74409485 C312.54315817 512.74739455 311.11623976 512.75112034 309.68932253 512.75523633 C305.76324915 512.76525249 301.83719105 512.76897251 297.91110671 512.77162564 C293.67847331 512.77552986 289.445852 512.78510815 285.21322632 512.7938385 C274.98857678 512.81360016 264.76392625 512.823669 254.53926238 512.83256629 C249.72357277 512.83694991 244.90788426 512.84231655 240.09219551 512.84755516 C224.08226595 512.86456756 208.07233708 512.87906137 192.06239986 512.8863039 C187.90781084 512.88821378 183.75322182 512.89013411 179.59863281 512.89208984 C178.56603691 512.89257358 177.533441 512.89305732 176.46955431 512.89355572 C159.74506836 512.90185465 143.02065397 512.9271892 126.29619925 512.95967052 C109.12321961 512.99275084 91.95027632 513.01075357 74.77726465 513.01394814 C65.13622861 513.0161124 55.49529689 513.02484863 45.85429192 513.05040932 C37.64285385 513.07212963 29.43154545 513.0801602 21.22008192 513.07044253 C17.03236395 513.06590162 12.84491347 513.06777179 8.65723228 513.08720398 C4.81827002 513.10486369 0.97976981 513.10381552 -2.85919755 513.08830669 C-4.89486798 513.08481716 -6.93054341 513.10093594 -8.96614605 513.11791116 C-20.85288498 513.03486192 -29.60507154 510.43304757 -38.21899414 502.09301758 C-47.50252765 491.7039144 -48.75803516 481.5951468 -48.64477539 468.12817383 C-48.6419455 466.8521228 -48.6391156 465.57607178 -48.63619995 464.26135254 C-48.62694286 460.89445324 -48.60902251 457.527833 -48.58679199 454.16101074 C-48.56620961 450.71519359 -48.55717193 447.26934744 -48.54711914 443.82348633 C-48.52512922 437.08122271 -48.49170439 430.33908935 -48.44946289 423.59692383 C-49.2610083 423.60739746 -50.07255371 423.61787109 -50.90869141 423.62866211 C-54.60975001 423.67041033 -58.3107589 423.69630996 -62.01196289 423.72192383 C-63.2887793 423.73868164 -64.5655957 423.75543945 -65.88110352 423.77270508 C-80.71909245 423.84978554 -80.71909245 423.84978554 -85.19165039 420.15942383 C-88.63337826 415.41221297 -89.57488155 413.28056433 -89.59663391 407.4364624 C-89.60378922 406.12136185 -89.61094452 404.80626129 -89.61831665 403.4513092 C-89.62115707 401.98519921 -89.62386878 400.51908896 -89.62646484 399.05297852 C-89.63272835 397.51563869 -89.63937505 395.97830038 -89.64637756 394.44096375 C-89.66379863 390.25693373 -89.67434251 386.07291515 -89.68258309 381.88885784 C-89.68773131 379.27531167 -89.69380715 376.66176906 -89.70009422 374.0482254 C-89.7191501 365.87259518 -89.73337993 357.696974 -89.74170619 349.52132583 C-89.75147861 340.08121546 -89.7777965 330.64133957 -89.81820709 321.20131183 C-89.84836171 313.90696855 -89.86317447 306.61269249 -89.86648721 299.31828809 C-89.8688386 294.96073084 -89.87781039 290.60342397 -89.90294838 286.24593353 C-89.92622256 282.14517014 -89.93046512 278.04482209 -89.920187 273.94400978 C-89.91969135 272.44038576 -89.92602042 270.93674134 -89.93974304 269.43317986 C-89.95745873 267.37673003 -89.95035968 265.32177131 -89.93721008 263.26531982 C-89.93959844 262.11567623 -89.94198679 260.96603264 -89.94444752 259.78155136 C-89.21599458 255.09483758 -86.93652918 251.98805036 -83.51196289 248.78442383 C-79.23533918 246.32212533 -74.66468867 246.4772196 -69.83618164 246.49926758 C-68.58901367 246.50249023 -67.3418457 246.50571289 -66.05688477 246.5090332 C-64.76331055 246.51741211 -63.46973633 246.52579102 -62.13696289 246.53442383 C-60.16759766 246.54119141 -60.16759766 246.54119141 -58.15844727 246.5480957 C-54.92207279 246.55986434 -51.68579112 246.57630623 -48.44946289 246.59692383 C-48.45222827 245.49808931 -48.45499365 244.3992548 -48.45784283 243.26712227 C-48.52447218 216.51726258 -48.57375477 189.76741366 -48.60489941 163.01748848 C-48.62036144 150.0813718 -48.64143836 137.14530998 -48.67578125 124.20922852 C-48.70570382 112.93278335 -48.72504272 101.65637791 -48.73172837 90.37989414 C-48.73563576 84.41032865 -48.74480504 78.44087683 -48.76665306 72.47134781 C-48.78706324 66.84896 -48.79328748 61.22673233 -48.78878593 55.60431099 C-48.7896091 53.54442918 -48.79554761 51.48454185 -48.80707932 49.42469215 C-48.88864184 34.09979707 -48.21471238 22.21648613 -37.44555664 10.39770508 C-26.56753273 -0.13004257 -14.26871534 -0.00521409 0 0 Z M-34.44946289 19.59692383 C-39.45749339 26.43281115 -40.74855469 33.24408748 -40.68997192 41.48068237 C-40.69168077 42.36377268 -40.69338962 43.24686299 -40.69515026 44.1567136 C-40.69843881 47.10936029 -40.68745186 50.06177862 -40.67651367 53.0144043 C-40.67594942 55.13348892 -40.67626639 57.25257393 -40.67739868 59.37165833 C-40.67797265 65.12115392 -40.66621107 70.87056612 -40.65225077 76.62004232 C-40.63975087 82.62983878 -40.63857349 88.63963713 -40.63619995 94.64944458 C-40.62998301 106.0284135 -40.61356927 117.40734401 -40.59350097 128.78629601 C-40.57114865 141.74144328 -40.56015021 154.69659239 -40.5501101 167.65175414 C-40.52920326 194.30016534 -40.49402309 220.94854243 -40.44946289 247.59692383 C-39.50069403 247.59838904 -39.50069403 247.59838904 -38.53275812 247.59988385 C-1.05551918 247.65813975 36.42165924 247.73192428 73.89882622 247.82591011 C78.39747566 247.83717845 82.89612542 247.84831687 87.39477539 247.859375 C88.29038596 247.86157868 89.18599653 247.86378237 90.10874681 247.86605283 C104.61556975 247.90143751 119.12239263 247.92629503 133.62924273 247.94727085 C148.5115696 247.96902357 163.3938404 248.00206896 178.27611959 248.04562539 C187.4613144 248.07215122 196.64643934 248.08983972 205.83167057 248.09626987 C212.12798081 248.1015209 218.42420309 248.11772829 224.72046621 248.14258949 C228.35458062 248.15661428 231.9885375 248.16577167 235.62268066 248.16193199 C239.56185536 248.15789619 243.50072618 248.17691301 247.43984985 248.19819641 C249.16456101 248.19092505 249.16456101 248.19092505 250.92411482 248.18350679 C261.07313409 248.27430887 261.07313409 248.27430887 265.55053711 251.59692383 C269.08759261 255.78893373 270.05121571 258.72712424 270.05847168 264.16247559 C270.07539062 266.11813194 270.07539062 266.11813194 270.09265137 268.11329651 C270.08487523 269.54599223 270.07668262 270.97868574 270.06811523 272.41137695 C270.07353908 273.92960785 270.08066321 275.44783349 270.08935547 276.96604919 C270.10756083 281.07973369 270.10053298 285.19301603 270.08783913 289.30670738 C270.07769694 293.61606284 270.08710819 297.92538437 270.09338379 302.23474121 C270.10065665 309.47092863 270.09108201 316.70695264 270.07202148 323.94311523 C270.05025337 332.30362624 270.057305 340.66374704 270.07932711 349.0242486 C270.09749143 356.20830193 270.1000344 363.39223794 270.08957243 370.57630682 C270.08334315 374.8644586 270.08248622 379.15242709 270.09571838 383.44056702 C270.10729137 387.47250149 270.09922513 391.50393392 270.07614136 395.53581429 C270.07086194 397.01361826 270.07235496 398.49146465 270.08119202 399.96925163 C270.09215958 401.98994287 270.07595286 404.01072668 270.05847168 406.03137207 C270.05620953 407.72592152 270.05620953 407.72592152 270.05390167 409.45470428 C269.24971575 414.47478103 267.11119538 417.43878227 263.05745506 420.44700336 C257.85137754 422.15407925 252.88585841 422.01861156 247.43984985 421.99565125 C246.2096576 422.00229807 244.97946534 422.0089449 243.71199453 422.01579314 C240.30492333 422.03120597 236.89831912 422.03326345 233.49124646 422.02966368 C229.81439019 422.02903955 226.13760693 422.0456625 222.46078491 422.06018066 C216.09297774 422.08296854 209.72522528 422.0948521 203.35737991 422.09930992 C194.15058268 422.10577096 184.94388436 422.12870751 175.73712699 422.15565322 C160.799456 422.19892487 145.86178916 422.22888947 130.92407227 422.25048828 C116.41428582 422.27149683 101.90453344 422.29877085 87.39477539 422.33447266 C86.50025306 422.33667148 85.60573073 422.33887031 84.68410166 422.34113576 C80.19650383 422.35220538 75.70890632 422.3633982 71.22130895 422.37465227 C33.99774774 422.46784274 -3.22583028 422.53943822 -40.44946289 422.59692383 C-40.54273128 429.83870645 -40.61351257 437.08035655 -40.65671158 444.32262135 C-40.67746011 447.68665308 -40.7055388 451.05026963 -40.7512207 454.4140625 C-40.80008993 458.29413539 -40.82251294 462.17362909 -40.84008789 466.05395508 C-40.86073303 467.24398636 -40.88137817 468.43401764 -40.90264893 469.66011047 C-40.90547494 480.32676012 -38.76164365 489.10471937 -31.24243164 496.94458008 C-25.32533095 502.39759444 -19.39959453 504.84327364 -11.37955761 504.85419273 C-10.17835693 504.86064163 -8.97715624 504.86709052 -7.73955554 504.87373483 C-6.4285764 504.87063763 -5.11759726 504.86754042 -3.76689148 504.86434937 C-2.35331839 504.86808734 -0.93974737 504.87268945 0.47382039 504.87808001 C4.35365235 504.89030721 8.23339806 504.89004988 12.11324489 504.88769126 C16.29945826 504.88728302 20.485644 504.89832288 24.67184448 504.9078064 C32.87166807 504.92441573 41.0714629 504.92991591 49.2713019 504.93103115 C55.9367995 504.93198164 62.60228761 504.93609196 69.26778221 504.9424324 C88.16751941 504.96004447 107.0672339 504.9692713 125.96697936 504.96777146 C126.98576191 504.96769154 128.00454447 504.96761163 129.05419922 504.9675293 C130.58423981 504.96740665 130.58423981 504.96740665 132.14519032 504.96728154 C148.67690935 504.9664686 165.20853727 504.98560829 181.74022994 505.01380603 C198.71664615 505.04253375 215.69301792 505.05634639 232.66945904 505.05461848 C242.19973071 505.05395455 251.72990686 505.0594482 261.26015663 505.08097458 C269.37426092 505.09918487 277.48822641 505.10353495 285.60234229 505.08995573 C289.74121575 505.08342536 293.8798229 505.08331125 298.01867104 505.10066223 C301.81058215 505.11639511 305.60201583 505.11352749 309.39391532 505.09609397 C311.40909099 505.09157489 313.42428148 505.10667969 315.43939954 505.12257326 C325.40596699 505.04675307 333.33718204 502.95423496 340.55491638 495.79469299 C350.96051051 484.3350536 349.34138194 470.76622135 349.17163086 456.22583008 C349.16327956 453.59727451 349.15734089 450.96881274 349.15432739 448.34025574 C349.14294961 442.62956552 349.10926383 436.9193515 349.06057739 431.2088623 C348.98922448 422.83506931 348.95108279 414.46137292 348.92041433 406.08734393 C348.86710298 391.78779499 348.78484559 377.48853719 348.69018555 363.18920898 C348.54936898 341.82829203 348.46097479 320.46728037 348.37831753 299.10607022 C348.30260403 279.59347257 348.21592059 260.0809201 348.1275773 240.56837606 C348.11298269 237.33486709 348.0985728 234.10135732 348.08417892 230.86784744 C348.03314567 219.48130712 347.978395 208.09479971 347.91436076 196.70832437 C347.88757517 191.94265955 347.86234501 187.17700052 347.84134293 182.41130638 C347.82191628 178.02226494 347.7978697 173.63327464 347.7700187 169.24427879 C347.76065854 167.64334448 347.75299789 166.04239923 347.74712551 164.44144833 C347.73890742 162.27542304 347.72465202 160.10952294 347.70875549 157.94354248 C347.70230294 156.7338467 347.69585039 155.52415092 347.68920231 154.2777977 C347.85472831 151.6779026 347.85472831 151.6779026 346.55053711 150.59692383 C344.38877819 150.48988112 342.22347073 150.45445451 340.05908203 150.44543457 C339.37289638 150.44120216 338.68671072 150.43696975 337.97973156 150.43260908 C335.6634876 150.41951632 333.3472781 150.41354311 331.03100586 150.4074707 C329.37732734 150.39953363 327.72365093 150.39114611 326.06997681 150.38233948 C322.50080981 150.36424456 318.93164758 150.34924263 315.36245728 150.33656311 C309.72484348 150.31639906 304.08728214 150.28873953 298.44970703 150.2598877 C286.48334155 150.19971401 274.51694475 150.14790508 262.55053711 150.09692383 C249.63416631 150.04189539 236.71781136 149.98547775 223.80149174 149.91937494 C218.19111679 149.89094978 212.58074819 149.86738119 206.97033691 149.84745026 C203.48713813 149.83410373 200.0039685 149.8166892 196.52079391 149.79813957 C194.89898793 149.79035547 193.27717264 149.78429827 191.65535355 149.78004646 C189.45084957 149.77403891 187.24646041 149.7620103 185.04199219 149.74841309 C183.80532303 149.74325935 182.56865387 149.73810562 181.29450989 149.73279572 C178.55053711 149.59692383 178.55053711 149.59692383 177.55053711 148.59692383 C177.4419071 146.78768263 177.40365675 144.97419188 177.39231873 143.16172791 C177.3776355 141.39269356 177.3776355 141.39269356 177.36265564 139.58792114 C177.35690018 138.28241302 177.35114471 136.97690491 177.34521484 135.63183594 C177.33564153 134.25239261 177.32563179 132.87295224 177.31521606 131.49351501 C177.28810157 127.7375146 177.26712757 123.98150153 177.24721408 120.22545695 C177.22539475 116.30429812 177.1979863 112.38317857 177.17115784 108.46205139 C177.12117597 101.03183621 177.0762576 93.60159929 177.03313547 86.17134148 C176.98380995 77.71437955 176.9288745 69.25745703 176.87345588 60.80053318 C176.75955153 43.39936645 176.652731 25.99816319 176.55053711 8.59692383 C151.41155219 8.50344007 126.27259337 8.43292472 101.13346958 8.38967514 C89.46066537 8.36905893 77.78796922 8.34095619 66.11523438 8.29516602 C55.94006446 8.2552696 45.76497282 8.22948417 35.58972687 8.22056985 C30.20309154 8.21535989 24.81668014 8.20313394 19.43011665 8.1740036 C14.35679005 8.14679034 9.28377894 8.13849084 4.21038628 8.1444931 C2.3516455 8.14339552 0.49289382 8.13547698 -1.36578369 8.12010193 C-14.95270917 8.01325305 -24.81938752 9.20255676 -34.44946289 19.59692383 Z " fill="#1665C0" transform="translate(122.449462890625,-0.596923828125)"/>
<path d="M0 0 C9.4978125 -0.12375 9.4978125 -0.12375 19.1875 -0.25 C21.1574292 -0.28641602 23.1273584 -0.32283203 25.15698242 -0.36035156 C36.7311059 -0.48532193 47.74556114 -0.19113826 57.4375 7 C66.49083214 15.91906662 68.19844265 27.21824797 68.3125 39.3125 C68.33360033 50.07718577 65.5641769 59.0604297 58 67 C49.71155556 73.42777324 41.58440279 74.15835506 31.4453125 74.09765625 C30.64536865 74.09664917 29.8454248 74.09564209 29.02124023 74.09460449 C26.05581207 74.08940396 23.09040448 74.07544286 20.125 74.0625 C10.163125 74.0315625 10.163125 74.0315625 0 74 C0 49.58 0 25.16 0 0 Z " fill="#FBFCFD" transform="translate(182,298)"/>
<path d="M0 0 C7.59 -0.0825 15.18 -0.165 23 -0.25 C25.38089844 -0.28641602 27.76179688 -0.32283203 30.21484375 -0.36035156 C32.12238669 -0.37204459 34.02993968 -0.38223496 35.9375 -0.390625 C37.39833008 -0.4213208 37.39833008 -0.4213208 38.88867188 -0.45263672 C46.1233971 -0.45630544 51.79810364 0.83455787 57.05859375 6.03515625 C57.74115234 7.03869141 57.74115234 7.03869141 58.4375 8.0625 C58.91058594 8.73410156 59.38367188 9.40570313 59.87109375 10.09765625 C63.37711118 16.00572023 62.94417421 24.14936179 61.3515625 30.64453125 C58.83981813 36.94536009 54.9974876 40.94681571 48.9921875 44.03125 C40.47245995 47.23727988 30.91482987 46.18834148 22 46 C22 54.91 22 63.82 22 73 C14.74 73 7.48 73 0 73 C0 48.91 0 24.82 0 0 Z " fill="#FEFEFE" transform="translate(108,299)"/>
<path d="M0 0 C18.81 0 37.62 0 57 0 C57 5.28 57 10.56 57 16 C45.78 16 34.56 16 23 16 C23 20.29 23 24.58 23 29 C32.57 29 42.14 29 52 29 C52 33.95 52 38.9 52 44 C42.43 44 32.86 44 23 44 C23 53.9 23 63.8 23 74 C15.41 74 7.82 74 0 74 C0 49.58 0 25.16 0 0 Z " fill="#FAFBFD" transform="translate(262,298)"/>
<path d="M0 0 C12.75862069 0 12.75862069 0 17 3 C21.90679567 8.30464397 22.20481064 12.70009578 22.25 19.6875 C22.270625 20.46544922 22.29125 21.24339844 22.3125 22.04492188 C22.34743612 27.28097229 21.96276636 32.52464333 19 37 C14 40 14 40 0 40 C0 26.8 0 13.6 0 0 Z " fill="#1766C0" transform="translate(205,315)"/>
<path d="M0 0 C10.90084986 -0.44192635 10.90084986 -0.44192635 16 3 C18 6 18 6 17.9375 9.4375 C17 13 17 13 15.1875 15.4375 C10.1521613 17.90580328 5.561976 17.24448246 0 17 C0 11.39 0 5.78 0 0 Z " fill="#226DC3" transform="translate(130,313)"/>
</svg>
