<?xml version="1.0" encoding="UTF-8"?>
<svg version="1.1" xmlns="http://www.w3.org/2000/svg" width="1875" height="1875">
<path d="M0 0 C2.66715811 0.00565581 5.33430981 0.00846681 8.00147247 0.0110817 C35.40268118 0.05008879 62.64856672 0.5899502 89.93354034 3.31805801 C90.81997223 3.40527115 91.70640411 3.49248428 92.61969757 3.58234024 C177.52798518 11.99272838 261.36585463 30.76998885 471.93354034 124.31805801 C473.05720001 124.96291153 473.05720001 124.96291153 474.20355988 125.62079239 C503.51439741 142.4784262 531.75894916 161.2040663 558.93354034 181.31805801 C559.49379913 181.73200821 560.05405792 182.1459584 560.63129425 182.57245255 C564.08447089 185.12946516 567.51368415 187.71670936 570.93354034 190.31805801 C572.44754425 191.46467911 572.44754425 191.46467911 573.99213409 192.63446426 C586.74868418 202.33912338 599.12685498 212.51895126 611.30951691 222.93231583 C613.00068255 224.37534893 614.69728654 225.81180619 616.39447784 227.24774551 C623.77463176 233.5094469 630.96111807 239.93759221 638.02558136 246.55365372 C639.44756533 247.86864773 640.88247749 249.16968816 642.3239212 250.46332169 C651.40919061 258.65851502 660.05018473 267.28270146 668.68964386 275.94379044 C671.25483498 278.51437112 673.82536766 281.07952394 676.39643097 283.64422989 C678.05104878 285.2995081 679.70535659 286.95509626 681.35932159 288.61102676 C682.11675156 289.3664325 682.87418152 290.12183823 683.6545639 290.90013504 C687.73138565 294.99476733 691.64790257 299.17292981 695.41152191 303.55792618 C697.80040474 306.32053972 700.31034412 308.9672161 702.80854034 311.63055801 C707.24819328 316.40216696 711.45013176 321.29973791 715.53119659 326.38446426 C718.38315609 329.86710098 721.3419616 333.24567094 724.30854034 336.63055801 C729.91880356 343.0588495 735.24822466 349.65687465 740.45746613 356.4122963 C742.05225514 358.47133087 743.66166325 360.51834691 745.27338409 362.56415176 C757.44602589 378.04781994 768.9022781 394.00438373 779.93354034 410.31805801 C780.41146027 411.02398087 780.88938019 411.72990372 781.38178253 412.45721817 C829.15017986 483.16515238 866.32829712 559.42916683 909.93354034 693.31805801 C910.12327423 694.02456497 910.31300812 694.73107193 910.50849152 695.45898819 C931.19787985 772.57019065 941.59746068 851.96425799 941.32465363 931.76776505 C941.30756338 936.80867407 941.31775611 941.84910744 941.33497524 946.89000034 C941.43386268 981.10860956 939.80454094 1015.1511303 935.62104034 1049.13055801 C935.5168277 1049.99875168 935.41261505 1050.86694534 935.30524445 1051.76144791 C924.73704509 1139.55720688 901.70867022 1225.44852332 848.93354034 1346.31805801 C848.61643097 1346.97076675 848.29932159 1347.62347549 847.97260284 1348.29596329 C839.66019494 1365.39410173 831.02556771 1382.22223555 821.46723175 1398.66522598 C819.91954021 1401.34227411 818.39767114 1404.03249758 816.88275909 1406.72821426 C806.95077321 1424.37525361 796.0161435 1441.27523229 784.80854034 1458.13055801 C784.34522308 1458.82830338 783.88190582 1459.52604874 783.40454865 1460.2449379 C777.09469765 1469.73722868 770.62292094 1479.08932314 763.93354034 1488.31805801 C763.30061066 1489.19180069 762.66768097 1490.06554337 762.01557159 1490.96576309 C744.84891342 1514.55783569 726.59639703 1537.4672025 706.96869659 1559.06805801 C705.15976492 1561.06795177 703.38462234 1563.09075234 701.62104034 1565.13055801 C694.5959024 1573.18496036 687.32607113 1581.01867059 679.70697784 1588.51337051 C677.96693762 1590.28407224 676.35421551 1592.1149716 674.74604034 1594.00555801 C667.76922643 1602.1025026 660.03707276 1609.66811367 651.89057159 1616.57977676 C649.46901046 1618.7306644 647.20979239 1621.01417317 644.93354034 1623.31805801 C641.42177484 1626.86723958 637.84345134 1630.23774259 634.05072784 1633.48212051 C631.52754579 1635.67011971 629.07799515 1637.93098914 626.62104034 1640.19305801 C622.15831202 1644.26345857 617.57096034 1648.11982711 612.87104034 1651.91180801 C609.56999365 1654.61585691 606.34618917 1657.39950278 603.12104034 1660.19305801 C596.8537228 1665.59941934 590.41894984 1670.74919714 583.87299347 1675.81268692 C581.75619782 1677.45570831 579.64915147 1679.1107431 577.54291534 1680.76727676 C569.11942805 1687.37995681 560.6292298 1693.84020082 551.85053253 1699.97381973 C549.73826461 1701.45498977 547.63662498 1702.95059011 545.53510284 1704.44696426 C506.26439102 1732.30908667 464.92489632 1756.67050802 421.93354034 1778.31805801 C421.29394379 1778.64074661 420.65434723 1778.96343521 419.99536896 1779.29590225 C348.24187754 1815.45197974 271.48490673 1841.11614158 100.80854034 1871.56805801 C100.0770578 1871.64528091 99.34557526 1871.72250381 98.59192657 1871.8020668 C93.04465831 1872.37920286 87.49197437 1872.86224539 81.93354034 1873.31805801 C80.4021492 1873.44886261 80.4021492 1873.44886261 78.83982086 1873.58230972 C56.00299969 1875.48097584 33.21713406 1875.66156189 10.3136673 1875.63373184 C6.20483141 1875.62911917 2.09629291 1875.63597214 -2.01250458 1875.65423965 C-30.16220793 1875.77805184 -58.02725074 1874.86798016 -86.06645966 1872.31805801 C-87.21915344 1872.21337204 -88.37184723 1872.10868607 -89.55947113 1872.00082779 C-95.38748298 1871.45238017 -101.19666171 1870.80227211 -107.00395966 1870.06805801 C-107.83847656 1869.9654567 -108.67299347 1869.86285538 -109.53279877 1869.75714493 C-171.6614913 1862.09392222 -232.55039731 1848.65563254 -291.98412323 1829.0050087 C-293.94904175 1828.3567935 -295.91577381 1827.71448828 -297.88335419 1827.07440567 C-356.61069375 1807.88168225 -414.10660731 1781.60188441 -467.18169403 1750.02801895 C-469.97357574 1748.37311547 -472.77557251 1746.73706413 -475.58208466 1745.10712051 C-494.95431613 1733.82666839 -513.89205803 1721.87448859 -532.07036591 1708.74921036 C-534.13053291 1707.272119 -536.20513113 1705.817738 -538.28520966 1704.36883926 C-548.43249883 1697.29480189 -558.30575451 1689.91551575 -568.06645966 1682.31805801 C-568.70245087 1681.82386368 -569.33844208 1681.32966934 -569.99370575 1680.82049942 C-580.59787617 1672.56972773 -591.01076615 1664.10531659 -601.23955536 1655.39300919 C-604.55231011 1652.57675227 -607.91327831 1649.83763408 -611.31645966 1647.13055801 C-617.04055676 1642.47920531 -622.3665706 1637.42946745 -627.70220184 1632.34076309 C-631.33543748 1628.87624422 -635.00335317 1625.46894635 -638.75688934 1622.1347084 C-643.76777859 1617.63253348 -648.57185675 1612.95782471 -653.32817841 1608.18915176 C-654.16307297 1607.35521393 -654.99796753 1606.52127609 -655.85816193 1605.66206741 C-657.60631246 1603.91459175 -659.35322351 1602.16587529 -661.09893036 1600.4159584 C-663.75429925 1597.75521774 -666.41498583 1595.09987871 -669.07622528 1592.44501114 C-670.78553047 1590.73504531 -672.49452552 1589.02476939 -674.20317841 1587.31415176 C-675.38154518 1586.13882133 -675.38154518 1586.13882133 -676.58371735 1584.93974686 C-680.73219759 1580.77378452 -684.72660138 1576.53111769 -688.55460358 1572.0680275 C-690.93911658 1569.30795989 -693.44654339 1566.66540315 -695.94145966 1564.00555801 C-700.38111259 1559.23394906 -704.58305107 1554.33637811 -708.66411591 1549.25165176 C-711.51607173 1545.76901953 -714.47478967 1542.39036087 -717.44145966 1539.00555801 C-723.12011394 1532.50199753 -728.51929205 1525.8239145 -733.78423309 1518.9826088 C-735.01050211 1517.39070053 -736.24531486 1515.80538459 -737.48052216 1514.22040176 C-761.71285554 1483.00252601 -783.92514268 1450.31879973 -804.06645966 1416.31805801 C-804.67731415 1415.28713028 -805.28816864 1414.25620255 -805.91753387 1413.19403458 C-814.67514531 1398.35054887 -822.86454048 1383.28277246 -830.71050262 1367.94012833 C-832.43986776 1364.59598329 -834.25068084 1361.30352789 -836.06645966 1358.00555801 C-875.28808079 1284.56758539 -900.94080889 1201.96300695 -934.38451767 941.12322998 C-934.37885816 938.45775416 -934.3760497 935.79228474 -934.37343597 933.12680435 C-934.33616135 906.94967348 -933.91781372 880.90029365 -931.31645966 854.83191299 C-931.05736366 852.22659401 -930.80940742 849.62036424 -930.56255341 847.0138588 C-926.3986959 803.64349807 -919.22021367 760.68387309 -909.06645966 718.31805801 C-908.7934906 717.17618027 -908.7934906 717.17618027 -908.51500702 716.01123428 C-892.20234438 648.01474353 -867.80288213 582.5585383 -836.84380341 519.91962051 C-835.31143834 516.81902651 -833.79576274 513.71059645 -832.28520966 510.59930801 C-826.06927326 497.87149697 -819.14267996 485.58417759 -812.06645966 473.31805801 C-811.49878876 472.32725235 -810.93111786 471.33644669 -810.34624481 470.31561661 C-787.66067958 430.72959358 -762.16147443 392.31421515 -733.3491745 356.90057755 C-731.54883357 354.6794489 -729.77815532 352.43509431 -728.00395966 350.19305801 C-724.48583843 345.79175698 -720.8546369 341.49278023 -717.200737 337.20428848 C-714.28977739 333.78323315 -711.44275802 330.32001358 -708.62895966 326.81805801 C-704.76255798 322.06314752 -700.68117098 317.55144157 -696.49053192 313.08368301 C-693.81261326 310.22723644 -691.19142957 307.33459787 -688.62114716 304.38055801 C-677.96987937 292.15353 -666.515942 280.66595642 -655.06645966 269.19305801 C-654.48255463 268.60656479 -653.8986496 268.02007156 -653.29705048 267.41580582 C-647.62303962 261.72196203 -641.96629463 256.07215574 -635.84624481 250.85272598 C-632.71782184 248.15515852 -629.75142974 245.28419384 -626.75395966 242.44305801 C-621.56021636 237.55406942 -616.25623731 232.91552491 -610.67974091 228.46258926 C-607.86226486 226.15049009 -605.18381475 223.72552236 -602.50395966 221.25555801 C-597.53415895 216.69288788 -592.38414538 212.46600679 -587.06645966 208.31805801 C-585.47588363 207.06360371 -583.88531866 205.80913537 -582.29497528 204.55438614 C-579.88640643 202.65746808 -577.47167893 200.7684569 -575.05718231 198.87909317 C-572.95641556 197.23176638 -570.86106948 195.57768448 -568.76567841 193.92352676 C-559.51907096 186.64744156 -550.12349105 179.6732787 -540.450737 172.97528458 C-537.8104991 171.14014891 -535.18236758 169.28838998 -532.55474091 167.43524551 C-520.6041097 159.02781171 -508.51871456 150.9607949 -496.06645966 143.31805801 C-495.02892548 142.67755508 -493.9913913 142.03705215 -492.92241669 141.37714005 C-468.87733404 126.54893422 -444.3808097 112.75689636 -419.20610809 99.92157364 C-416.35454059 98.46518986 -413.51062058 96.99496586 -410.66802216 95.52118301 C-353.04618575 65.89378309 -290.75368047 44.27724301 -228.06645966 28.31805801 C-226.91980835 28.02511856 -226.91980835 28.02511856 -225.74999237 27.72626114 C-181.31359632 16.40290955 -136.06310677 8.67432406 -90.44145966 4.13055801 C-89.65977417 4.05156265 -88.87808868 3.97256729 -88.07271576 3.89117813 C-58.72853946 0.96470865 -29.47247818 -0.0635679 0 0 Z " fill="#005F9E" transform="translate(934.0664596557617,-0.3180580139160156)"/>
<path d="M0 0 C283.8 0 567.6 0 860 0 C849.64718553 40.26094515 849.64718553 40.26094515 844.98828125 57.62890625 C844.45637099 59.61700216 843.92460721 61.60513726 843.39297485 63.5933075 C841.99139801 68.83313557 840.58773447 74.0724023 839.18357468 79.3115387 C837.69026065 84.88477628 836.19893058 90.45854482 834.70727539 96.03222656 C831.14109205 109.35559741 827.57116082 122.67796255 824 136 C823.74257523 136.96034904 823.48515045 137.92069809 823.21992493 138.91014862 C817.78310819 159.19243449 812.34103088 179.47330663 806.89689064 199.75362778 C801.28362588 220.66448683 795.67829346 241.57747148 790.0733223 262.49055481 C789.24997455 265.56259496 788.42661038 268.6346307 787.60324097 271.70666504 C785.39468286 279.94692013 783.18614636 288.18718101 780.97767639 296.42745972 C777.41724652 309.71219296 773.85661596 322.99687239 770.29576302 336.28149223 C769.48365516 339.31127933 768.67156653 342.34107157 767.85948181 345.37086487 C765.43907779 354.40102604 763.01853984 363.4311512 760.59733868 372.46109867 C759.25880985 377.45320751 757.92039214 382.44534614 756.58203125 387.4375 C756.18363635 388.92351872 756.18363635 388.92351872 755.77719307 390.43955803 C752.04237026 404.37134871 748.31276409 418.304528 744.5866394 432.23864746 C742.488938 440.08306658 740.38987384 447.92712087 738.29051018 455.77109528 C736.58352694 462.14950354 734.87834768 468.52839035 733.17456341 474.90765381 C732.11958338 478.85589712 731.06283613 482.8036659 730.00562477 486.75131226 C729.52054235 488.56403981 729.03617249 490.37695825 728.55261803 492.19009399 C727.88430226 494.69562149 727.21330433 497.20041752 726.54174805 499.70507812 C726.35738693 500.39883293 726.17302582 501.09258774 725.983078 501.80736542 C723.80188208 509.9185271 721.37219581 517.93453426 719 526 C609.11 526 499.22 526 386 526 C387.12500094 516.9999925 387.12500094 516.9999925 388.03520203 513.60354614 C388.24032756 512.827759 388.44545309 512.05197186 388.65679455 511.25267601 C388.99236606 510.01602668 388.99236606 510.01602668 389.3347168 508.75439453 C389.57309171 507.85907831 389.81146662 506.96376209 390.05706501 506.04131508 C390.84941606 503.07044327 391.64929618 500.10165377 392.44921875 497.1328125 C393.01575544 495.01479069 393.5818255 492.89664402 394.14746094 490.77838135 C395.6710974 485.07779175 397.2012658 479.37897426 398.73269272 473.68047333 C400.33375912 467.71848602 401.92887717 461.75490761 403.5246582 455.79150391 C406.43053577 444.93583515 409.34161901 434.08157068 412.25514698 423.22795296 C414.98573295 413.05522285 417.71125931 402.88114242 420.4356041 392.70673943 C427.63145491 365.83520958 434.84238376 338.96777891 442.1015625 312.11328125 C442.50900505 310.60559283 442.91644024 309.09790243 443.3238678 307.59020996 C445.0341878 301.26186805 446.74523809 294.93373059 448.46112823 288.6068964 C449.29422889 285.53381053 450.12541809 282.46020743 450.95703125 279.38671875 C451.2537674 278.29523026 451.55050354 277.20374176 451.85623169 276.07917786 C452.26154617 274.57951729 452.26154617 274.57951729 452.67504883 273.04956055 C452.90847488 272.18880417 453.14190094 271.32804779 453.38240051 270.44120789 C454.00678831 267.97316761 454.52248867 265.500241 455 263 C453.90715698 262.58379395 453.90715698 262.58379395 452.79223633 262.15917969 C450.17305652 261.07184335 447.78877258 259.85102985 445.32421875 258.453125 C444.42662842 257.94539551 443.52903809 257.43766602 442.60424805 256.91455078 C441.64172119 256.36524902 440.67919434 255.81594727 439.6875 255.25 C438.67276611 254.67362793 437.65803223 254.09725586 436.61254883 253.50341797 C427.4219122 248.26959599 418.28811786 242.93975958 409.16015625 237.59765625 C399.56057762 231.98321325 389.91864049 226.4419968 380.28222656 220.89111328 C374.85340058 217.76319852 369.42680719 214.63141552 364 211.5 C361.83334417 210.24998121 359.6666775 208.99998122 357.5 207.75 C318.5 185.25 279.5 162.75 240.5 140.25 C239.42733887 139.63116943 238.35467773 139.01233887 237.24951172 138.37475586 C235.08442929 137.12564482 232.91939018 135.87645871 230.75439453 134.62719727 C225.31384294 131.48797691 219.87252784 128.35009437 214.4296875 125.21484375 C203.97793801 119.19252671 193.53700452 113.15330663 183.125 107.0625 C174.44737759 101.98724877 165.73394432 96.97741233 157 92 C147.27884383 86.4599827 137.59105342 80.86625191 127.93310547 75.21655273 C117.40915375 69.06233258 106.84619863 62.97630004 96.28222656 56.89111328 C90.85340058 53.76319852 85.42680719 50.63141552 80 47.5 C77.83334417 46.24998121 75.6666775 44.99998122 73.5 43.75 C67 40 67 40 60.5 36.25 C58.88992065 35.3211499 58.88992065 35.3211499 57.24731445 34.37353516 C55.08950197 33.12858718 52.93178647 31.8834711 50.77416992 30.63818359 C45.22283408 27.43447349 39.66963459 24.2340637 34.11328125 21.0390625 C14.53705186 9.77736324 14.53705186 9.77736324 5.875 4.625 C5.25923096 4.26164551 4.64346191 3.89829102 4.0090332 3.52392578 C2.65486109 2.71162388 1.32390233 1.86075498 0 1 C0 0.67 0 0.34 0 0 Z " fill="#FFFFFF" transform="translate(626,519)"/>
<path d="M0 0 C3.63632623 1.37448867 6.97064121 3.00434858 10.359375 4.90625 C11.38345459 5.47980225 12.40753418 6.05335449 13.46264648 6.64428711 C14.54747314 7.25667236 15.6322998 7.86905762 16.75 8.5 C17.87672119 9.13365479 19.00344238 9.76730957 20.16430664 10.42016602 C26.95517743 14.25000564 33.70984746 18.13335601 40.4152832 22.1105957 C46.72724525 25.85304663 53.07941601 29.52403479 59.4375 33.1875 C60.54472412 33.82550537 61.65194824 34.46351074 62.79272461 35.12084961 C65.06337068 36.42889477 67.33412358 37.73675448 69.60498047 39.04443359 C75.0716998 42.19332054 80.53574887 45.34683264 86 48.5 C88.16665311 49.7500235 90.33331979 51.00002347 92.5 52.25 C112 63.5 112 63.5 131.5 74.75 C132.57266113 75.36883057 133.64532227 75.98766113 134.75048828 76.62524414 C136.91557071 77.87435518 139.08060982 79.12354129 141.24560547 80.37280273 C146.68615706 83.51202309 152.12747216 86.64990563 157.5703125 89.78515625 C168.02206199 95.80747329 178.46299548 101.84669337 188.875 107.9375 C197.55262241 113.01275123 206.26605568 118.02258767 215 123 C224.72115617 128.5400173 234.40894658 134.13374809 244.06689453 139.78344727 C254.59084625 145.93766742 265.15380137 152.02369996 275.71777344 158.10888672 C281.14659942 161.23680148 286.57319281 164.36858448 292 167.5 C294.16665583 168.75001879 296.3333225 170.00001878 298.5 171.25 C344 197.5 344 197.5 389.5 223.75 C391.1094751 224.67848755 391.1094751 224.67848755 392.75146484 225.62573242 C394.91337884 226.87306548 397.07516317 228.1206233 399.23681641 229.3684082 C404.72514585 232.53608832 410.21582533 235.69956761 415.7109375 238.85546875 C428.89284645 246.43204038 441.99855579 254.11750366 455 262 C452.38925449 272.54946186 449.68988439 283.07206734 446.89453125 293.57421875 C446.49780325 295.0679693 446.10114838 296.56173928 445.70455933 298.05552673 C444.63289459 302.09033419 443.55949908 306.12467915 442.48556137 310.15888214 C441.80677422 312.70901113 441.12839353 315.25924795 440.45010376 317.80950928 C432.84063403 346.41636224 425.18279023 375.01020305 417.50091171 403.59769058 C416.69729754 406.58853606 415.8939873 409.57946304 415.09072876 412.57040405 C413.80709604 417.34946195 412.52228209 422.12820093 411.2366066 426.90670967 C410.76956991 428.64297157 410.30281004 430.37930797 409.83639145 432.11573601 C405.63210122 447.76494599 401.30933989 463.3786429 397 479 C224.08 479 51.16 479 -127 479 C-126.31655227 473.53241812 -125.57779927 468.88294328 -124.18432617 463.64697266 C-123.90973981 462.60665437 -123.90973981 462.60665437 -123.62960625 461.54531956 C-123.02242104 459.2502 -122.40776199 456.95715475 -121.79296875 454.6640625 C-121.35605964 453.0194244 -120.91958254 451.37467148 -120.48350525 449.72981262 C-119.30447435 445.2883722 -118.11869156 440.84876019 -116.93149567 436.40949631 C-115.92967039 432.66004064 -114.9317991 428.9095372 -113.93387604 425.1590414 C-106.7909404 398.31663127 -99.56263298 371.49742954 -92.2956934 344.68836212 C-85.50735867 319.64274367 -78.80242351 294.5754004 -72.125 269.5 C-70.08877245 261.85410519 -68.0523904 254.20825156 -66.015625 246.5625 C-65.76408913 245.61823717 -65.51255325 244.67397434 -65.25339508 243.70109749 C-59.81685288 223.29457655 -54.3505434 202.89608594 -48.875 182.5 C-48.42244375 180.8141075 -47.96988841 179.12821476 -47.51733398 177.44232178 C-45.03339873 168.18933441 -42.54864339 158.93656739 -40.06359863 149.68387794 C-35.81560162 133.86687714 -31.56945346 118.04937997 -27.32450867 102.23155975 C-26.86013428 100.50117436 -26.39574839 98.77079205 -25.93135071 97.0404129 C-17.25274636 64.70287262 -8.61132053 32.35552236 0 0 Z " fill="#FFFFFF" transform="translate(517,566)"/>
<path d="M0 0 C143.22 0 286.44 0 434 0 C432.80269931 5.98650343 431.61450395 11.76690122 430.07421875 17.64233398 C429.89081719 18.34513898 429.70741564 19.04794397 429.51845646 19.77204609 C428.91087758 22.09745542 428.29920308 24.42176621 427.6875 26.74609375 C427.2454777 28.43436384 426.80370743 30.12269992 426.36216736 31.81109619 C425.16240491 36.39575225 423.9590163 40.97944927 422.75486374 45.56295395 C421.48259949 50.40777822 420.21330277 55.25337997 418.94360352 60.09887695 C416.77433076 68.37565409 414.60279221 76.65183437 412.43017578 84.92773438 C409.80737502 94.91905073 407.1893735 104.91161692 404.57366371 114.90479183 C402.22114091 123.89243891 399.86691152 132.8796376 397.51131248 141.86647892 C396.09116856 147.28451288 394.67161756 152.70270022 393.25366211 158.12130737 C391.91135119 163.25038469 390.56667701 168.37883721 389.22033882 173.50685883 C388.72915877 175.37918045 388.2387436 177.25170295 387.74921989 179.12445831 C384.34721634 192.13667446 380.74514769 205.08233795 377 218 C368.05173043 213.67150296 359.45384952 209.0067389 350.91796875 203.91796875 C345.16636982 200.49130689 339.36445224 197.15296583 333.5625 193.8125 C332.45616211 193.17505859 331.34982422 192.53761719 330.20996094 191.88085938 C327.93844323 190.57220371 325.66679503 189.26377451 323.39501953 187.95556641 C317.9283002 184.80667946 312.46425113 181.65316736 307 178.5 C304.83334689 177.2499765 302.66668021 175.99997653 300.5 174.75 C255 148.5 255 148.5 209.5 122.25 C208.42733887 121.63116943 207.35467773 121.01233887 206.24951172 120.37475586 C204.08442929 119.12564482 201.91939018 117.87645871 199.75439453 116.62719727 C194.31384294 113.48797691 188.87252784 110.35009437 183.4296875 107.21484375 C172.97793801 101.19252671 162.53700452 95.15330663 152.125 89.0625 C142.85436069 83.64041301 133.54063301 78.29675988 124.20953369 72.97976685 C115.13221364 67.80621213 106.09428467 62.56857846 97.078125 57.2890625 C89.41426026 52.80833735 81.71314165 48.39505776 74 44 C64.29044384 38.46680184 54.61346092 32.8811919 44.96826172 27.23632812 C36.30242125 22.16689111 27.60706716 17.14963486 18.90185547 12.14819336 C14.00251707 9.32899713 9.11038122 6.49769598 4.2421875 3.625 C3.42347168 3.14289063 2.60475586 2.66078125 1.76123047 2.1640625 C0.88942139 1.58785156 0.88942139 1.58785156 0 1 C0 0.67 0 0.34 0 0 Z " fill="#FFFFFF" transform="translate(459,1139)"/>
</svg>
