<?xml version="1.0" encoding="UTF-8"?>
<svg version="1.1" xmlns="http://www.w3.org/2000/svg" width="512" height="512">
<path d="M0 0 C0 21.12 0 42.24 0 64 C9.36669067 63.9685791 9.36669067 63.9685791 18.92260742 63.93652344 C39.51813904 63.87034452 60.11367475 63.82589744 80.70928478 63.79275131 C93.20053204 63.77211442 105.69167866 63.74397217 118.18286133 63.69824219 C129.06848683 63.65840907 139.95403946 63.63257539 150.83973581 63.62364602 C156.60518017 63.61842533 162.37041605 63.60613119 168.13579369 63.57707977 C173.56039453 63.54996651 178.98470063 63.5415468 184.40936279 63.54756927 C186.40201226 63.54646721 188.3946714 63.53848914 190.38726234 63.5231781 C193.10527444 63.50331424 195.82216967 63.50804762 198.54020691 63.51898193 C199.72650004 63.50150488 199.72650004 63.50150488 200.9367587 63.48367476 C204.6722663 63.52437185 206.79136934 63.86600711 209.96623707 65.90506363 C213.27398699 69.31230718 213.12682466 71.38296452 213.13422108 76.04179096 C213.13867892 77.33851272 213.14313676 78.63523448 213.14772969 79.97125083 C213.14764039 81.42397456 213.14745052 82.87669829 213.14717102 84.329422 C213.15046857 85.86201133 213.15419391 87.3945998 213.1583125 88.92718714 C213.1683529 93.15440215 213.17205256 97.38160295 213.17470181 101.60882819 C213.17859879 106.16176626 213.18817749 110.71469303 213.19691467 115.2676239 C213.21669553 126.27024374 213.22674702 137.27286452 213.23564246 148.2754977 C213.24002242 153.45258856 213.24538996 158.62967838 213.25063133 163.80676842 C213.26764469 181.00902119 213.28214011 198.21127332 213.28938007 215.41353321 C213.29129007 219.87961134 213.29321039 224.34568947 213.29516602 228.81176758 C213.29564976 229.92183372 213.2961335 231.03189986 213.2966319 232.17560437 C213.30493684 250.16847431 213.33028111 268.16127787 213.36274669 286.15411881 C213.39578252 304.61296018 213.41382565 323.07176778 213.41702431 341.53063887 C213.41919256 351.90033342 213.4279872 362.26993114 213.45348549 372.63959694 C213.47514499 381.4686575 213.48326638 390.29759773 213.47351871 399.12668184 C213.46896026 403.63362728 213.47094945 408.14032419 213.49028015 412.64723587 C213.50781486 416.77091928 213.50699366 420.89417109 213.49138286 425.01785847 C213.48899196 426.51182644 213.49340656 428.00582354 213.50521151 429.49974678 C213.52023964 431.52667355 213.5083172 433.55374698 213.49498463 435.58068562 C213.49596144 436.70775057 213.49693824 437.83481553 213.49794465 438.99603397 C212.88717107 442.68066653 211.57346524 444.34391429 209 447 C205.82112977 448.58943511 202.3914401 448.13296985 198.90097046 448.12025452 C197.63046418 448.12153615 197.63046418 448.12153615 196.3342911 448.12284368 C193.4798383 448.12449832 190.62544353 448.11897735 187.77099609 448.11352539 C185.73131817 448.11324349 183.69164014 448.11340131 181.65196228 448.1139679 C176.10059604 448.11425576 170.54925124 448.10836086 164.99789 448.10139394 C159.20160753 448.09515851 153.40532461 448.09455645 147.60903931 448.09336853 C136.62660969 448.09025578 125.64418999 448.08204313 114.66176474 448.07201904 C102.16135292 448.06085618 89.66094064 448.05534702 77.16052508 448.05032361 C51.44034329 448.03986048 25.72017509 448.02151568 0 448 C0 469.12 0 490.24 0 512 C-6.50603939 511.40854187 -12.4742446 510.85643496 -18.80728149 509.6721344 C-19.51584351 509.5410753 -20.22440552 509.4100162 -20.9544391 509.27498561 C-23.292975 508.8411888 -25.63009971 508.40023824 -27.96728516 507.95922852 C-29.66532613 507.64271159 -31.36345102 507.32664459 -33.06165218 507.01098824 C-37.67232445 506.1526693 -42.28180719 505.28811124 -46.89110875 504.42246604 C-51.79625174 503.50242427 -56.70249908 502.58830871 -61.60862732 501.67353821 C-69.96015888 500.11555829 -78.31102178 498.55403865 -86.66140747 496.9899292 C-99.60079587 494.56626803 -112.54137702 492.14901749 -125.48217773 489.73291016 C-129.76830317 488.93259833 -134.05441933 488.1322369 -138.3405304 487.33184814 C-139.3957049 487.13480868 -140.45087941 486.93776921 -141.5380289 486.73475885 C-148.95679932 485.3493011 -156.37537602 483.96280912 -163.79386902 482.5758667 C-186.83708997 478.26804 -209.88234666 473.97171021 -232.93359375 469.70703125 C-234.12358978 469.48679605 -235.31358582 469.26656086 -236.53964233 469.03965187 C-247.01064059 467.10184518 -257.48204659 465.16626667 -267.95424175 463.23493862 C-271.52419397 462.57611736 -275.09384404 461.91567104 -278.66340828 461.25475121 C-280.9991484 460.82290044 -283.33530603 460.39336608 -285.67149353 459.96394348 C-287.02719727 459.71292157 -288.38287641 459.46176671 -289.73852539 459.21044922 C-290.88801163 458.99846893 -292.03749786 458.78648865 -293.22181702 458.56808472 C-296 458 -296 458 -299 457 C-299 324.34 -299 191.68 -299 55 C-270.25907254 49.25181451 -270.25907254 49.25181451 -257.54223633 46.88818359 C-256.06669607 46.61264959 -254.59118232 46.33697357 -253.11569214 46.06117153 C-249.17594488 45.32514987 -245.23583663 44.59107875 -241.29565263 43.85739923 C-237.06257335 43.06879535 -232.82985642 42.27825088 -228.59709167 41.48796082 C-219.53509195 39.79636544 -210.4726733 38.10702277 -201.41015625 36.41820145 C-195.80128694 35.37296523 -190.19250206 34.32727648 -184.58374023 33.28146362 C-183.65440206 33.10818002 -182.72506388 32.93489641 -181.76756394 32.75636178 C-178.94855729 32.23072748 -176.12955201 31.70508578 -173.31054688 31.17944336 C-169.55655108 30.47946615 -165.80255321 29.77950008 -162.04855347 29.07954407 C-161.12185061 28.9067531 -160.19514776 28.73396214 -159.240363 28.55593508 C-153.63783381 27.51133087 -148.03525618 26.46698692 -142.4326452 25.42282146 C-121.0744656 21.44217739 -99.7182198 17.45150396 -78.3654232 13.44208527 C-71.17957781 12.09328798 -63.99322525 10.74719553 -56.80684757 9.40123749 C-50.34881995 8.1913642 -43.8916509 6.97703581 -37.43507862 5.75942135 C-33.54044737 5.02610661 -29.64500294 4.29719233 -25.74929237 3.56963539 C-23.98983407 3.24009348 -22.230723 2.90869097 -20.47200584 2.57521629 C-18.11895427 2.12924159 -15.76476206 1.68987972 -13.41015625 1.25219727 C-12.73835233 1.12316198 -12.0665484 0.9941267 -11.37438679 0.86118126 C-7.42307161 0.13556368 -4.10002867 0 0 0 Z " fill="#34865E" transform="translate(299,0)"/>
<path d="M0 0 C63.36 0 126.72 0 192 0 C192 112.86 192 225.72 192 342 C128.64 342 65.28 342 0 342 C0 334.74 0 327.48 0 320 C21.12 320 42.24 320 64 320 C64 306.14 64 292.28 64 278 C42.88 278 21.76 278 0 278 C0 270.74 0 263.48 0 256 C21.12 256 42.24 256 64 256 C64 242.14 64 228.28 64 214 C42.88 214 21.76 214 0 214 C0 206.74 0 199.48 0 192 C21.12 192 42.24 192 64 192 C64 178.14 64 164.28 64 150 C42.88 150 21.76 150 0 150 C0 142.74 0 135.48 0 128 C21.12 128 42.24 128 64 128 C64 114.14 64 100.28 64 86 C42.88 86 21.76 86 0 86 C0 78.74 0 71.48 0 64 C21.12 64 42.24 64 64 64 C64 50.14 64 36.28 64 22 C42.88 22 21.76 22 0 22 C0 14.74 0 7.48 0 0 Z " fill="#EEF1EF" transform="translate(299,85)"/>
<path d="M0 0 C0.94875 0.00902344 1.8975 0.01804688 2.875 0.02734375 C3.57625 0.03894531 4.2775 0.05054688 5 0.0625 C3.61512873 3.72923788 1.96494253 7.08918245 0.05078125 10.5078125 C-0.5421875 11.57064453 -1.13515625 12.63347656 -1.74609375 13.72851562 C-2.38675781 14.86998047 -3.02742188 16.01144531 -3.6875 17.1875 C-4.36229666 18.39500492 -5.03677011 19.60269051 -5.7109375 20.81054688 C-7.11121681 23.3187354 -8.51288115 25.8261422 -9.91552734 28.33300781 C-13.74092087 35.17313305 -17.53954921 42.02817716 -21.34106445 48.8815918 C-24.27360203 54.16556504 -27.21192711 59.44604737 -30.17169189 64.71481323 C-31.57166166 67.20780346 -32.96821466 69.70269975 -34.36450195 72.19775391 C-35.03222626 73.3886553 -35.70163059 74.57861646 -36.37280273 75.76757812 C-37.30223909 77.41428926 -38.22547856 79.06449339 -39.1484375 80.71484375 C-39.67614746 81.65320068 -40.20385742 82.59155762 -40.74755859 83.55834961 C-42.3231286 86.68516374 -42.3231286 86.68516374 -43 90.0625 C-42.20342287 92.25725372 -42.20342287 92.25725372 -40.81640625 94.46484375 C-40.30932129 95.33979492 -39.80223633 96.21474609 -39.27978516 97.11621094 C-38.71308105 98.06786133 -38.14637695 99.01951172 -37.5625 100 C-36.35114455 102.08624181 -35.14159162 104.173531 -33.93359375 106.26171875 C-33.29019043 107.36821777 -32.64678711 108.4747168 -31.98388672 109.61474609 C-28.61546038 115.46866152 -25.37397686 121.39183358 -22.125 127.3125 C-20.77952497 129.75959881 -19.43288048 132.20605268 -18.0859375 134.65234375 C-17.75117905 135.26055969 -17.41642059 135.86877563 -17.07151794 136.49542236 C-14.65636644 140.88015539 -12.22643222 145.25648969 -9.7890625 149.62890625 C-9.44751129 150.24194611 -9.10596008 150.85498596 -8.75405884 151.48660278 C-7.12871461 154.40341231 -5.50156388 157.31917563 -3.87158203 160.23339844 C-0.77744775 165.78380723 2.2160306 171.34984992 5 177.0625 C0.72898372 176.921747 -3.54176247 176.77395337 -7.8125 176.625 C-9.00810547 176.58568359 -10.20371094 176.54636719 -11.43554688 176.50585938 C-13.82111875 176.42135683 -16.20606065 176.31659398 -18.58984375 176.19140625 C-21.94614452 176.0121165 -21.94614452 176.0121165 -25.08203125 176.23046875 C-28.09714152 176.28845164 -30.18908968 176.17029419 -33 175.0625 C-36.30460762 171.44841763 -38.2630099 167.3266189 -40.375 162.9375 C-40.99909023 161.7172593 -41.62756799 160.49925338 -42.26025391 159.28344727 C-43.55455239 156.78923521 -44.82995034 154.28664595 -46.09375 151.77685547 C-48.98965937 146.07469854 -52.19191998 140.54520886 -55.375 135 C-56.44666828 133.11405101 -57.51710439 131.22740098 -58.5859375 129.33984375 C-59.25181885 128.16796509 -59.25181885 128.16796509 -59.93115234 126.97241211 C-60.65124089 125.68569382 -61.34058033 124.38133933 -62 123.0625 C-66.44308 129.97395778 -70.41625888 137.11569129 -74.375 144.3125 C-76.28135051 147.77260368 -78.19085654 151.22991471 -80.12719727 154.67333984 C-81.38327636 156.946432 -82.59460645 159.24479026 -83.76147461 161.56494141 C-88.0394942 169.74598099 -88.0394942 169.74598099 -92.76953125 171.3046875 C-94.74829102 171.21875 -94.74829102 171.21875 -96.8125 170.9375 C-97.89325806 170.86402344 -97.89325806 170.86402344 -98.99584961 170.7890625 C-101.34141807 170.61144819 -103.66451716 170.34188663 -106 170.0625 C-107.70285104 169.89561798 -109.40598347 169.73158417 -111.109375 169.5703125 C-115.41741109 169.1418149 -119.70747647 168.62479548 -124 168.0625 C-122.72701932 163.92121685 -121.17498763 160.29200386 -119.05078125 156.51953125 C-118.45740967 155.45919678 -117.86403809 154.3988623 -117.25268555 153.30639648 C-116.61242432 152.17403564 -115.97216309 151.0416748 -115.3125 149.875 C-114.64113957 148.67877159 -113.97033216 147.48223266 -113.30004883 146.28540039 C-111.90430881 143.79420823 -110.50619079 141.30437329 -109.10644531 138.81542969 C-107.06798326 135.18761048 -105.04311315 131.55236785 -103.0234375 127.9140625 C-102.38494873 126.76397705 -101.74645996 125.6138916 -101.08862305 124.42895508 C-99.82844315 122.15603527 -98.56947677 119.88244219 -97.31176758 117.6081543 C-94.51698324 112.56070151 -91.70471667 107.52855872 -88.80078125 102.54296875 C-88.32294189 101.7135376 -87.84510254 100.88410645 -87.3527832 100.02954102 C-86.4818465 98.52170925 -85.59969359 97.02027238 -84.70385742 95.52709961 C-82.53809463 91.84303629 -82.53809463 91.84303629 -82.22192383 87.68994141 C-83.10881722 84.69504128 -84.35046378 82.26759206 -85.88671875 79.546875 C-86.48830811 78.47332764 -87.08989746 77.39978027 -87.7097168 76.29370117 C-88.36889613 75.13325435 -89.02815937 73.97285519 -89.6875 72.8125 C-90.36760972 71.60364614 -91.04704316 70.39441158 -91.72583008 69.18481445 C-93.1248104 66.69423592 -94.52749361 64.20580408 -95.93359375 61.71923828 C-99.03295787 56.23776153 -102.1101311 50.74384673 -105.1875 45.25 C-105.75509033 44.23703857 -106.32268066 43.22407715 -106.9074707 42.18041992 C-110.92149991 35.00894052 -114.9159041 27.82696451 -118.875 20.625 C-119.39344482 19.68873779 -119.91188965 18.75247559 -120.44604492 17.7878418 C-120.91502197 16.93101807 -121.38399902 16.07419434 -121.8671875 15.19140625 C-122.48762939 14.06327515 -122.48762939 14.06327515 -123.12060547 12.91235352 C-124 11.0625 -124 11.0625 -124 9.0625 C-120.41747518 8.72009295 -116.83388654 8.39032151 -113.25 8.0625 C-111.75533203 7.91941406 -111.75533203 7.91941406 -110.23046875 7.7734375 C-103.13471734 7.13253092 -96.12293319 6.94838091 -89 7.0625 C-80.29511544 22.70831485 -71.60992521 38.36415404 -63 54.0625 C-58.73993745 49.30185456 -56.03435238 43.79083799 -53.0625 38.1875 C-52.20325928 36.61826782 -52.20325928 36.61826782 -51.32666016 35.01733398 C-48.33836 29.54996359 -45.51073797 24.07249032 -42.92578125 18.40234375 C-35.78692697 3.35721411 -35.78692697 3.35721411 -30.70556641 0.99658203 C-25.79375115 -0.10864931 -21.16152433 0.219119 -16.20849609 0.86791992 C-10.80923014 1.34362354 -5.44393561 -0.0680492 0 0 Z " fill="#F8F9F8" transform="translate(201,177.9375)"/>
<path d="M0 0 C63.03 0 126.06 0 191 0 C191 55.77 191 111.54 191 169 C183.12299692 162.24828307 183.12299692 162.24828307 180.08422852 159.21362305 C179.40405167 158.53659836 178.72387482 157.85957367 178.02308655 157.16203308 C176.9617173 156.09762749 176.9617173 156.09762749 175.87890625 155.01171875 C175.13414536 154.26791458 174.38938446 153.52411041 173.62205505 152.75776672 C172.06199381 151.19838174 170.50317764 149.63775022 168.94555664 148.07592773 C166.5488278 145.67379699 164.14674938 143.27710749 161.74414062 140.88085938 C160.22624135 139.36230011 158.70865186 137.84343111 157.19140625 136.32421875 C156.46965714 135.60449387 155.74790802 134.88476898 155.00428772 134.14323425 C154.01712013 133.15133842 154.01712013 133.15133842 153.01000977 132.1394043 C152.42711685 131.55571579 151.84422394 130.97202728 151.2436676 130.37065125 C150 129 150 129 150 128 C156.6 128 163.2 128 170 128 C170 113.48 170 98.96 170 84 C165.52824219 84.22042969 161.05648437 84.44085938 156.44921875 84.66796875 C153.57302778 84.76535394 150.69893705 84.85679535 147.82226562 84.92773438 C143.27854076 85.04032452 138.74224535 85.1716193 134.2043457 85.43334961 C107.83492684 86.91555579 107.83492684 86.91555579 98.65478516 79.72119141 C93.88103488 75.28793332 89.58526569 70.45051386 86 65 C86 64.67 86 64.34 86 64 C113.72 64 141.44 64 170 64 C170 49.81 170 35.62 170 21 C141.95 21 113.9 21 85 21 C85 34.86 85 48.72 85 63 C82.69 61.02 80.38 59.04 78 57 C76.75738265 56.03379536 75.51020638 55.07334553 74.25390625 54.125 C70.5625 51 70.5625 51 64 43 C64 35.74 64 28.48 64 21 C42.88 21 21.76 21 0 21 C0 14.07 0 7.14 0 0 Z " fill="#FDFEFD" transform="translate(299,86)"/>
<path d="M0 0 C28.05 0 56.1 0 85 0 C85 13.86 85 27.72 85 42 C56.95 42 28.9 42 0 42 C0 28.14 0 14.28 0 0 Z " fill="#1D794C" transform="translate(384,363)"/>
<path d="M0 0 C28.05 0 56.1 0 85 0 C85 13.86 85 27.72 85 42 C56.95 42 28.9 42 0 42 C0 28.14 0 14.28 0 0 Z " fill="#1F794C" transform="translate(384,299)"/>
<path d="M0 0 C28.05 0 56.1 0 85 0 C85 13.86 85 27.72 85 42 C56.95 42 28.9 42 0 42 C0 28.14 0 14.28 0 0 Z " fill="#21794D" transform="translate(384,235)"/>
<path d="M0 0 C28.05 0 56.1 0 85 0 C85 13.86 85 27.72 85 42 C56.95 42 28.9 42 0 42 C0 28.14 0 14.28 0 0 Z " fill="#247C50" transform="translate(384,171)"/>
<path d="M0 0 C28.05 0 56.1 0 85 0 C85 13.86 85 27.72 85 42 C56.95 42 28.9 42 0 42 C0 28.14 0 14.28 0 0 Z " fill="#268154" transform="translate(384,107)"/>
<path d="M0 0 C0 1.65 0 3.3 0 5 C-0.68924561 5.13575439 -1.37849121 5.27150879 -2.08862305 5.41137695 C-17.02985422 8.29569872 -17.02985422 8.29569872 -31.875 11.625 C-37.87513845 13.06211029 -43.93002508 14.00377641 -50.02880859 14.91064453 C-58.49575708 16.17681445 -66.83397551 17.94569436 -75.18920898 19.80053711 C-84.0280318 21.75996346 -92.853314 23.57834653 -101.78051758 25.08691406 C-108.46734042 26.24018687 -115.13260923 27.50990229 -121.80078125 28.765625 C-123.23031487 29.03429662 -124.65986016 29.30290619 -126.0894165 29.57145691 C-129.711622 30.25207991 -133.33368112 30.93347795 -136.95567703 31.6152153 C-140.01135085 32.19035756 -143.06707874 32.76521233 -146.12280273 33.34008789 C-147.24172409 33.55059784 -148.36064545 33.76110779 -149.51347351 33.97799683 C-175.49155915 38.86479957 -201.47411047 43.72539528 -227.46875 48.5234375 C-228.51459007 48.71650419 -229.56043015 48.90957088 -230.63796234 49.10848808 C-241.13471791 51.04608538 -251.63177728 52.98202102 -262.12954712 54.91411591 C-266.06658042 55.63892831 -270.00343738 56.3646953 -273.94026184 57.09064102 C-275.78924446 57.43132426 -277.63831351 57.77153884 -279.48747253 58.11126328 C-282.03059577 58.57849381 -284.57343276 59.04725319 -287.11621094 59.51635742 C-287.86169315 59.65289891 -288.60717537 59.7894404 -289.37524796 59.93011951 C-292.61046092 60.52843362 -295.82256204 61.14143555 -299 62 C-299 59.69 -299 57.38 -299 55 C-279.80173543 51.08456412 -260.5573424 47.44401025 -241.29565263 43.85739923 C-237.06257335 43.06879535 -232.82985642 42.27825088 -228.59709167 41.48796082 C-219.53509195 39.79636544 -210.4726733 38.10702277 -201.41015625 36.41820145 C-195.80128694 35.37296523 -190.19250206 34.32727648 -184.58374023 33.28146362 C-183.65440206 33.10818002 -182.72506388 32.93489641 -181.76756394 32.75636178 C-178.94855729 32.23072748 -176.12955201 31.70508578 -173.31054688 31.17944336 C-169.55655108 30.47946615 -165.80255321 29.77950008 -162.04855347 29.07954407 C-161.12185061 28.9067531 -160.19514776 28.73396214 -159.240363 28.55593508 C-153.63783381 27.51133087 -148.03525618 26.46698692 -142.4326452 25.42282146 C-121.0744656 21.44217739 -99.7182198 17.45150396 -78.3654232 13.44208527 C-71.17957781 12.09328798 -63.99322525 10.74719553 -56.80684757 9.40123749 C-50.34881995 8.1913642 -43.8916509 6.97703581 -37.43507862 5.75942135 C-33.54044737 5.02610661 -29.64500294 4.29719233 -25.74929237 3.56963539 C-23.98983407 3.24009348 -22.230723 2.90869097 -20.47200584 2.57521629 C-18.11895427 2.12924159 -15.76476206 1.68987972 -13.41015625 1.25219727 C-12.73835233 1.12316198 -12.0665484 0.9941267 -11.37438679 0.86118126 C-7.5340638 0.15594623 -3.90201588 -0.12037725 0 0 Z " fill="#62A182" transform="translate(299,0)"/>
<path d="M0 0 C18.86750889 -2.2833291 18.86750889 -2.2833291 24.53613281 1.84863281 C26.97267163 4.28517163 29.2210604 6.79933784 31.4375 9.4375 C37.9591063 17.22559022 37.9591063 17.22559022 47.296875 20.484375 C52.89166146 20.84824629 58.4328436 20.64510824 64 20 C64 20.33 64 20.66 64 21 C42.88 21 21.76 21 0 21 C0 14.07 0 7.14 0 0 Z " fill="#E4E7E6" transform="translate(299,86)"/>
</svg>
